Rusch-GoticoAntiqua100G-1.1.ufo
<glyph name="ampersand" format="1">
  <advance width="761"/>
  <unicode hex="0026"/>
  <outline>
    <contour>
      <point x="288" y="-10" type="curve"/>
      <point x="342" y="28"/>
      <point x="406" y="76"/>
      <point x="485" y="147" type="curve"/>
      <point x="516" y="106"/>
      <point x="550" y="56"/>
      <point x="595" y="-10" type="curve"/>
      <point x="736" y="92" type="line"/>
      <point x="721" y="121" type="line"/>
      <point x="702" y="114"/>
      <point x="683" y="109"/>
      <point x="660" y="134" type="curve" smooth="yes"/>
      <point x="625" y="171"/>
      <point x="590" y="206"/>
      <point x="564" y="239" type="curve"/>
      <point x="632" y="316"/>
      <point x="751" y="462"/>
      <point x="751" y="469" type="curve"/>
      <point x="631" y="522" type="line"/>
      <point x="606" y="499"/>
      <point x="585" y="475"/>
      <point x="562" y="456" type="curve"/>
      <point x="591" y="446"/>
      <point x="619" y="431"/>
      <point x="648" y="409" type="curve"/>
      <point x="630" y="382"/>
      <point x="591" y="325"/>
      <point x="538" y="269" type="curve"/>
      <point x="493" y="323"/>
      <point x="450" y="363"/>
      <point x="411" y="387" type="curve" smooth="yes"/>
      <point x="391" y="399"/>
      <point x="374" y="408"/>
      <point x="356" y="416" type="curve"/>
      <point x="368" y="466"/>
      <point x="393" y="546"/>
      <point x="385" y="625" type="curve"/>
      <point x="333" y="629"/>
      <point x="255" y="636"/>
      <point x="190" y="644" type="curve"/>
      <point x="178" y="632"/>
      <point x="165" y="616"/>
      <point x="153" y="594" type="curve"/>
      <point x="161" y="552"/>
      <point x="169" y="489"/>
      <point x="174" y="458" type="curve"/>
      <point x="102" y="406"/>
      <point x="15" y="309"/>
      <point x="15" y="205" type="curve" smooth="yes"/>
      <point x="15" y="52"/>
      <point x="126" y="-13"/>
    </contour>
    <contour>
      <point x="275" y="91" type="curve" smooth="yes"/>
      <point x="183" y="91"/>
      <point x="80" y="152"/>
      <point x="80" y="245" type="curve" smooth="yes"/>
      <point x="80" y="294"/>
      <point x="111" y="338"/>
      <point x="167" y="368" type="curve"/>
      <point x="311" y="362"/>
      <point x="382" y="314"/>
      <point x="462" y="180" type="curve"/>
      <point x="412" y="125"/>
      <point x="358" y="91"/>
    </contour>
    <contour>
      <point x="322" y="429" type="curve"/>
      <point x="292" y="440"/>
      <point x="257" y="449"/>
      <point x="208" y="461" type="curve"/>
      <point x="208" y="486"/>
      <point x="210" y="524"/>
      <point x="215" y="557" type="curve"/>
      <point x="253" y="566"/>
      <point x="306" y="559"/>
      <point x="316" y="542" type="curve" smooth="yes"/>
      <point x="331" y="519"/>
      <point x="330" y="469"/>
    </contour>
  </outline>
</glyph>
<glyph name="parenleft" format="1">
  <advance width="528"/>
  <unicode hex="0028"/>
  <outline>
    <contour>
      <point x="401" y="-267" type="curve"/>
      <point x="401" y="-267" type="line"/>
      <point x="478" y="-261" type="line"/>
      <point x="478" y="-249" type="line"/>
      <point x="333" y="-151"/>
      <point x="83" y="-8"/>
      <point x="84" y="213" type="curve"/>
      <point x="85" y="467"/>
      <point x="327" y="588"/>
      <point x="478" y="648" type="curve"/>
      <point x="488" y="695" type="line"/>
      <point x="481" y="703" type="line"/>
      <point x="256" y="608"/>
      <point x="36" y="467"/>
      <point x="40" y="210" type="curve"/>
      <point x="43" y="0"/>
      <point x="216" y="-118"/>
    </contour>
  </outline>
</glyph>
<glyph name="parenright" format="1">
  <advance width="528"/>
  <unicode hex="0029"/>
  <outline>
    <contour>
      <point x="50" y="-260" type="line"/>
      <point x="127" y="-266" type="line"/>
      <point x="312" y="-117"/>
      <point x="485" y="1"/>
      <point x="488" y="211" type="curve"/>
      <point x="492" y="468"/>
      <point x="272" y="609"/>
      <point x="47" y="704" type="curve"/>
      <point x="40" y="696" type="line"/>
      <point x="50" y="649" type="line"/>
      <point x="201" y="589"/>
      <point x="443" y="468"/>
      <point x="444" y="214" type="curve"/>
      <point x="445" y="-7"/>
      <point x="195" y="-150"/>
      <point x="50" y="-248" type="curve"/>
    </contour>
  </outline>
</glyph>
<glyph name="comma" format="1">
  <advance width="195"/>
  <unicode hex="002C"/>
  <outline>
    <contour>
      <point x="93" y="147" type="curve"/>
      <point x="123" y="168"/>
      <point x="150" y="195"/>
      <point x="175" y="221" type="curve"/>
      <point x="155" y="251"/>
      <point x="133" y="281"/>
      <point x="103" y="305" type="curve"/>
      <point x="77" y="289"/>
      <point x="43" y="261"/>
      <point x="20" y="233" type="curve"/>
      <point x="40" y="203"/>
      <point x="74" y="167"/>
    </contour>
  </outline>
</glyph>
<glyph name="hyphen" format="1">
  <advance width="258"/>
  <unicode hex="002D"/>
  <outline>
    <contour>
      <point x="23" y="258" type="line"/>
      <point x="27" y="230" type="line"/>
      <point x="36" y="231" type="line"/>
      <point x="228" y="292" type="line"/>
      <point x="233" y="355" type="line"/>
      <point x="223" y="355" type="line"/>
    </contour>
    <contour>
      <point x="20" y="129" type="line"/>
      <point x="22" y="101" type="line"/>
      <point x="31" y="101" type="line"/>
      <point x="228" y="152" type="line"/>
      <point x="238" y="215" type="line"/>
      <point x="228" y="215" type="line"/>
    </contour>
  </outline>
</glyph>
<glyph name="period" format="1">
  <advance width="195"/>
  <unicode hex="002E"/>
  <outline>
    <contour>
      <point x="93" y="-10" type="curve"/>
      <point x="93" y="-10" type="line"/>
      <point x="123" y="11"/>
      <point x="150" y="38"/>
      <point x="175" y="64" type="curve"/>
      <point x="155" y="94"/>
      <point x="133" y="124"/>
      <point x="103" y="148" type="curve"/>
      <point x="77" y="132"/>
      <point x="43" y="104"/>
      <point x="20" y="76" type="curve"/>
      <point x="40" y="46"/>
      <point x="74" y="10"/>
    </contour>
  </outline>
</glyph>
<glyph name="colon" format="1">
  <advance width="203"/>
  <unicode hex="003A"/>
  <outline>
    <contour>
      <point x="101" y="213" type="curve"/>
      <point x="101" y="213" type="line"/>
      <point x="131" y="234"/>
      <point x="158" y="261"/>
      <point x="183" y="287" type="curve"/>
      <point x="163" y="317"/>
      <point x="141" y="347"/>
      <point x="111" y="371" type="curve"/>
      <point x="85" y="355"/>
      <point x="51" y="327"/>
      <point x="28" y="299" type="curve"/>
      <point x="48" y="269"/>
      <point x="82" y="233"/>
    </contour>
    <contour>
      <point x="101" y="-10" type="curve"/>
      <point x="101" y="-10" type="line"/>
      <point x="131" y="11"/>
      <point x="158" y="38"/>
      <point x="183" y="64" type="curve"/>
      <point x="163" y="94"/>
      <point x="141" y="124"/>
      <point x="111" y="148" type="curve"/>
      <point x="85" y="132"/>
      <point x="51" y="104"/>
      <point x="28" y="76" type="curve"/>
      <point x="48" y="46"/>
      <point x="82" y="10"/>
    </contour>
  </outline>
</glyph>
<glyph name="question" format="1">
  <advance width="418"/>
  <unicode hex="003F"/>
  <outline>
    <contour>
      <point x="96" y="217" type="curve"/>
      <point x="96" y="217" type="line"/>
      <point x="163" y="259" type="line"/>
      <point x="163" y="270" type="line"/>
      <point x="107" y="305"/>
      <point x="59" y="367"/>
      <point x="75" y="425" type="curve"/>
      <point x="163" y="442"/>
      <point x="248" y="434"/>
      <point x="317" y="425" type="curve"/>
      <point x="368" y="442"/>
      <point x="408" y="487"/>
      <point x="408" y="560" type="curve"/>
      <point x="408" y="639"/>
      <point x="370" y="670"/>
      <point x="286" y="702" type="curve"/>
      <point x="208" y="642" type="line"/>
      <point x="208" y="622" type="line"/>
      <point x="262" y="616"/>
      <point x="317" y="601"/>
      <point x="371" y="575" type="curve"/>
      <point x="380" y="534"/>
      <point x="345" y="494"/>
      <point x="269" y="494" type="curve"/>
      <point x="105" y="494" type="line"/>
      <point x="49" y="457"/>
      <point x="10" y="410"/>
      <point x="10" y="359" type="curve"/>
      <point x="10" y="315"/>
      <point x="33" y="260"/>
    </contour>
    <contour>
      <point x="112" y="-10" type="curve"/>
      <point x="112" y="-10" type="line"/>
      <point x="142" y="11"/>
      <point x="169" y="38"/>
      <point x="194" y="64" type="curve"/>
      <point x="174" y="94"/>
      <point x="152" y="124"/>
      <point x="122" y="148" type="curve"/>
      <point x="96" y="132"/>
      <point x="62" y="104"/>
      <point x="39" y="76" type="curve"/>
      <point x="59" y="46"/>
      <point x="93" y="10"/>
    </contour>
  </outline>
</glyph>
<glyph name="A" format="1">
  <advance width="677"/>
  <unicode hex="0041"/>
  <outline>
    <contour>
      <point x="6" y="25" type="curve"/>
      <point x="5" y="0" type="line"/>
      <point x="187" y="0" type="line"/>
      <point x="187" y="21" type="line"/>
      <point x="119" y="50"/>
      <point x="108" y="52"/>
      <point x="108" y="74" type="curve"/>
      <point x="108" y="93"/>
      <point x="140" y="177"/>
      <point x="185" y="284" type="curve"/>
      <point x="442" y="284" type="line"/>
      <point x="485" y="179"/>
      <point x="511" y="104"/>
      <point x="511" y="76" type="curve"/>
      <point x="511" y="48"/>
      <point x="491" y="39"/>
      <point x="431" y="25" type="curve"/>
      <point x="431" y="0" type="line"/>
      <point x="431" y="0"/>
      <point x="672" y="1"/>
      <point x="672" y="0" type="curve"/>
      <point x="672" y="25" type="line"/>
      <point x="638" y="60"/>
      <point x="398" y="629"/>
      <point x="382" y="700" type="curve"/>
      <point x="293" y="700" type="line"/>
      <point x="276" y="616"/>
      <point x="105" y="250"/>
    </contour>
    <contour>
      <point x="423" y="329" type="curve"/>
      <point x="205" y="329" type="line"/>
      <point x="239" y="408"/>
      <point x="278" y="496"/>
      <point x="314" y="577" type="curve"/>
      <point x="355" y="486"/>
      <point x="392" y="402"/>
    </contour>
    <contour>
      <point x="339" y="0" type="move" name="bottom"/>
    </contour>
    <contour>
      <point x="609" y="10" type="move" name="ogonek"/>
    </contour>
    <contour>
      <point x="339" y="700" type="move" name="top"/>
    </contour>
  </outline>
</glyph>
<glyph name="B" format="1">
  <advance width="655"/>
  <unicode hex="0042"/>
  <outline>
    <contour>
      <point x="45" y="-6" type="line"/>
      <point x="124" y="9"/>
      <point x="249" y="-6"/>
      <point x="342" y="-6" type="curve" smooth="yes"/>
      <point x="475" y="-6"/>
      <point x="630" y="19"/>
      <point x="630" y="171" type="curve" smooth="yes"/>
      <point x="630" y="286"/>
      <point x="540" y="347"/>
      <point x="433" y="377" type="curve"/>
      <point x="497" y="406"/>
      <point x="600" y="456"/>
      <point x="600" y="551" type="curve" smooth="yes"/>
      <point x="600" y="644"/>
      <point x="518" y="711"/>
      <point x="338" y="711" type="curve" smooth="yes"/>
      <point x="205" y="711"/>
      <point x="142" y="698"/>
      <point x="23" y="710" type="curve"/>
      <point x="20" y="685" type="line"/>
      <point x="87" y="656"/>
      <point x="113" y="665"/>
      <point x="116" y="584" type="curve" smooth="yes"/>
      <point x="119" y="490"/>
      <point x="116" y="196"/>
      <point x="116" y="105" type="curve" smooth="yes"/>
      <point x="116" y="62"/>
      <point x="105" y="37"/>
      <point x="44" y="19" type="curve"/>
    </contour>
    <contour>
      <point x="222" y="47" type="curve"/>
      <point x="222" y="338" type="line"/>
      <point x="424" y="361"/>
      <point x="528" y="305"/>
      <point x="528" y="188" type="curve" smooth="yes"/>
      <point x="528" y="46"/>
      <point x="416" y="8"/>
    </contour>
    <contour>
      <point x="302" y="381" type="curve" smooth="yes"/>
      <point x="222" y="385" type="line"/>
      <point x="222" y="661" type="line"/>
      <point x="253" y="669"/>
      <point x="286" y="674"/>
      <point x="316" y="674" type="curve" smooth="yes"/>
      <point x="420" y="674"/>
      <point x="490" y="631"/>
      <point x="490" y="530" type="curve" smooth="yes"/>
      <point x="490" y="447"/>
      <point x="431" y="375"/>
    </contour>
    <contour>
      <point x="323" y="0" type="move" name="bottom"/>
    </contour>
    <contour>
      <point x="323" y="700" type="move" name="top"/>
    </contour>
  </outline>
</glyph>
<glyph name="C" format="1">
  <advance width="726"/>
  <unicode hex="0043"/>
  <outline>
    <contour>
      <point x="415" y="-9" type="curve"/>
      <point x="415" y="-9" type="line"/>
      <point x="489" y="-9"/>
      <point x="574" y="3"/>
      <point x="659" y="7" type="curve"/>
      <point x="659" y="7"/>
      <point x="674" y="98"/>
      <point x="681" y="163" type="curve"/>
      <point x="652" y="164" type="line"/>
      <point x="608" y="61"/>
      <point x="517" y="29"/>
      <point x="403" y="29" type="curve"/>
      <point x="229" y="29"/>
      <point x="140" y="153"/>
      <point x="140" y="355" type="curve"/>
      <point x="140" y="529"/>
      <point x="242" y="668"/>
      <point x="418" y="668" type="curve"/>
      <point x="553" y="668"/>
      <point x="608" y="610"/>
      <point x="661" y="521" type="curve"/>
      <point x="691" y="521" type="line"/>
      <point x="687" y="689" type="line"/>
      <point x="606" y="691"/>
      <point x="508" y="708"/>
      <point x="427" y="708" type="curve"/>
      <point x="163" y="708"/>
      <point x="25" y="536"/>
      <point x="25" y="355" type="curve"/>
      <point x="25" y="92"/>
      <point x="205" y="-9"/>
    </contour>
    <contour>
      <point x="353" y="0" type="move" name="bottom"/>
    </contour>
    <contour>
      <point x="353" y="700" type="move" name="top"/>
    </contour>
  </outline>
</glyph>
<glyph name="D" format="1">
  <advance width="823"/>
  <unicode hex="0044"/>
  <outline>
    <contour>
      <point x="37" y="-6" type="line"/>
      <point x="37" y="-6"/>
      <point x="93" y="0"/>
      <point x="250" y="-5" type="curve" smooth="yes"/>
      <point x="581" y="-16"/>
      <point x="798" y="96"/>
      <point x="798" y="356" type="curve" smooth="yes"/>
      <point x="798" y="607"/>
      <point x="577" y="700"/>
      <point x="302" y="700" type="curve" smooth="yes"/>
      <point x="189" y="700"/>
      <point x="113" y="700"/>
      <point x="30" y="718" type="curve"/>
      <point x="20" y="689" type="line"/>
      <point x="93" y="668"/>
      <point x="123" y="646"/>
      <point x="126" y="593" type="curve" smooth="yes"/>
      <point x="135" y="440"/>
      <point x="129" y="223"/>
      <point x="124" y="35" type="curve"/>
      <point x="37" y="29" type="line"/>
    </contour>
    <contour>
      <point x="241" y="36" type="curve"/>
      <point x="235" y="199"/>
      <point x="231" y="439"/>
      <point x="245" y="651" type="curve"/>
      <point x="506" y="696"/>
      <point x="680" y="600"/>
      <point x="680" y="342" type="curve" smooth="yes"/>
      <point x="680" y="73"/>
      <point x="482" y="11"/>
    </contour>
    <contour>
      <point x="423" y="0" type="move" name="bottom"/>
    </contour>
    <contour>
      <point x="423" y="350" type="move" name="center"/>
    </contour>
    <contour>
      <point x="423" y="700" type="move" name="top"/>
    </contour>
  </outline>
</glyph>
<glyph name="E" format="1">
  <advance width="657"/>
  <unicode hex="0045"/>
  <outline>
    <contour>
      <point x="23" y="30" type="curve"/>
      <point x="23" y="0" type="line"/>
      <point x="642" y="0" type="line"/>
      <point x="642" y="144" type="line"/>
      <point x="618" y="144" type="line"/>
      <point x="614" y="80"/>
      <point x="566" y="45"/>
      <point x="459" y="45" type="curve"/>
      <point x="221" y="45" type="line"/>
      <point x="221" y="319" type="line"/>
      <point x="453" y="319" type="line" smooth="yes"/>
      <point x="517" y="319"/>
      <point x="556" y="313"/>
      <point x="570" y="236" type="curve"/>
      <point x="595" y="240" type="line"/>
      <point x="586" y="331"/>
      <point x="588" y="358"/>
      <point x="596" y="450" type="curve"/>
      <point x="571" y="453" type="line"/>
      <point x="560" y="379"/>
      <point x="524" y="364"/>
      <point x="449" y="364" type="curve"/>
      <point x="221" y="364" type="line"/>
      <point x="221" y="655" type="line"/>
      <point x="463" y="655" type="line" smooth="yes"/>
      <point x="554" y="655"/>
      <point x="578" y="630"/>
      <point x="588" y="570" type="curve"/>
      <point x="612" y="571" type="line"/>
      <point x="612" y="700" type="line"/>
      <point x="20" y="700" type="line"/>
      <point x="20" y="670" type="line"/>
      <point x="80" y="661"/>
      <point x="112" y="654"/>
      <point x="113" y="593" type="curve"/>
      <point x="117" y="121" type="line" smooth="yes"/>
      <point x="118" y="53"/>
      <point x="95" y="32"/>
    </contour>
    <contour>
      <point x="338" y="0" type="move" name="bottom"/>
    </contour>
    <contour>
      <point x="597" y="10" type="move" name="ogonek"/>
    </contour>
    <contour>
      <point x="338" y="700" type="move" name="top"/>
    </contour>
    <contour>
      <point x="33" y="700" type="move" name="topleft"/>
    </contour>
  </outline>
</glyph>
<glyph name="F" format="1">
  <advance width="619"/>
  <unicode hex="0046"/>
  <outline>
    <contour>
      <point x="33" y="30" type="curve"/>
      <point x="33" y="0" type="line"/>
      <point x="337" y="0" type="line"/>
      <point x="337" y="30" type="line"/>
      <point x="237" y="45"/>
      <point x="221" y="47"/>
      <point x="221" y="116" type="curve"/>
      <point x="221" y="312" type="line"/>
      <point x="454" y="312" type="line" smooth="yes"/>
      <point x="518" y="312"/>
      <point x="556" y="306"/>
      <point x="570" y="229" type="curve"/>
      <point x="595" y="233" type="line"/>
      <point x="586" y="324"/>
      <point x="588" y="351"/>
      <point x="596" y="443" type="curve"/>
      <point x="571" y="446" type="line"/>
      <point x="560" y="372"/>
      <point x="525" y="357"/>
      <point x="450" y="357" type="curve"/>
      <point x="221" y="357" type="line"/>
      <point x="221" y="662" type="line"/>
      <point x="460" y="662" type="line" smooth="yes"/>
      <point x="551" y="662"/>
      <point x="575" y="637"/>
      <point x="585" y="577" type="curve"/>
      <point x="609" y="578" type="line"/>
      <point x="609" y="700" type="line"/>
      <point x="20" y="700" type="line"/>
      <point x="20" y="670" type="line"/>
      <point x="80" y="661"/>
      <point x="112" y="654"/>
      <point x="113" y="593" type="curve"/>
      <point x="117" y="121" type="line" smooth="yes"/>
      <point x="118" y="53"/>
      <point x="95" y="32"/>
    </contour>
    <contour>
      <point x="322" y="0" type="move" name="bottom"/>
    </contour>
    <contour>
      <point x="322" y="700" type="move" name="top"/>
    </contour>
  </outline>
</glyph>
<glyph name="G" format="1">
  <advance width="710"/>
  <unicode hex="0047"/>
  <outline>
    <contour>
      <point x="377" y="-16" type="curve"/>
      <point x="377" y="-16" type="line"/>
      <point x="536" y="-13"/>
      <point x="680" y="114"/>
      <point x="680" y="290" type="curve"/>
      <point x="680" y="459"/>
      <point x="572" y="523"/>
      <point x="470" y="526" type="curve"/>
      <point x="379" y="489"/>
      <point x="237" y="423"/>
      <point x="137" y="388" type="curve"/>
      <point x="150" y="559"/>
      <point x="248" y="626"/>
      <point x="294" y="626" type="curve"/>
      <point x="353" y="626"/>
      <point x="491" y="619"/>
      <point x="543" y="599" type="curve"/>
      <point x="664" y="661" type="line"/>
      <point x="663" y="679" type="line"/>
      <point x="583" y="687"/>
      <point x="475" y="710"/>
      <point x="414" y="710" type="curve"/>
      <point x="266" y="710"/>
      <point x="25" y="558"/>
      <point x="25" y="316" type="curve"/>
      <point x="25" y="131"/>
      <point x="135" y="-20"/>
    </contour>
    <contour>
      <point x="412" y="50" type="curve"/>
      <point x="412" y="50" type="line"/>
      <point x="260" y="50"/>
      <point x="145" y="144"/>
      <point x="137" y="330" type="curve"/>
      <point x="194" y="369"/>
      <point x="307" y="418"/>
      <point x="408" y="421" type="curve"/>
      <point x="511" y="424"/>
      <point x="622" y="370"/>
      <point x="622" y="249" type="curve"/>
      <point x="622" y="137"/>
      <point x="530" y="50"/>
    </contour>
    <contour>
      <point x="382" y="0" type="move" name="bottom"/>
    </contour>
    <contour>
      <point x="382" y="700" type="move" name="top"/>
    </contour>
  </outline>
</glyph>
<glyph name="H" format="1">
  <advance width="870"/>
  <unicode hex="0048"/>
  <outline>
    <contour>
      <point x="42" y="30" type="curve"/>
      <point x="42" y="0" type="line"/>
      <point x="324" y="0" type="line"/>
      <point x="324" y="30" type="line"/>
      <point x="237" y="42"/>
      <point x="223" y="50"/>
      <point x="221" y="85" type="curve"/>
      <point x="219" y="130"/>
      <point x="217" y="229"/>
      <point x="216" y="330" type="curve"/>
      <point x="654" y="330" type="line"/>
      <point x="653" y="229"/>
      <point x="651" y="130"/>
      <point x="649" y="85" type="curve"/>
      <point x="647" y="50"/>
      <point x="628" y="42"/>
      <point x="546" y="30" type="curve"/>
      <point x="546" y="0" type="line"/>
      <point x="828" y="0" type="line"/>
      <point x="828" y="30" type="line"/>
      <point x="782" y="41"/>
      <point x="764" y="54"/>
      <point x="762" y="80" type="curve"/>
      <point x="754" y="182"/>
      <point x="760" y="523"/>
      <point x="766" y="631" type="curve"/>
      <point x="767" y="650"/>
      <point x="791" y="661"/>
      <point x="830" y="670" type="curve"/>
      <point x="830" y="700" type="line"/>
      <point x="548" y="700" type="line"/>
      <point x="548" y="670" type="line"/>
      <point x="636" y="655"/>
      <point x="649" y="644"/>
      <point x="651" y="613" type="curve"/>
      <point x="654" y="568"/>
      <point x="655" y="473"/>
      <point x="654" y="375" type="curve"/>
      <point x="216" y="375" type="line"/>
      <point x="215" y="473"/>
      <point x="216" y="568"/>
      <point x="219" y="613" type="curve"/>
      <point x="221" y="644"/>
      <point x="234" y="655"/>
      <point x="322" y="670" type="curve"/>
      <point x="322" y="700" type="line"/>
      <point x="40" y="700" type="line"/>
      <point x="40" y="670" type="line"/>
      <point x="79" y="661"/>
      <point x="103" y="650"/>
      <point x="104" y="631" type="curve"/>
      <point x="110" y="523"/>
      <point x="116" y="182"/>
      <point x="108" y="80" type="curve"/>
      <point x="106" y="54"/>
      <point x="88" y="41"/>
    </contour>
    <contour>
      <point x="435" y="0" type="move" name="bottom"/>
    </contour>
    <contour>
      <point x="435" y="350" type="move" name="center"/>
    </contour>
    <contour>
      <point x="435" y="700" type="move" name="top"/>
    </contour>
    <contour>
      <point x="20" y="700" type="move" name="topleft"/>
    </contour>
  </outline>
</glyph>
<glyph name="I" format="1">
  <advance width="351"/>
  <unicode hex="0049"/>
  <outline>
    <contour>
      <point x="34" y="0" type="line"/>
      <point x="309" y="0" type="line"/>
      <point x="309" y="30" type="line"/>
      <point x="263" y="41"/>
      <point x="245" y="54"/>
      <point x="243" y="80" type="curve" smooth="yes"/>
      <point x="235" y="182"/>
      <point x="241" y="523"/>
      <point x="247" y="631" type="curve" smooth="yes"/>
      <point x="248" y="650"/>
      <point x="272" y="661"/>
      <point x="311" y="670" type="curve"/>
      <point x="311" y="700" type="line"/>
      <point x="20" y="700" type="line"/>
      <point x="20" y="670" type="line"/>
      <point x="121" y="655"/>
      <point x="134" y="644"/>
      <point x="136" y="613" type="curve" smooth="yes"/>
      <point x="138" y="573"/>
      <point x="139" y="495"/>
      <point x="139" y="410" type="curve"/>
      <point x="126" y="356"/>
      <point x="105" y="337"/>
      <point x="50" y="321" type="curve"/>
      <point x="57" y="295" type="line"/>
      <point x="139" y="308" type="line"/>
      <point x="138" y="215"/>
      <point x="136" y="127"/>
      <point x="134" y="85" type="curve" smooth="yes"/>
      <point x="132" y="50"/>
      <point x="113" y="42"/>
      <point x="34" y="30" type="curve"/>
    </contour>
    <contour>
      <point x="179" y="0" type="move" name="bottom"/>
    </contour>
    <contour>
      <point x="305" y="10" type="move" name="ogonek"/>
    </contour>
    <contour>
      <point x="182" y="700" type="move" name="top"/>
    </contour>
    <contour>
      <point x="40" y="700" type="move" name="topleft"/>
    </contour>
  </outline>
</glyph>
<glyph name="J" format="1">
  <advance width="336"/>
  <unicode hex="004A"/>
  <outline>
    <contour>
      <point x="-46" y="-150" type="line"/>
      <point x="71" y="-150"/>
      <point x="231" y="-95"/>
      <point x="231" y="125" type="curve" smooth="yes"/>
      <point x="231" y="219"/>
      <point x="232" y="445"/>
      <point x="232" y="628" type="curve" smooth="yes"/>
      <point x="232" y="659"/>
      <point x="242" y="658"/>
      <point x="296" y="672" type="curve"/>
      <point x="296" y="703" type="line"/>
      <point x="237" y="700"/>
      <point x="72" y="700"/>
      <point x="12" y="703" type="curve"/>
      <point x="12" y="671" type="line"/>
      <point x="108" y="656"/>
      <point x="128" y="644"/>
      <point x="128" y="603" type="curve" smooth="yes"/>
      <point x="128" y="125" type="line" smooth="yes"/>
      <point x="128" y="-62"/>
      <point x="29" y="-118"/>
      <point x="-55" y="-118" type="curve"/>
    </contour>
  </outline>
</glyph>
<glyph name="K" format="1">
  <advance width="737"/>
  <unicode hex="004B"/>
  <outline>
    <contour>
      <point x="566" y="0" type="curve"/>
      <point x="566" y="0" type="line"/>
      <point x="737" y="0" type="line"/>
      <point x="737" y="30" type="line"/>
      <point x="691" y="34"/>
      <point x="672" y="55"/>
      <point x="653" y="85" type="curve"/>
      <point x="553" y="244"/>
      <point x="540" y="370"/>
      <point x="315" y="382" type="curve"/>
      <point x="414" y="442"/>
      <point x="494" y="504"/>
      <point x="553" y="585" type="curve"/>
      <point x="602" y="653"/>
      <point x="657" y="666"/>
      <point x="708" y="674" type="curve"/>
      <point x="708" y="700" type="line"/>
      <point x="484" y="699" type="line"/>
      <point x="430" y="506"/>
      <point x="319" y="412"/>
      <point x="194" y="349" type="curve"/>
      <point x="194" y="467"/>
      <point x="196" y="584"/>
      <point x="200" y="701" type="curve"/>
      <point x="47" y="701" type="line"/>
      <point x="47" y="678" type="line"/>
      <point x="89" y="667"/>
      <point x="88" y="628"/>
      <point x="91" y="607" type="curve"/>
      <point x="102" y="532"/>
      <point x="91" y="144"/>
      <point x="89" y="86" type="curve"/>
      <point x="88" y="58"/>
      <point x="78" y="38"/>
      <point x="40" y="28" type="curve"/>
      <point x="40" y="1" type="line"/>
      <point x="200" y="2" type="line"/>
      <point x="196" y="106"/>
      <point x="194" y="209"/>
      <point x="194" y="313" type="curve"/>
      <point x="380" y="343"/>
      <point x="480" y="206"/>
    </contour>
  </outline>
</glyph>
<glyph name="L" format="1">
  <advance width="663"/>
  <unicode hex="004C"/>
  <outline>
    <contour>
      <point x="40" y="25" type="curve"/>
      <point x="43" y="-2" type="line"/>
      <point x="243" y="7"/>
      <point x="444" y="4"/>
      <point x="644" y="-1" type="curve"/>
      <point x="637" y="93"/>
      <point x="648" y="162"/>
      <point x="653" y="237" type="curve"/>
      <point x="623" y="238" type="line"/>
      <point x="620" y="119"/>
      <point x="581" y="84"/>
      <point x="461" y="77" type="curve"/>
      <point x="224" y="63" type="line"/>
      <point x="213" y="135"/>
      <point x="220" y="538"/>
      <point x="224" y="613" type="curve"/>
      <point x="226" y="644"/>
      <point x="239" y="655"/>
      <point x="312" y="670" type="curve"/>
      <point x="312" y="700" type="line"/>
      <point x="41" y="700" type="line"/>
      <point x="41" y="670" type="line"/>
      <point x="80" y="661"/>
      <point x="104" y="650"/>
      <point x="105" y="631" type="curve"/>
      <point x="111" y="523"/>
      <point x="117" y="182"/>
      <point x="109" y="80" type="curve"/>
      <point x="107" y="54"/>
      <point x="96" y="46"/>
    </contour>
    <contour>
      <point x="227" y="52" type="curve"/>
      <point x="227" y="52" type="line"/>
      <point x="229" y="52" type="line"/>
      <point x="228" y="51"/>
      <point x="228" y="51"/>
    </contour>
    <contour>
      <point x="332" y="0" type="move" name="bottom"/>
    </contour>
    <contour>
      <point x="332" y="350" type="move" name="center"/>
    </contour>
    <contour>
      <point x="332" y="700" type="move" name="top"/>
    </contour>
    <contour>
      <point x="642" y="700" type="move" name="topright"/>
    </contour>
  </outline>
</glyph>
<glyph name="M" format="1">
  <advance width="1083"/>
  <unicode hex="004D"/>
  <outline>
    <contour>
      <point x="40" y="0" type="line"/>
      <point x="313" y="0" type="line"/>
      <point x="313" y="30" type="line"/>
      <point x="190" y="39"/>
      <point x="197" y="50"/>
      <point x="195" y="95" type="curve" smooth="yes"/>
      <point x="190" y="181"/>
      <point x="187" y="533"/>
      <point x="193" y="622" type="curve"/>
      <point x="279" y="498"/>
      <point x="477" y="178"/>
      <point x="513" y="39" type="curve"/>
      <point x="554" y="39" type="line"/>
      <point x="592" y="172"/>
      <point x="766" y="483"/>
      <point x="856" y="631" type="curve"/>
      <point x="862" y="532"/>
      <point x="859" y="181"/>
      <point x="854" y="85" type="curve" smooth="yes"/>
      <point x="852" y="50"/>
      <point x="833" y="42"/>
      <point x="736" y="30" type="curve"/>
      <point x="736" y="0" type="line"/>
      <point x="1043" y="0" type="line"/>
      <point x="1043" y="30" type="line"/>
      <point x="987" y="41"/>
      <point x="969" y="54"/>
      <point x="967" y="80" type="curve" smooth="yes"/>
      <point x="959" y="182"/>
      <point x="965" y="523"/>
      <point x="970" y="611" type="curve" smooth="yes"/>
      <point x="972" y="650"/>
      <point x="983" y="655"/>
      <point x="1035" y="670" type="curve"/>
      <point x="1035" y="700" type="line"/>
      <point x="1034" y="700" type="line"/>
      <point x="1034" y="701" type="line"/>
      <point x="659" y="701" type="line"/>
      <point x="659" y="671" type="line"/>
      <point x="785" y="650"/>
      <point x="794" y="627"/>
      <point x="774" y="589" type="curve" smooth="yes"/>
      <point x="572" y="209" type="line"/>
      <point x="341" y="602" type="line" smooth="yes"/>
      <point x="330" y="621"/>
      <point x="298" y="659"/>
      <point x="424" y="670" type="curve"/>
      <point x="424" y="700" type="line"/>
      <point x="47" y="701" type="line"/>
      <point x="47" y="671" type="line"/>
      <point x="84" y="663"/>
      <point x="130" y="660"/>
      <point x="132" y="631" type="curve" smooth="yes"/>
      <point x="139" y="523"/>
      <point x="145" y="182"/>
      <point x="137" y="90" type="curve" smooth="yes"/>
      <point x="134" y="54"/>
      <point x="123" y="45"/>
      <point x="40" y="30" type="curve"/>
    </contour>
    <contour>
      <point x="536" y="0" type="move" name="bottom"/>
    </contour>
    <contour>
      <point x="536" y="700" type="move" name="top"/>
    </contour>
  </outline>
</glyph>
<glyph name="N" format="1">
  <advance width="868"/>
  <unicode hex="004E"/>
  <outline>
    <contour>
      <point x="40" y="30" type="curve"/>
      <point x="40" y="0" type="line"/>
      <point x="292" y="0" type="line"/>
      <point x="292" y="30" type="line"/>
      <point x="169" y="39"/>
      <point x="176" y="50"/>
      <point x="174" y="95" type="curve"/>
      <point x="170" y="181"/>
      <point x="162" y="520"/>
      <point x="169" y="609" type="curve"/>
      <point x="250" y="550"/>
      <point x="505" y="119"/>
      <point x="595" y="0" type="curve"/>
      <point x="821" y="0" type="line"/>
      <point x="821" y="30" type="line"/>
      <point x="785" y="38"/>
      <point x="758" y="41"/>
      <point x="755" y="80" type="curve"/>
      <point x="747" y="178"/>
      <point x="743" y="519"/>
      <point x="751" y="611" type="curve"/>
      <point x="754" y="647"/>
      <point x="765" y="659"/>
      <point x="828" y="674" type="curve"/>
      <point x="828" y="700" type="line"/>
      <point x="575" y="700" type="line"/>
      <point x="575" y="670" type="line"/>
      <point x="698" y="661"/>
      <point x="690" y="650"/>
      <point x="693" y="605" type="curve"/>
      <point x="699" y="519"/>
      <point x="701" y="169"/>
      <point x="695" y="80" type="curve"/>
      <point x="620" y="120"/>
      <point x="301" y="653"/>
      <point x="258" y="700" type="curve"/>
      <point x="47" y="701" type="line"/>
      <point x="47" y="671" type="line"/>
      <point x="72" y="666"/>
      <point x="110" y="660"/>
      <point x="112" y="631" type="curve"/>
      <point x="119" y="523"/>
      <point x="125" y="182"/>
      <point x="117" y="90" type="curve"/>
      <point x="114" y="54"/>
      <point x="103" y="45"/>
    </contour>
    <contour>
      <point x="409" y="0" type="move" name="bottom"/>
    </contour>
    <contour>
      <point x="409" y="700" type="move" name="top"/>
    </contour>
  </outline>
</glyph>
<glyph name="O" format="1">
  <advance width="797"/>
  <unicode hex="004F"/>
  <outline>
    <contour>
      <point x="400" y="-12" type="curve"/>
      <point x="400" y="-12" type="line"/>
      <point x="597" y="-12"/>
      <point x="772" y="165"/>
      <point x="772" y="361" type="curve"/>
      <point x="772" y="576"/>
      <point x="603" y="711"/>
      <point x="400" y="711" type="curve"/>
      <point x="192" y="711"/>
      <point x="25" y="534"/>
      <point x="25" y="341" type="curve"/>
      <point x="25" y="125"/>
      <point x="192" y="-12"/>
    </contour>
    <contour>
      <point x="422" y="34" type="curve"/>
      <point x="422" y="34" type="line"/>
      <point x="268" y="34"/>
      <point x="142" y="170"/>
      <point x="142" y="361" type="curve"/>
      <point x="142" y="526"/>
      <point x="229" y="668"/>
      <point x="378" y="668" type="curve"/>
      <point x="532" y="668"/>
      <point x="658" y="522"/>
      <point x="658" y="331" type="curve"/>
      <point x="658" y="166"/>
      <point x="570" y="34"/>
    </contour>
    <contour>
      <point x="430" y="0" type="move" name="bottom"/>
    </contour>
    <contour>
      <point x="430" y="350" type="move" name="center"/>
    </contour>
    <contour>
      <point x="754" y="10" type="move" name="ogonek"/>
    </contour>
    <contour>
      <point x="430" y="700" type="move" name="top"/>
    </contour>
    <contour>
      <point x="44" y="700" type="move" name="topleft"/>
    </contour>
    <contour>
      <point x="816" y="700" type="move" name="topright"/>
    </contour>
  </outline>
</glyph>
<glyph name="P" format="1">
  <advance width="661"/>
  <unicode hex="0050"/>
  <outline>
    <contour>
      <point x="68" y="25" type="curve"/>
      <point x="68" y="-5" type="line"/>
      <point x="153" y="0"/>
      <point x="229" y="0"/>
      <point x="358" y="-5" type="curve"/>
      <point x="357" y="25" type="line"/>
      <point x="259" y="38"/>
      <point x="234" y="34"/>
      <point x="234" y="65" type="curve"/>
      <point x="234" y="128"/>
      <point x="233" y="196"/>
      <point x="231" y="268" type="curve"/>
      <point x="448" y="269"/>
      <point x="651" y="304"/>
      <point x="651" y="510" type="curve"/>
      <point x="651" y="689"/>
      <point x="464" y="702"/>
      <point x="396" y="702" type="curve"/>
      <point x="328" y="702"/>
      <point x="256" y="700"/>
      <point x="199" y="700" type="curve"/>
      <point x="127" y="700"/>
      <point x="78" y="702"/>
      <point x="31" y="708" type="curve"/>
      <point x="25" y="679" type="line"/>
      <point x="98" y="658"/>
      <point x="124" y="636"/>
      <point x="127" y="583" type="curve"/>
      <point x="136" y="430"/>
      <point x="131" y="223"/>
      <point x="126" y="66" type="curve"/>
      <point x="125" y="35"/>
      <point x="113" y="33"/>
    </contour>
    <contour>
      <point x="231" y="309" type="curve"/>
      <point x="231" y="309" type="line"/>
      <point x="230" y="414"/>
      <point x="230" y="527"/>
      <point x="238" y="648" type="curve"/>
      <point x="286" y="659"/>
      <point x="307" y="664"/>
      <point x="354" y="664" type="curve"/>
      <point x="412" y="664"/>
      <point x="546" y="660"/>
      <point x="546" y="492" type="curve"/>
      <point x="546" y="351"/>
      <point x="407" y="311"/>
    </contour>
    <contour>
      <point x="365" y="0" type="move" name="bottom"/>
    </contour>
    <contour>
      <point x="365" y="700" type="move" name="top"/>
    </contour>
  </outline>
</glyph>
<glyph name="Q" format="1">
  <advance width="770"/>
  <unicode hex="0051"/>
  <outline>
    <contour>
      <point x="841" y="-172" type="line"/>
      <point x="853" y="-142"/>
      <point x="895" y="-107"/>
      <point x="895" y="-77" type="curve" smooth="yes"/>
      <point x="895" y="-33"/>
      <point x="814" y="-2"/>
      <point x="699" y="-2" type="curve" smooth="yes"/>
      <point x="623" y="-2"/>
      <point x="561" y="-15"/>
      <point x="502" y="-15" type="curve" smooth="yes"/>
      <point x="482" y="-15"/>
      <point x="463" y="-14"/>
      <point x="445" y="-9" type="curve"/>
      <point x="623" y="16"/>
      <point x="772" y="180"/>
      <point x="772" y="361" type="curve" smooth="yes"/>
      <point x="772" y="576"/>
      <point x="603" y="711"/>
      <point x="400" y="711" type="curve" smooth="yes"/>
      <point x="192" y="711"/>
      <point x="25" y="534"/>
      <point x="25" y="341" type="curve" smooth="yes"/>
      <point x="25" y="196"/>
      <point x="108" y="99"/>
      <point x="214" y="30" type="curve" smooth="yes"/>
      <point x="271" y="-7"/>
      <point x="417" y="-76"/>
      <point x="446" y="-87" type="curve"/>
      <point x="548" y="-80"/>
      <point x="628" y="-68"/>
      <point x="694" y="-67" type="curve" smooth="yes"/>
      <point x="818" y="-66"/>
      <point x="853" y="-107"/>
      <point x="815" y="-164" type="curve"/>
    </contour>
    <contour>
      <point x="422" y="34" type="curve" smooth="yes"/>
      <point x="268" y="34"/>
      <point x="142" y="170"/>
      <point x="142" y="361" type="curve" smooth="yes"/>
      <point x="142" y="526"/>
      <point x="229" y="668"/>
      <point x="378" y="668" type="curve" smooth="yes"/>
      <point x="532" y="668"/>
      <point x="658" y="522"/>
      <point x="658" y="331" type="curve" smooth="yes"/>
      <point x="658" y="166"/>
      <point x="570" y="34"/>
    </contour>
    <contour>
      <point x="301" y="0" type="move" name="bottom"/>
    </contour>
    <contour>
      <point x="430" y="350" type="move" name="center"/>
    </contour>
    <contour>
      <point x="754" y="10" type="move" name="ogonek"/>
    </contour>
    <contour>
      <point x="301" y="700" type="move" name="top"/>
    </contour>
    <contour>
      <point x="44" y="700" type="move" name="topleft"/>
    </contour>
    <contour>
      <point x="816" y="700" type="move" name="topright"/>
    </contour>
  </outline>
</glyph>
<glyph name="R" format="1">
  <advance width="744"/>
  <unicode hex="0052"/>
  <outline>
    <contour>
      <point x="551" y="0" type="curve"/>
      <point x="551" y="0" type="line"/>
      <point x="729" y="0" type="line"/>
      <point x="729" y="30" type="line"/>
      <point x="683" y="34"/>
      <point x="664" y="55"/>
      <point x="645" y="85" type="curve"/>
      <point x="552" y="233"/>
      <point x="520" y="372"/>
      <point x="346" y="398" type="curve"/>
      <point x="451" y="449"/>
      <point x="534" y="481"/>
      <point x="534" y="571" type="curve"/>
      <point x="534" y="644"/>
      <point x="471" y="701"/>
      <point x="312" y="701" type="curve"/>
      <point x="216" y="701"/>
      <point x="150" y="700"/>
      <point x="63" y="700" type="curve"/>
      <point x="60" y="675" type="line"/>
      <point x="95" y="663"/>
      <point x="95" y="663"/>
      <point x="95" y="610" type="curve"/>
      <point x="95" y="474"/>
      <point x="91" y="134"/>
      <point x="89" y="86" type="curve"/>
      <point x="88" y="58"/>
      <point x="78" y="38"/>
      <point x="40" y="28" type="curve"/>
      <point x="40" y="1" type="line"/>
      <point x="202" y="2" type="line"/>
      <point x="198" y="133"/>
      <point x="196" y="246"/>
      <point x="196" y="352" type="curve"/>
      <point x="199" y="352" type="line" smooth="yes"/>
      <point x="422" y="383"/>
      <point x="470" y="160"/>
    </contour>
    <contour>
      <point x="196" y="401" type="curve"/>
      <point x="196" y="401" type="line"/>
      <point x="197" y="475"/>
      <point x="199" y="543"/>
      <point x="202" y="647" type="curve"/>
      <point x="289" y="680"/>
      <point x="434" y="665"/>
      <point x="434" y="560" type="curve"/>
      <point x="434" y="479"/>
      <point x="363" y="420"/>
    </contour>
    <contour>
      <point x="377" y="0" type="move" name="bottom"/>
    </contour>
    <contour>
      <point x="377" y="700" type="move" name="top"/>
    </contour>
  </outline>
</glyph>
<glyph name="S" format="1">
  <advance width="592"/>
  <unicode hex="0053"/>
  <outline>
    <contour>
      <point x="256" y="-9" type="curve"/>
      <point x="256" y="-9" type="line"/>
      <point x="441" y="-9"/>
      <point x="562" y="49"/>
      <point x="562" y="185" type="curve"/>
      <point x="562" y="330"/>
      <point x="462" y="364"/>
      <point x="325" y="414" type="curve"/>
      <point x="211" y="456"/>
      <point x="161" y="482"/>
      <point x="161" y="558" type="curve"/>
      <point x="161" y="629"/>
      <point x="227" y="677"/>
      <point x="320" y="677" type="curve"/>
      <point x="416" y="677"/>
      <point x="512" y="634"/>
      <point x="535" y="512" type="curve"/>
      <point x="562" y="512" type="line"/>
      <point x="561" y="689" type="line"/>
      <point x="562" y="689"/>
      <point x="461" y="713"/>
      <point x="360" y="713" type="curve"/>
      <point x="147" y="713"/>
      <point x="49" y="653"/>
      <point x="49" y="527" type="curve"/>
      <point x="49" y="427"/>
      <point x="111" y="368"/>
      <point x="250" y="322" type="curve"/>
      <point x="353" y="288"/>
      <point x="465" y="257"/>
      <point x="465" y="160" type="curve"/>
      <point x="465" y="70"/>
      <point x="391" y="28"/>
      <point x="257" y="28" type="curve"/>
      <point x="127" y="28"/>
      <point x="73" y="89"/>
      <point x="58" y="176" type="curve"/>
      <point x="30" y="177" type="line"/>
      <point x="30" y="0" type="line"/>
      <point x="30" y="0"/>
      <point x="134" y="-9"/>
    </contour>
    <contour>
      <point x="290" y="0" type="move" name="bottom"/>
    </contour>
    <contour>
      <point x="290" y="700" type="move" name="top"/>
    </contour>
  </outline>
</glyph>
<glyph name="T" format="1">
  <advance width="781"/>
  <unicode hex="0054"/>
  <outline>
    <contour>
      <point x="250" y="18" type="curve"/>
      <point x="250" y="-4" type="line"/>
      <point x="338" y="1"/>
      <point x="420" y="1"/>
      <point x="514" y="-4" type="curve"/>
      <point x="514" y="18" type="line"/>
      <point x="450" y="48"/>
      <point x="440" y="47"/>
      <point x="439" y="149" type="curve"/>
      <point x="433" y="635" type="line"/>
      <point x="653" y="636"/>
      <point x="706" y="638"/>
      <point x="731" y="558" type="curve"/>
      <point x="761" y="558" type="line"/>
      <point x="771" y="702" type="line"/>
      <point x="26" y="701" type="line"/>
      <point x="10" y="551" type="line"/>
      <point x="40" y="551" type="line"/>
      <point x="67" y="637"/>
      <point x="118" y="636"/>
      <point x="334" y="635" type="curve"/>
      <point x="321" y="149" type="line" smooth="yes"/>
      <point x="318" y="48"/>
      <point x="318" y="48"/>
    </contour>
    <contour>
      <point x="389" y="0" type="move" name="bottom"/>
    </contour>
    <contour>
      <point x="389" y="350" type="move" name="center"/>
    </contour>
    <contour>
      <point x="389" y="700" type="move" name="top"/>
    </contour>
  </outline>
</glyph>
<glyph name="U" format="1">
  <advance width="814"/>
  <unicode hex="0055"/>
  <outline>
    <contour>
      <point x="429" y="-10" type="curve" smooth="yes"/>
      <point x="610" y="-10"/>
      <point x="725" y="112"/>
      <point x="725" y="263" type="curve" smooth="yes"/>
      <point x="725" y="630" type="line" smooth="yes"/>
      <point x="725" y="670"/>
      <point x="726" y="669"/>
      <point x="799" y="674" type="curve"/>
      <point x="799" y="700" type="line"/>
      <point x="561" y="700" type="line"/>
      <point x="561" y="673" type="line"/>
      <point x="667" y="666"/>
      <point x="667" y="666"/>
      <point x="667" y="625" type="curve" smooth="yes"/>
      <point x="667" y="269" type="line" smooth="yes"/>
      <point x="667" y="108"/>
      <point x="554" y="36"/>
      <point x="434" y="36" type="curve" smooth="yes"/>
      <point x="255" y="36"/>
      <point x="200" y="128"/>
      <point x="200" y="276" type="curve" smooth="yes"/>
      <point x="200" y="628" type="line" smooth="yes"/>
      <point x="200" y="659"/>
      <point x="241" y="659"/>
      <point x="322" y="670" type="curve"/>
      <point x="322" y="700" type="line"/>
      <point x="20" y="701" type="line"/>
      <point x="20" y="671" type="line"/>
      <point x="97" y="659"/>
      <point x="97" y="662"/>
      <point x="97" y="628" type="curve" smooth="yes"/>
      <point x="97" y="254" type="line" smooth="yes"/>
      <point x="97" y="101"/>
      <point x="179" y="-10"/>
    </contour>
  </outline>
</glyph>
<glyph name="V" format="1">
  <advance width="819"/>
  <unicode hex="0056"/>
  <outline>
    <contour>
      <point x="407" y="0" type="line"/>
      <point x="442" y="0" type="line"/>
      <point x="543" y="180"/>
      <point x="636" y="374"/>
      <point x="748" y="618" type="curve" smooth="yes"/>
      <point x="767" y="659"/>
      <point x="764" y="657"/>
      <point x="814" y="667" type="curve"/>
      <point x="814" y="697" type="line"/>
      <point x="717" y="697" type="line"/>
      <point x="649" y="506"/>
      <point x="577" y="340"/>
      <point x="462" y="147" type="curve"/>
      <point x="358" y="327"/>
      <point x="219" y="569"/>
      <point x="183" y="697" type="curve"/>
      <point x="5" y="669" type="line"/>
      <point x="8" y="639" type="line"/>
      <point x="51" y="623"/>
      <point x="75" y="619"/>
      <point x="130" y="517" type="curve" smooth="yes"/>
    </contour>
    <contour>
      <point x="426" y="0" type="move" name="bottom"/>
    </contour>
    <contour>
      <point x="426" y="700" type="move" name="top"/>
    </contour>
  </outline>
</glyph>
<glyph name="W" format="1">
  <advance width="1174"/>
  <unicode hex="0057"/>
  <outline>
    <contour>
      <point x="412" y="0" type="line"/>
      <point x="447" y="0" type="line"/>
      <point x="598" y="287" type="line"/>
      <point x="752" y="0" type="line"/>
      <point x="787" y="0" type="line"/>
      <point x="1071" y="539" type="line" smooth="yes"/>
      <point x="1125" y="641"/>
      <point x="1147" y="666"/>
      <point x="1169" y="667" type="curve"/>
      <point x="1169" y="697" type="line"/>
      <point x="1062" y="697" type="line"/>
      <point x="986" y="510"/>
      <point x="900" y="342"/>
      <point x="801" y="158" type="curve"/>
      <point x="757" y="235"/>
      <point x="707" y="322"/>
      <point x="661" y="406" type="curve"/>
      <point x="731" y="539" type="line" smooth="yes"/>
      <point x="785" y="641"/>
      <point x="807" y="666"/>
      <point x="829" y="667" type="curve"/>
      <point x="829" y="697" type="line"/>
      <point x="722" y="697" type="line"/>
      <point x="691" y="621"/>
      <point x="659" y="548"/>
      <point x="624" y="476" type="curve"/>
      <point x="580" y="562"/>
      <point x="544" y="641"/>
      <point x="528" y="697" type="curve"/>
      <point x="345" y="697" type="line"/>
      <point x="345" y="667" type="line"/>
      <point x="388" y="651"/>
      <point x="409" y="639"/>
      <point x="475" y="517" type="curve" smooth="yes"/>
      <point x="563" y="352" type="line"/>
      <point x="531" y="289"/>
      <point x="497" y="224"/>
      <point x="461" y="158" type="curve"/>
      <point x="358" y="337"/>
      <point x="223" y="572"/>
      <point x="188" y="697" type="curve"/>
      <point x="5" y="697" type="line"/>
      <point x="5" y="667" type="line"/>
      <point x="48" y="651"/>
      <point x="69" y="639"/>
      <point x="135" y="517" type="curve" smooth="yes"/>
    </contour>
  </outline>
</glyph>
<glyph name="X" format="1">
  <advance width="706"/>
  <unicode hex="0058"/>
  <outline>
    <contour>
      <point x="14" y="30" type="line"/>
      <point x="14" y="0" type="line"/>
      <point x="235" y="0" type="line"/>
      <point x="235" y="30" type="line"/>
      <point x="150" y="41"/>
      <point x="118" y="44"/>
      <point x="150" y="80" type="curve"/>
      <point x="333" y="283" type="line"/>
      <point x="390" y="211"/>
      <point x="446" y="142"/>
      <point x="496" y="86" type="curve"/>
      <point x="531" y="47"/>
      <point x="519" y="36"/>
      <point x="414" y="30" type="curve"/>
      <point x="414" y="0" type="line"/>
      <point x="415" y="1"/>
      <point x="695" y="0"/>
      <point x="696" y="0" type="curve"/>
      <point x="696" y="30" type="line"/>
      <point x="662" y="41"/>
      <point x="533" y="202"/>
      <point x="404" y="368" type="curve"/>
      <point x="692" y="670" type="line"/>
      <point x="692" y="700" type="line"/>
      <point x="483" y="700" type="line"/>
      <point x="483" y="670" type="line"/>
      <point x="557" y="668"/>
      <point x="597" y="658"/>
      <point x="561" y="618" type="curve"/>
      <point x="372" y="409" type="line"/>
      <point x="222" y="601" type="line" smooth="yes"/>
      <point x="170" y="666"/>
      <point x="201" y="659"/>
      <point x="298" y="670" type="curve"/>
      <point x="298" y="700" type="line"/>
      <point x="10" y="700" type="line"/>
      <point x="10" y="670" type="line"/>
      <point x="49" y="652"/>
      <point x="172" y="490"/>
      <point x="300" y="325" type="curve"/>
    </contour>
    <contour>
      <point x="353" y="0" type="move" name="bottom"/>
    </contour>
    <contour>
      <point x="353" y="700" type="move" name="top"/>
    </contour>
  </outline>
</glyph>
<glyph name="b" format="1">
  <advance width="496"/>
  <unicode hex="0062"/>
  <outline>
    <contour>
      <point x="276" y="-10" type="curve"/>
      <point x="276" y="-10" type="line"/>
      <point x="382" y="84"/>
      <point x="471" y="138"/>
      <point x="471" y="264" type="curve"/>
      <point x="471" y="388"/>
      <point x="381" y="450"/>
      <point x="292" y="450" type="curve"/>
      <point x="159" y="355" type="line"/>
      <point x="162" y="530"/>
      <point x="166" y="630"/>
      <point x="184" y="681" type="curve"/>
      <point x="177" y="702" type="line"/>
      <point x="45" y="678" type="line"/>
      <point x="52" y="582"/>
      <point x="66" y="265"/>
      <point x="56" y="45" type="curve"/>
      <point x="108" y="28"/>
      <point x="222" y="10"/>
    </contour>
    <contour>
      <point x="304" y="86" type="curve"/>
      <point x="304" y="86" type="line"/>
      <point x="260" y="86"/>
      <point x="180" y="109"/>
      <point x="155" y="122" type="curve"/>
      <point x="159" y="318" type="line"/>
      <point x="182" y="334"/>
      <point x="216" y="350"/>
      <point x="259" y="350" type="curve"/>
      <point x="338" y="350"/>
      <point x="391" y="287"/>
      <point x="391" y="215" type="curve"/>
      <point x="391" y="143"/>
      <point x="359" y="110"/>
    </contour>
    <contour>
      <point x="246" y="1" type="move" name="bottom"/>
    </contour>
    <contour>
      <point x="246" y="445" type="move" name="top"/>
    </contour>
  </outline>
</glyph>
<glyph name="c" format="1">
  <advance width="370"/>
  <unicode hex="0063"/>
  <outline>
    <contour>
      <point x="195" y="-8" type="curve"/>
      <point x="195" y="-8" type="line"/>
      <point x="242" y="-2"/>
      <point x="333" y="48"/>
      <point x="352" y="63" type="curve"/>
      <point x="342" y="87" type="line"/>
      <point x="226" y="59"/>
      <point x="124" y="102"/>
      <point x="124" y="233" type="curve"/>
      <point x="124" y="313"/>
      <point x="167" y="359"/>
      <point x="198" y="382" type="curve"/>
      <point x="236" y="376"/>
      <point x="269" y="351"/>
      <point x="285" y="331" type="curve"/>
      <point x="359" y="397" type="line"/>
      <point x="360" y="404" type="line"/>
      <point x="342" y="430"/>
      <point x="300" y="450"/>
      <point x="255" y="450" type="curve"/>
      <point x="188" y="450"/>
      <point x="63" y="356"/>
      <point x="43" y="306" type="curve"/>
      <point x="-4" y="167"/>
      <point x="38" y="-1"/>
    </contour>
    <contour>
      <point x="177" y="1" type="move" name="bottom"/>
    </contour>
    <contour>
      <point x="187" y="445" type="move" name="top"/>
    </contour>
  </outline>
</glyph>
<glyph name="d" format="1">
  <advance width="557"/>
  <unicode hex="0064"/>
  <outline>
    <contour>
      <point x="278" y="-10" type="curve" smooth="yes"/>
      <point x="345" y="-10"/>
      <point x="433" y="46"/>
      <point x="495" y="111" type="curve"/>
      <point x="518" y="154"/>
      <point x="532" y="197"/>
      <point x="532" y="253" type="curve" smooth="yes"/>
      <point x="532" y="337"/>
      <point x="485" y="427"/>
      <point x="345" y="445" type="curve" smooth="yes"/>
      <point x="253" y="457"/>
      <point x="146" y="469"/>
      <point x="127" y="494" type="curve"/>
      <point x="103" y="496" type="line"/>
      <point x="25" y="414" type="line"/>
      <point x="31" y="394" type="line"/>
      <point x="107" y="386"/>
      <point x="163" y="378"/>
      <point x="208" y="371" type="curve"/>
      <point x="147" y="328"/>
      <point x="85" y="285"/>
      <point x="58" y="257" type="curve"/>
      <point x="27" y="128"/>
      <point x="134" y="-10"/>
    </contour>
    <contour>
      <point x="308" y="42" type="curve" smooth="yes"/>
      <point x="243" y="42"/>
      <point x="166" y="85"/>
      <point x="166" y="206" type="curve" smooth="yes"/>
      <point x="166" y="280"/>
      <point x="213" y="336"/>
      <point x="262" y="362" type="curve"/>
      <point x="277" y="359"/>
      <point x="292" y="357"/>
      <point x="306" y="354" type="curve" smooth="yes"/>
      <point x="389" y="339"/>
      <point x="435" y="295"/>
      <point x="435" y="206" type="curve" smooth="yes"/>
      <point x="435" y="111"/>
      <point x="373" y="42"/>
    </contour>
    <contour>
      <point x="281" y="1" type="move" name="bottom"/>
    </contour>
    <contour>
      <point x="281" y="223" type="move" name="center"/>
    </contour>
    <contour>
      <point x="281" y="445" type="move" name="top"/>
    </contour>
    <contour>
      <point x="518" y="445" type="move" name="topright"/>
    </contour>
  </outline>
</glyph>
<glyph name="e" format="1">
  <advance width="399"/>
  <unicode hex="0065"/>
  <outline>
    <contour>
      <point x="198" y="-9" type="curve"/>
      <point x="198" y="-9" type="line"/>
      <point x="249" y="-9"/>
      <point x="320" y="32"/>
      <point x="365" y="61" type="curve"/>
      <point x="357" y="83" type="line"/>
      <point x="243" y="43"/>
      <point x="157" y="96"/>
      <point x="134" y="193" type="curve"/>
      <point x="376" y="300" type="line"/>
      <point x="384" y="319" type="line"/>
      <point x="371" y="417"/>
      <point x="294" y="437"/>
      <point x="223" y="450" type="curve"/>
      <point x="195" y="440"/>
      <point x="94" y="388"/>
      <point x="53" y="338" type="curve"/>
      <point x="38" y="306"/>
      <point x="25" y="266"/>
      <point x="25" y="199" type="curve"/>
      <point x="25" y="64"/>
      <point x="123" y="-9"/>
    </contour>
    <contour>
      <point x="129" y="227" type="line"/>
      <point x="129" y="226" type="line"/>
      <point x="128" y="233"/>
      <point x="128" y="240"/>
      <point x="128" y="247" type="curve"/>
      <point x="128" y="295"/>
      <point x="136" y="334"/>
      <point x="167" y="375" type="curve"/>
      <point x="221" y="375"/>
      <point x="279" y="337"/>
      <point x="279" y="296" type="curve"/>
    </contour>
    <contour>
      <point x="199" y="1" type="move" name="bottom"/>
    </contour>
    <contour>
      <point x="342" y="12" type="move" name="ogonek"/>
    </contour>
    <contour>
      <point x="199" y="445" type="move" name="top"/>
    </contour>
  </outline>
</glyph>
<glyph name="f" format="1">
  <advance width="259"/>
  <unicode hex="0066"/>
  <outline>
    <contour>
      <point x="68" y="-10" type="line"/>
      <point x="181" y="1" type="line"/>
      <point x="174" y="140"/>
      <point x="173" y="253"/>
      <point x="173" y="360" type="curve"/>
      <point x="271" y="360" type="line"/>
      <point x="310" y="401" type="line"/>
      <point x="310" y="414" type="line"/>
      <point x="173" y="414" type="line"/>
      <point x="173" y="507" type="line" smooth="yes"/>
      <point x="173" y="589"/>
      <point x="189" y="628"/>
      <point x="204" y="647" type="curve"/>
      <point x="238" y="647"/>
      <point x="284" y="619"/>
      <point x="319" y="594" type="curve"/>
      <point x="389" y="647" type="line"/>
      <point x="387" y="664" type="line"/>
      <point x="354" y="680"/>
      <point x="307" y="709"/>
      <point x="266" y="709" type="curve" smooth="yes"/>
      <point x="203" y="709"/>
      <point x="121" y="627"/>
      <point x="75" y="581" type="curve"/>
      <point x="75" y="523"/>
      <point x="75" y="465"/>
      <point x="74" y="406" type="curve"/>
      <point x="30" y="374" type="line"/>
      <point x="30" y="360" type="line"/>
      <point x="74" y="360" type="line"/>
    </contour>
    <contour>
      <point x="148" y="1" type="move" name="bottom"/>
    </contour>
    <contour>
      <point x="148" y="445" type="move" name="top"/>
    </contour>
  </outline>
</glyph>
<glyph name="i" format="1">
  <advance width="244"/>
  <unicode hex="0069"/>
  <outline>
    <contour>
      <point x="116" y="-10" type="curve"/>
      <point x="116" y="-10" type="line"/>
      <point x="140" y="2"/>
      <point x="185" y="23"/>
      <point x="216" y="35" type="curve"/>
      <point x="214" y="60" type="line"/>
      <point x="179" y="58"/>
      <point x="169" y="75"/>
      <point x="167" y="109" type="curve"/>
      <point x="161" y="212"/>
      <point x="164" y="343"/>
      <point x="169" y="398" type="curve"/>
      <point x="171" y="422"/>
      <point x="124" y="450"/>
      <point x="116" y="450" type="curve"/>
      <point x="90" y="439"/>
      <point x="61" y="430"/>
      <point x="25" y="412" type="curve"/>
      <point x="26" y="393" type="line"/>
      <point x="55" y="384"/>
      <point x="66" y="378"/>
      <point x="66" y="354" type="curve"/>
      <point x="67" y="65" type="line" smooth="yes"/>
      <point x="67" y="26"/>
      <point x="98" y="-10"/>
    </contour>
    <contour>
      <point x="106" y="564" type="line"/>
      <point x="136" y="550" type="line"/>
      <point x="219" y="705" type="line"/>
      <point x="170" y="710" type="line"/>
    </contour>
    <contour>
      <point x="125" y="1" type="move" name="bottom"/>
    </contour>
  </outline>
</glyph>
<glyph name="k" format="1">
  <advance width="416"/>
  <unicode hex="006B"/>
  <outline>
    <contour>
      <point x="55" y="1" type="curve"/>
      <point x="158" y="1" type="line"/>
      <point x="156" y="83"/>
      <point x="155" y="150"/>
      <point x="154" y="212" type="curve"/>
      <point x="274" y="178"/>
      <point x="279" y="89"/>
      <point x="279" y="1" type="curve"/>
      <point x="385" y="1" type="line"/>
      <point x="385" y="83"/>
      <point x="362" y="195"/>
      <point x="268" y="249" type="curve"/>
      <point x="307" y="280"/>
      <point x="386" y="334"/>
      <point x="386" y="351" type="curve" smooth="yes"/>
      <point x="386" y="375"/>
      <point x="335" y="456"/>
      <point x="290" y="456" type="curve" smooth="yes"/>
      <point x="273" y="456"/>
      <point x="208" y="409"/>
      <point x="153" y="380" type="curve"/>
      <point x="153" y="455"/>
      <point x="154" y="534"/>
      <point x="155" y="635" type="curve"/>
      <point x="152" y="640" type="line"/>
      <point x="15" y="623" type="line"/>
      <point x="15" y="599" type="line"/>
      <point x="36" y="583"/>
      <point x="51" y="596"/>
      <point x="56" y="501" type="curve" smooth="yes"/>
      <point x="64" y="355"/>
      <point x="58" y="179"/>
    </contour>
    <contour>
      <point x="154" y="241" type="curve"/>
      <point x="154" y="276"/>
      <point x="153" y="310"/>
      <point x="153" y="344" type="curve"/>
      <point x="173" y="357"/>
      <point x="207" y="376"/>
      <point x="229" y="376" type="curve" smooth="yes"/>
      <point x="268" y="376"/>
      <point x="281" y="353"/>
      <point x="281" y="324" type="curve" smooth="yes"/>
      <point x="281" y="295"/>
      <point x="243" y="238"/>
    </contour>
    <contour>
      <point x="206" y="1" type="move" name="bottom"/>
    </contour>
    <contour>
      <point x="206" y="445" type="move" name="top"/>
    </contour>
  </outline>
</glyph>
<glyph name="l" format="1">
  <advance width="227"/>
  <unicode hex="006C"/>
  <outline>
    <contour>
      <point x="116" y="-10" type="curve"/>
      <point x="116" y="-10" type="line"/>
      <point x="140" y="5"/>
      <point x="170" y="27"/>
      <point x="202" y="40" type="curve"/>
      <point x="200" y="66" type="line"/>
      <point x="156" y="66"/>
      <point x="151" y="75"/>
      <point x="151" y="109" type="curve"/>
      <point x="151" y="262"/>
      <point x="155" y="489"/>
      <point x="169" y="698" type="curve"/>
      <point x="156" y="704" type="line"/>
      <point x="45" y="685" type="line"/>
      <point x="66" y="454"/>
      <point x="52" y="297"/>
      <point x="55" y="65" type="curve"/>
      <point x="55" y="36"/>
      <point x="91" y="4"/>
    </contour>
    <contour>
      <point x="117" y="1" type="move" name="bottom"/>
    </contour>
    <contour>
      <point x="117" y="223" type="move" name="center"/>
    </contour>
    <contour>
      <point x="117" y="445" type="move" name="top"/>
    </contour>
    <contour>
      <point x="191" y="445" type="move" name="topright"/>
    </contour>
  </outline>
</glyph>
<glyph name="m" format="1">
  <advance width="702"/>
  <unicode hex="006D"/>
  <outline>
    <contour>
      <point x="66" y="354" type="curve"/>
      <point x="64" y="1" type="line"/>
      <point x="177" y="1" type="line"/>
      <point x="177" y="336" type="line"/>
      <point x="192" y="365"/>
      <point x="222" y="379"/>
      <point x="241" y="379" type="curve"/>
      <point x="270" y="379"/>
      <point x="304" y="359"/>
      <point x="304" y="318" type="curve"/>
      <point x="304" y="250"/>
      <point x="302" y="76"/>
      <point x="297" y="1" type="curve"/>
      <point x="411" y="1" type="line"/>
      <point x="411" y="337" type="line"/>
      <point x="424" y="362"/>
      <point x="452" y="379"/>
      <point x="474" y="379" type="curve"/>
      <point x="513" y="379"/>
      <point x="531" y="354"/>
      <point x="532" y="323" type="curve"/>
      <point x="535" y="240"/>
      <point x="533" y="105"/>
      <point x="529" y="1" type="curve"/>
      <point x="647" y="1" type="line"/>
      <point x="643" y="116"/>
      <point x="643" y="233"/>
      <point x="643" y="338" type="curve"/>
      <point x="643" y="421"/>
      <point x="611" y="451"/>
      <point x="530" y="451" type="curve"/>
      <point x="505" y="451"/>
      <point x="458" y="421"/>
      <point x="408" y="384" type="curve"/>
      <point x="399" y="425"/>
      <point x="367" y="450"/>
      <point x="301" y="450" type="curve"/>
      <point x="265" y="450"/>
      <point x="212" y="409"/>
      <point x="175" y="385" type="curve"/>
      <point x="169" y="426"/>
      <point x="143" y="440"/>
      <point x="126" y="450" type="curve"/>
      <point x="92" y="439"/>
      <point x="54" y="425"/>
      <point x="35" y="412" type="curve"/>
      <point x="36" y="393" type="line"/>
      <point x="55" y="385"/>
      <point x="66" y="368"/>
    </contour>
    <contour>
      <point x="345" y="1" type="move" name="bottom"/>
    </contour>
    <contour>
      <point x="345" y="445" type="move" name="top"/>
    </contour>
  </outline>
</glyph>
<glyph name="n" format="1">
  <advance width="486"/>
  <unicode hex="006E"/>
  <outline>
    <contour>
      <point x="67" y="1" type="curve"/>
      <point x="185" y="1" type="line"/>
      <point x="185" y="337" type="line"/>
      <point x="198" y="362"/>
      <point x="226" y="379"/>
      <point x="258" y="379" type="curve" smooth="yes"/>
      <point x="297" y="379"/>
      <point x="315" y="354"/>
      <point x="316" y="323" type="curve" smooth="yes"/>
      <point x="318" y="240"/>
      <point x="317" y="105"/>
      <point x="313" y="1" type="curve"/>
      <point x="431" y="1" type="line"/>
      <point x="427" y="116"/>
      <point x="427" y="233"/>
      <point x="427" y="348" type="curve" smooth="yes"/>
      <point x="427" y="421"/>
      <point x="394" y="450"/>
      <point x="313" y="450" type="curve" smooth="yes"/>
      <point x="288" y="450"/>
      <point x="232" y="413"/>
      <point x="182" y="382" type="curve"/>
      <point x="171" y="415"/>
      <point x="139" y="441"/>
      <point x="92" y="452" type="curve"/>
      <point x="35" y="390" type="line"/>
      <point x="37" y="370" type="line"/>
      <point x="60" y="367"/>
      <point x="75" y="368"/>
      <point x="75" y="332" type="curve" smooth="yes"/>
      <point x="75" y="244"/>
      <point x="73" y="76"/>
    </contour>
    <contour>
      <point x="239" y="1" type="move" name="bottom"/>
    </contour>
    <contour>
      <point x="239" y="445" type="move" name="top"/>
    </contour>
  </outline>
</glyph>
<glyph name="o" format="1">
  <advance width="491"/>
  <unicode hex="006F"/>
  <outline>
    <contour>
      <point x="258" y="-10" type="curve"/>
      <point x="347" y="29"/>
      <point x="466" y="127"/>
      <point x="466" y="232" type="curve" smooth="yes"/>
      <point x="466" y="370"/>
      <point x="359" y="440"/>
      <point x="231" y="450" type="curve"/>
      <point x="120" y="423"/>
      <point x="25" y="311"/>
      <point x="25" y="211" type="curve" smooth="yes"/>
      <point x="25" y="92"/>
      <point x="123" y="10"/>
    </contour>
    <contour>
      <point x="311" y="67" type="curve"/>
      <point x="143" y="79"/>
      <point x="59" y="254"/>
      <point x="155" y="361" type="curve"/>
      <point x="348" y="395"/>
      <point x="431" y="190"/>
    </contour>
    <contour>
      <point x="235" y="1" type="move" name="bottom"/>
    </contour>
    <contour>
      <point x="235" y="223" type="move" name="center"/>
    </contour>
    <contour>
      <point x="406" y="12" type="move" name="ogonek"/>
    </contour>
    <contour>
      <point x="235" y="445" type="move" name="top"/>
    </contour>
    <contour>
      <point x="427" y="445" type="move" name="topright"/>
    </contour>
  </outline>
</glyph>
<glyph name="q" format="1">
  <advance width="502"/>
  <unicode hex="0071"/>
  <outline>
    <contour>
      <point x="340" y="-287" type="curve"/>
      <point x="340" y="-287" type="line"/>
      <point x="457" y="-282" type="line"/>
      <point x="452" y="-101"/>
      <point x="451" y="257"/>
      <point x="451" y="438" type="curve"/>
      <point x="410" y="442"/>
      <point x="321" y="450"/>
      <point x="270" y="450" type="curve"/>
      <point x="205" y="450"/>
      <point x="25" y="296"/>
      <point x="25" y="209" type="curve"/>
      <point x="25" y="80"/>
      <point x="77" y="-10"/>
      <point x="213" y="-10" type="curve"/>
      <point x="240" y="8"/>
      <point x="287" y="52"/>
      <point x="350" y="80" type="curve"/>
      <point x="349" y="-52"/>
      <point x="347" y="-173"/>
    </contour>
    <contour>
      <point x="251" y="89" type="curve"/>
      <point x="251" y="89" type="line"/>
      <point x="168" y="89"/>
      <point x="110" y="125"/>
      <point x="111" y="220" type="curve"/>
      <point x="112" y="303"/>
      <point x="176" y="370"/>
      <point x="248" y="370" type="curve"/>
      <point x="291" y="370"/>
      <point x="329" y="356"/>
      <point x="351" y="333" type="curve"/>
      <point x="351" y="133" type="line"/>
      <point x="321" y="106"/>
      <point x="291" y="89"/>
    </contour>
    <contour>
      <point x="236" y="1" type="move" name="bottom"/>
    </contour>
    <contour>
      <point x="236" y="445" type="move" name="top"/>
    </contour>
  </outline>
</glyph>
<glyph name="r" format="1">
  <advance width="330"/>
  <unicode hex="0072"/>
  <outline>
    <contour>
      <point x="67" y="-3" type="curve"/>
      <point x="187" y="1" type="line"/>
      <point x="180" y="120"/>
      <point x="180" y="236"/>
      <point x="178" y="355" type="curve"/>
      <point x="187" y="364"/>
      <point x="200" y="372"/>
      <point x="218" y="372" type="curve" smooth="yes"/>
      <point x="234" y="372"/>
      <point x="255" y="361"/>
      <point x="254" y="345" type="curve"/>
      <point x="267" y="339" type="line"/>
      <point x="323" y="373" type="line"/>
      <point x="333" y="435"/>
      <point x="304" y="449"/>
      <point x="272" y="449" type="curve" smooth="yes"/>
      <point x="240" y="449"/>
      <point x="209" y="408"/>
      <point x="175" y="384" type="curve"/>
      <point x="153" y="449" type="line"/>
      <point x="139" y="453" type="line"/>
      <point x="35" y="416" type="line"/>
      <point x="37" y="396" type="line"/>
      <point x="73" y="385"/>
      <point x="76" y="368"/>
      <point x="74" y="308" type="curve" smooth="yes"/>
      <point x="72" y="250"/>
      <point x="73" y="72"/>
    </contour>
    <contour>
      <point x="179" y="1" type="move" name="bottom"/>
    </contour>
    <contour>
      <point x="179" y="445" type="move" name="top"/>
    </contour>
  </outline>
</glyph>
<glyph name="s" format="1">
  <advance width="455"/>
  <unicode hex="0073"/>
  <outline>
    <contour>
      <point x="210" y="-10" type="curve" smooth="yes"/>
      <point x="314" y="-10"/>
      <point x="420" y="40"/>
      <point x="420" y="152" type="curve" smooth="yes"/>
      <point x="420" y="223"/>
      <point x="373" y="258"/>
      <point x="321" y="269" type="curve"/>
      <point x="300" y="260"/>
      <point x="256" y="240"/>
      <point x="214" y="240" type="curve" smooth="yes"/>
      <point x="162" y="240"/>
      <point x="130" y="285"/>
      <point x="130" y="327" type="curve" smooth="yes"/>
      <point x="130" y="363"/>
      <point x="140" y="381"/>
      <point x="155" y="391" type="curve"/>
      <point x="212" y="417"/>
      <point x="289" y="389"/>
      <point x="300" y="317" type="curve"/>
      <point x="411" y="329" type="line"/>
      <point x="399" y="411"/>
      <point x="312" y="450"/>
      <point x="246" y="450" type="curve" smooth="yes"/>
      <point x="138" y="450"/>
      <point x="35" y="373"/>
      <point x="35" y="293" type="curve" smooth="yes"/>
      <point x="35" y="246"/>
      <point x="53" y="200"/>
      <point x="115" y="172" type="curve"/>
      <point x="155" y="186"/>
      <point x="185" y="199"/>
      <point x="225" y="199" type="curve" smooth="yes"/>
      <point x="268" y="199"/>
      <point x="318" y="164"/>
      <point x="318" y="117" type="curve" smooth="yes"/>
      <point x="318" y="68"/>
      <point x="285" y="33"/>
      <point x="239" y="33" type="curve" smooth="yes"/>
      <point x="186" y="33"/>
      <point x="154" y="68"/>
      <point x="143" y="137" type="curve"/>
      <point x="37" y="107" type="line"/>
      <point x="48" y="47"/>
      <point x="115" y="-10"/>
    </contour>
    <contour>
      <point x="222" y="1" type="move" name="bottom"/>
    </contour>
    <contour>
      <point x="222" y="445" type="move" name="top"/>
    </contour>
  </outline>
</glyph>
<glyph name="t" format="1">
  <advance width="332"/>
  <unicode hex="0074"/>
  <outline>
    <contour>
      <point x="160" y="-10" type="curve" smooth="yes"/>
      <point x="183" y="-10"/>
      <point x="314" y="50"/>
      <point x="314" y="50" type="curve"/>
      <point x="309" y="75" type="line"/>
      <point x="209" y="61"/>
      <point x="159" y="60"/>
      <point x="159" y="137" type="curve" smooth="yes"/>
      <point x="159" y="200"/>
      <point x="160" y="299"/>
      <point x="161" y="362" type="curve"/>
      <point x="288" y="362" type="line"/>
      <point x="332" y="429" type="line"/>
      <point x="328" y="440" type="line"/>
      <point x="159" y="440" type="line"/>
      <point x="159" y="497" type="line"/>
      <point x="135" y="497" type="line"/>
      <point x="115" y="467"/>
      <point x="70" y="424"/>
      <point x="35" y="394" type="curve"/>
      <point x="35" y="384" type="line"/>
      <point x="60" y="353" type="line"/>
      <point x="60" y="83" type="line" smooth="yes"/>
      <point x="60" y="26"/>
      <point x="121" y="-9"/>
    </contour>
    <contour>
      <point x="173" y="1" type="move" name="bottom"/>
    </contour>
    <contour>
      <point x="173" y="223" type="move" name="center"/>
    </contour>
    <contour>
      <point x="173" y="445" type="move" name="top"/>
    </contour>
    <contour>
      <point x="305" y="445" type="move" name="topright"/>
    </contour>
  </outline>
</glyph>
<glyph name="u" format="1">
  <advance width="504"/>
  <unicode hex="0075"/>
  <outline>
    <contour>
      <point x="390" y="-10" type="curve"/>
      <point x="402" y="-13" type="line"/>
      <point x="469" y="34" type="line"/>
      <point x="467" y="54" type="line"/>
      <point x="445" y="57"/>
      <point x="430" y="65"/>
      <point x="430" y="101" type="curve"/>
      <point x="430" y="188"/>
      <point x="432" y="364"/>
      <point x="437" y="440" type="curve"/>
      <point x="291" y="440" type="line"/>
      <point x="291" y="408" type="line"/>
      <point x="321" y="404"/>
      <point x="326" y="394"/>
      <point x="326" y="360" type="curve"/>
      <point x="326" y="109" type="line"/>
      <point x="311" y="83"/>
      <point x="265" y="66"/>
      <point x="232" y="66" type="curve"/>
      <point x="194" y="66"/>
      <point x="177" y="92"/>
      <point x="175" y="123" type="curve"/>
      <point x="172" y="171"/>
      <point x="173" y="274"/>
      <point x="174" y="341" type="curve"/>
      <point x="175" y="390"/>
      <point x="178" y="422"/>
      <point x="134" y="450" type="curve"/>
      <point x="35" y="410" type="line"/>
      <point x="38" y="390" type="line"/>
      <point x="62" y="389"/>
      <point x="70" y="359"/>
      <point x="70" y="315" type="curve"/>
      <point x="70" y="97" type="line" smooth="yes"/>
      <point x="70" y="24"/>
      <point x="113" y="-10"/>
      <point x="178" y="-10" type="curve"/>
      <point x="203" y="-10"/>
      <point x="275" y="26"/>
      <point x="329" y="57" type="curve"/>
      <point x="338" y="21"/>
      <point x="362" y="-3"/>
    </contour>
    <contour>
      <point x="262" y="1" type="move" name="bottom"/>
    </contour>
    <contour>
      <point x="426" y="12" type="move" name="ogonek"/>
    </contour>
    <contour>
      <point x="262" y="445" type="move" name="top"/>
    </contour>
    <contour>
      <point x="444" y="445" type="move" name="topright"/>
    </contour>
  </outline>
</glyph>
<glyph name="w" format="1">
  <advance width="748"/>
  <unicode hex="0077"/>
  <outline>
    <contour>
      <point x="270" y="-10" type="curve" smooth="yes"/>
      <point x="279" y="-10"/>
      <point x="346" y="62"/>
      <point x="398" y="149" type="curve"/>
      <point x="400" y="134"/>
      <point x="402" y="120"/>
      <point x="405" y="105" type="curve" smooth="yes"/>
      <point x="416" y="48"/>
      <point x="525" y="-10"/>
      <point x="551" y="-10" type="curve" smooth="yes"/>
      <point x="566" y="-10"/>
      <point x="743" y="191"/>
      <point x="743" y="322" type="curve" smooth="yes"/>
      <point x="743" y="408"/>
      <point x="615" y="450"/>
      <point x="596" y="450" type="curve" smooth="yes"/>
      <point x="588" y="450"/>
      <point x="516" y="379"/>
      <point x="475" y="346" type="curve"/>
      <point x="439" y="386"/>
      <point x="407" y="429"/>
      <point x="337" y="450" type="curve"/>
      <point x="336" y="445"/>
      <point x="244" y="387"/>
      <point x="194" y="346" type="curve"/>
      <point x="158" y="386"/>
      <point x="145" y="429"/>
      <point x="74" y="450" type="curve"/>
      <point x="5" y="368" type="line"/>
      <point x="6" y="348" type="line"/>
      <point x="58" y="340"/>
      <point x="102" y="307"/>
      <point x="107" y="264" type="curve" smooth="yes"/>
      <point x="111" y="231"/>
      <point x="112" y="168"/>
      <point x="124" y="105" type="curve" smooth="yes"/>
      <point x="135" y="48"/>
      <point x="244" y="-10"/>
    </contour>
    <contour>
      <point x="288" y="85" type="curve"/>
      <point x="207" y="109"/>
      <point x="212" y="180"/>
      <point x="201" y="305" type="curve"/>
      <point x="225" y="330"/>
      <point x="261" y="349"/>
      <point x="287" y="348" type="curve" smooth="yes"/>
      <point x="334" y="346"/>
      <point x="371" y="302"/>
      <point x="371" y="242" type="curve" smooth="yes"/>
      <point x="371" y="164"/>
      <point x="326" y="88"/>
    </contour>
    <contour>
      <point x="569" y="85" type="curve"/>
      <point x="488" y="109"/>
      <point x="493" y="180"/>
      <point x="482" y="305" type="curve"/>
      <point x="507" y="331"/>
      <point x="545" y="348"/>
      <point x="571" y="348" type="curve" smooth="yes"/>
      <point x="612" y="348"/>
      <point x="652" y="297"/>
      <point x="652" y="242" type="curve" smooth="yes"/>
      <point x="652" y="164"/>
      <point x="607" y="88"/>
    </contour>
  </outline>
</glyph>
<glyph name="x" format="1">
  <advance width="422"/>
  <unicode hex="0078"/>
  <outline>
    <contour>
      <point x="5" y="-48" type="curve"/>
      <point x="55" y="-135" type="line"/>
      <point x="82" y="-131" type="line"/>
      <point x="81" y="-65"/>
      <point x="143" y="30"/>
      <point x="181" y="126" type="curve"/>
      <point x="198" y="63"/>
      <point x="243" y="15"/>
      <point x="265" y="-10" type="curve"/>
      <point x="288" y="1"/>
      <point x="364" y="34"/>
      <point x="385" y="46" type="curve"/>
      <point x="385" y="65" type="line"/>
      <point x="298" y="109"/>
      <point x="243" y="202"/>
      <point x="243" y="278" type="curve"/>
      <point x="243" y="305"/>
      <point x="251" y="329"/>
      <point x="265" y="347" type="curve"/>
      <point x="272" y="347"/>
      <point x="320" y="333"/>
      <point x="338" y="325" type="curve"/>
      <point x="397" y="408" type="line"/>
      <point x="397" y="413" type="line"/>
      <point x="384" y="424"/>
      <point x="345" y="447"/>
      <point x="335" y="450" type="curve"/>
      <point x="293" y="445"/>
      <point x="236" y="385"/>
      <point x="203" y="307" type="curve"/>
      <point x="190" y="367"/>
      <point x="157" y="429"/>
      <point x="103" y="451" type="curve"/>
      <point x="7" y="401" type="line"/>
      <point x="9" y="383" type="line"/>
      <point x="94" y="343"/>
      <point x="140" y="260"/>
      <point x="140" y="191" type="curve"/>
      <point x="140" y="93"/>
      <point x="60" y="10"/>
    </contour>
    <contour>
      <point x="201" y="1" type="move" name="bottom"/>
    </contour>
    <contour>
      <point x="201" y="445" type="move" name="top"/>
    </contour>
  </outline>
</glyph>
<glyph name="y" format="1">
  <advance width="443"/>
  <unicode hex="0079"/>
  <outline>
    <contour>
      <point x="44" y="-187" type="curve"/>
      <point x="60" y="-288" type="line"/>
      <point x="72" y="-288" type="line"/>
      <point x="355" y="109" type="line" smooth="yes"/>
      <point x="390" y="157"/>
      <point x="444" y="237"/>
      <point x="444" y="276" type="curve"/>
      <point x="444" y="358"/>
      <point x="395" y="439"/>
      <point x="292" y="450" type="curve"/>
      <point x="268" y="430"/>
      <point x="217" y="376"/>
      <point x="187" y="344" type="curve"/>
      <point x="154" y="450" type="line"/>
      <point x="142" y="445"/>
      <point x="21" y="371"/>
      <point x="23" y="368" type="curve"/>
      <point x="41" y="338" type="line"/>
      <point x="65" y="353"/>
      <point x="81" y="354"/>
      <point x="98" y="297" type="curve"/>
      <point x="200" y="-36" type="line"/>
      <point x="155" y="-93"/>
      <point x="95" y="-160"/>
    </contour>
    <contour>
      <point x="274" y="65" type="curve"/>
      <point x="274" y="65" type="line"/>
      <point x="199" y="306" type="line"/>
      <point x="227" y="336"/>
      <point x="252" y="353"/>
      <point x="275" y="353" type="curve"/>
      <point x="322" y="353"/>
      <point x="362" y="307"/>
      <point x="362" y="256" type="curve"/>
      <point x="362" y="181"/>
      <point x="307" y="111"/>
    </contour>
    <contour>
      <point x="222" y="1" type="move" name="bottom"/>
    </contour>
    <contour>
      <point x="222" y="445" type="move" name="top"/>
    </contour>
  </outline>
</glyph>
<glyph name="z" format="1">
  <advance width="355"/>
  <unicode hex="007A"/>
  <outline>
    <contour>
      <point x="120" y="-287" type="curve"/>
      <point x="120" y="-287" type="line"/>
      <point x="161" y="-287"/>
      <point x="345" y="-85"/>
      <point x="345" y="22" type="curve"/>
      <point x="345" y="123"/>
      <point x="250" y="190"/>
      <point x="150" y="180" type="curve"/>
      <point x="195" y="230"/>
      <point x="310" y="373"/>
      <point x="340" y="403" type="curve"/>
      <point x="322" y="427" type="line"/>
      <point x="262" y="426"/>
      <point x="171" y="431"/>
      <point x="88" y="450" type="curve"/>
      <point x="5" y="337" type="line"/>
      <point x="40" y="325" type="line"/>
      <point x="92" y="359"/>
      <point x="166" y="351"/>
      <point x="227" y="334" type="curve"/>
      <point x="182" y="271"/>
      <point x="88" y="150"/>
      <point x="41" y="103" type="curve"/>
      <point x="59" y="80" type="line"/>
      <point x="149" y="133"/>
      <point x="254" y="66"/>
      <point x="254" y="-37" type="curve"/>
      <point x="254" y="-98"/>
      <point x="222" y="-161"/>
      <point x="186" y="-192" type="curve"/>
      <point x="157" y="-201"/>
      <point x="98" y="-189"/>
      <point x="59" y="-182" type="curve"/>
      <point x="34" y="-257" type="line"/>
      <point x="58" y="-279"/>
      <point x="85" y="-287"/>
    </contour>
    <contour>
      <point x="190" y="1" type="move" name="bottom"/>
    </contour>
    <contour>
      <point x="190" y="445" type="move" name="top"/>
    </contour>
  </outline>
</glyph>
<glyph name="section" format="1">
  <advance width="454"/>
  <unicode hex="00A7"/>
  <outline>
    <contour>
      <point x="128" y="-209" type="curve"/>
      <point x="168" y="-244" type="line"/>
      <point x="262" y="-177"/>
      <point x="373" y="-72"/>
      <point x="373" y="13" type="curve"/>
      <point x="373" y="75"/>
      <point x="328" y="122"/>
      <point x="275" y="163" type="curve"/>
      <point x="317" y="204"/>
      <point x="343" y="246"/>
      <point x="343" y="296" type="curve"/>
      <point x="343" y="387"/>
      <point x="190" y="428"/>
      <point x="190" y="504" type="curve"/>
      <point x="190" y="535"/>
      <point x="219" y="568"/>
      <point x="258" y="568" type="curve"/>
      <point x="309" y="568"/>
      <point x="337" y="519"/>
      <point x="370" y="451" type="curve"/>
      <point x="444" y="507" type="line"/>
      <point x="404" y="572"/>
      <point x="350" y="605"/>
      <point x="264" y="605" type="curve"/>
      <point x="181" y="605"/>
      <point x="100" y="558"/>
      <point x="100" y="484" type="curve"/>
      <point x="100" y="460"/>
      <point x="110" y="441"/>
      <point x="124" y="423" type="curve"/>
      <point x="70" y="393"/>
      <point x="30" y="350"/>
      <point x="30" y="287" type="curve"/>
      <point x="30" y="144"/>
      <point x="294" y="88"/>
      <point x="294" y="-23" type="curve"/>
      <point x="294" y="-108"/>
      <point x="191" y="-164"/>
    </contour>
    <contour>
      <point x="243" y="186" type="curve"/>
      <point x="243" y="186" type="line"/>
      <point x="176" y="234"/>
      <point x="108" y="275"/>
      <point x="108" y="327" type="curve"/>
      <point x="108" y="351"/>
      <point x="119" y="376"/>
      <point x="146" y="400" type="curve"/>
      <point x="191" y="359"/>
      <point x="252" y="325"/>
      <point x="252" y="262" type="curve"/>
      <point x="252" y="230"/>
      <point x="250" y="207"/>
    </contour>
  </outline>
</glyph>
<glyph name="a_macr" format="1">
  <advance width="409"/>
  <unicode hex="0101"/>
  <outline>
    <contour>
      <point x="92" y="-10" type="curve"/>
      <point x="92" y="-10" type="line"/>
      <point x="135" y="12"/>
      <point x="194" y="53"/>
      <point x="239" y="74" type="curve"/>
      <point x="271" y="-10" type="line"/>
      <point x="374" y="29" type="line"/>
      <point x="374" y="52" type="line"/>
      <point x="349" y="79"/>
      <point x="330" y="91"/>
      <point x="329" y="167" type="curve"/>
      <point x="328" y="212"/>
      <point x="332" y="283"/>
      <point x="337" y="367" type="curve"/>
      <point x="339" y="401"/>
      <point x="275" y="450"/>
      <point x="241" y="450" type="curve"/>
      <point x="204" y="450"/>
      <point x="127" y="405"/>
      <point x="66" y="366" type="curve"/>
      <point x="74" y="340" type="line"/>
      <point x="105" y="356"/>
      <point x="125" y="366"/>
      <point x="161" y="366" type="curve"/>
      <point x="196" y="366"/>
      <point x="234" y="342"/>
      <point x="234" y="308" type="curve"/>
      <point x="234" y="295" type="line"/>
      <point x="90" y="203"/>
      <point x="27" y="152"/>
      <point x="0" y="117" type="curve"/>
      <point x="20" y="70"/>
      <point x="41" y="34"/>
    </contour>
    <contour>
      <point x="160" y="82" type="curve"/>
      <point x="160" y="82" type="line"/>
      <point x="132" y="82"/>
      <point x="95" y="120"/>
      <point x="99" y="147" type="curve"/>
      <point x="104" y="182"/>
      <point x="180" y="223"/>
      <point x="234" y="246" type="curve"/>
      <point x="234" y="115" type="line"/>
      <point x="209" y="94"/>
      <point x="180" y="82"/>
    </contour>
    <contour>
      <point x="131" y="530" type="line"/>
      <point x="158" y="513" type="line"/>
      <point x="207" y="539"/>
      <point x="246" y="526"/>
      <point x="315" y="514" type="curve"/>
      <point x="389" y="611" type="line"/>
      <point x="358" y="628" type="line"/>
      <point x="322" y="603"/>
      <point x="294" y="615"/>
      <point x="205" y="621" type="curve"/>
    </contour>
    <contour>
      <point x="272" y="342" type="move" name="_top"/>
    </contour>
    <contour>
      <point x="197" y="1" type="move" name="bottom"/>
    </contour>
    <contour>
      <point x="354" y="12" type="move" name="ogonek"/>
    </contour>
    <contour>
      <point x="272" y="645" type="move" name="top"/>
    </contour>
  </outline>
</glyph>
<glyph name="i_macr" format="1">
  <advance width="246"/>
  <unicode hex="012B"/>
  <outline>
    <contour>
      <point x="115" y="-10" type="curve"/>
      <point x="115" y="-10" type="line"/>
      <point x="139" y="-3"/>
      <point x="189" y="13"/>
      <point x="215" y="25" type="curve"/>
      <point x="213" y="47" type="line"/>
      <point x="178" y="45"/>
      <point x="166" y="62"/>
      <point x="166" y="96" type="curve"/>
      <point x="166" y="407" type="line"/>
      <point x="154" y="431"/>
      <point x="123" y="450"/>
      <point x="115" y="450" type="curve"/>
      <point x="89" y="439"/>
      <point x="55" y="425"/>
      <point x="37" y="412" type="curve"/>
      <point x="38" y="393" type="line"/>
      <point x="57" y="385"/>
      <point x="68" y="375"/>
      <point x="68" y="346" type="curve"/>
      <point x="69" y="29" type="line"/>
      <point x="85" y="9"/>
      <point x="102" y="-2"/>
    </contour>
    <contour>
      <point x="0" y="534" type="line"/>
      <point x="23" y="521" type="line"/>
      <point x="54" y="559"/>
      <point x="79" y="555"/>
      <point x="197" y="547" type="curve"/>
      <point x="220" y="584"/>
      <point x="233" y="616"/>
      <point x="246" y="653" type="curve"/>
      <point x="227" y="664" type="line"/>
      <point x="188" y="608"/>
      <point x="172" y="631"/>
      <point x="54" y="637" type="curve"/>
    </contour>
    <contour>
      <point x="200" y="445" type="move" name="_top"/>
    </contour>
    <contour>
      <point x="116" y="1" type="move" name="bottom"/>
    </contour>
    <contour>
      <point x="200" y="748" type="move" name="top"/>
    </contour>
  </outline>
</glyph>
<glyph name="idotless" format="1">
  <advance width="228"/>
  <unicode hex="0131"/>
  <outline>
    <contour>
      <point x="103" y="-10" type="curve"/>
      <point x="103" y="-10" type="line"/>
      <point x="127" y="-3"/>
      <point x="177" y="13"/>
      <point x="203" y="25" type="curve"/>
      <point x="201" y="47" type="line"/>
      <point x="166" y="45"/>
      <point x="154" y="62"/>
      <point x="154" y="96" type="curve"/>
      <point x="154" y="407" type="line"/>
      <point x="142" y="431"/>
      <point x="111" y="450"/>
      <point x="103" y="450" type="curve"/>
      <point x="77" y="439"/>
      <point x="43" y="425"/>
      <point x="25" y="412" type="curve"/>
      <point x="26" y="393" type="line"/>
      <point x="45" y="385"/>
      <point x="56" y="375"/>
      <point x="56" y="346" type="curve"/>
      <point x="57" y="29" type="line"/>
      <point x="73" y="9"/>
      <point x="90" y="-2"/>
    </contour>
  </outline>
</glyph>
<glyph name="o_macr" format="1">
  <advance width="491"/>
  <unicode hex="014D"/>
  <outline>
    <contour>
      <point x="258" y="-10" type="curve"/>
      <point x="258" y="-10" type="line"/>
      <point x="347" y="29"/>
      <point x="466" y="127"/>
      <point x="466" y="232" type="curve"/>
      <point x="466" y="370"/>
      <point x="359" y="440"/>
      <point x="231" y="450" type="curve"/>
      <point x="120" y="423"/>
      <point x="25" y="311"/>
      <point x="25" y="211" type="curve"/>
      <point x="25" y="92"/>
      <point x="123" y="10"/>
    </contour>
    <contour>
      <point x="311" y="67" type="curve"/>
      <point x="311" y="67" type="line"/>
      <point x="143" y="79"/>
      <point x="59" y="254"/>
      <point x="155" y="361" type="curve"/>
      <point x="348" y="395"/>
      <point x="431" y="190"/>
    </contour>
    <contour>
      <point x="104" y="526" type="curve"/>
      <point x="131" y="512" type="line"/>
      <point x="185" y="549"/>
      <point x="270" y="526"/>
      <point x="338" y="531" type="curve"/>
      <point x="365" y="564"/>
      <point x="384" y="602"/>
      <point x="403" y="624" type="curve"/>
      <point x="372" y="637" type="line"/>
      <point x="323" y="603"/>
      <point x="264" y="616"/>
      <point x="178" y="616" type="curve"/>
      <point x="144" y="584"/>
      <point x="120" y="553"/>
    </contour>
    <contour>
      <point x="235" y="1" type="move" name="bottom"/>
    </contour>
    <contour>
      <point x="235" y="223" type="move" name="center"/>
    </contour>
    <contour>
      <point x="406" y="12" type="move" name="ogonek"/>
    </contour>
    <contour>
      <point x="235" y="445" type="move" name="top"/>
    </contour>
    <contour>
      <point x="427" y="445" type="move" name="topright"/>
    </contour>
  </outline>
</glyph>
<glyph name="longs" format="1">
  <advance width="259"/>
  <unicode hex="017F"/>
  <outline>
    <contour>
      <point x="68" y="-10" type="curve"/>
      <point x="68" y="-10" type="line"/>
      <point x="181" y="1" type="line"/>
      <point x="171" y="205"/>
      <point x="173" y="352"/>
      <point x="173" y="557" type="curve"/>
      <point x="173" y="648"/>
      <point x="275" y="623"/>
      <point x="329" y="594" type="curve"/>
      <point x="399" y="667" type="line"/>
      <point x="397" y="684" type="line"/>
      <point x="273" y="712" type="line"/>
      <point x="210" y="712"/>
      <point x="75" y="535"/>
      <point x="75" y="497" type="curve"/>
      <point x="75" y="407" type="line"/>
      <point x="30" y="374" type="line"/>
      <point x="30" y="360" type="line"/>
      <point x="74" y="360" type="line"/>
      <point x="73" y="237"/>
      <point x="70" y="135"/>
    </contour>
    <contour>
      <point x="194" y="1" type="move" name="bottom"/>
    </contour>
    <contour>
      <point x="194" y="445" type="move" name="top"/>
    </contour>
  </outline>
</glyph>
<glyph name="tilde" format="1">
  <advance width="301"/>
  <unicode hex="02DC"/>
  <outline>
    <contour>
      <point x="20" y="552" type="curve"/>
      <point x="46" y="544" type="line"/>
      <point x="56" y="568"/>
      <point x="66" y="583"/>
      <point x="93" y="583" type="curve"/>
      <point x="121" y="583"/>
      <point x="173" y="549"/>
      <point x="215" y="549" type="curve"/>
      <point x="247" y="549"/>
      <point x="270" y="617"/>
      <point x="281" y="666" type="curve"/>
      <point x="253" y="674" type="line"/>
      <point x="236" y="653"/>
      <point x="233" y="636"/>
      <point x="207" y="636" type="curve"/>
      <point x="176" y="636"/>
      <point x="126" y="666"/>
      <point x="89" y="666" type="curve"/>
      <point x="44" y="666"/>
      <point x="20" y="591"/>
    </contour>
  </outline>
</glyph>
<glyph name="macr" format="1">
  <advance width="0"/>
  <unicode hex="0304"/>
  <outline>
    <contour>
      <point x="-319" y="558" type="curve"/>
      <point x="-295" y="545" type="line"/>
      <point x="-246" y="578"/>
      <point x="-170" y="558"/>
      <point x="-109" y="562" type="curve"/>
      <point x="-84" y="592"/>
      <point x="-67" y="626"/>
      <point x="-50" y="646" type="curve"/>
      <point x="-78" y="658" type="line"/>
      <point x="-122" y="627"/>
      <point x="-175" y="639"/>
      <point x="-253" y="639" type="curve"/>
      <point x="-283" y="610"/>
      <point x="-305" y="582"/>
    </contour>
    <contour>
      <point x="-189" y="400" type="move" name="_top"/>
    </contour>
    <contour>
      <point x="-189" y="673" type="move" name="top"/>
    </contour>
  </outline>
</glyph>
<glyph name="hook" format="1">
  <advance width="0"/>
  <unicode hex="0309"/>
  <outline>
    <contour>
      <point x="-125" y="492" type="curve"/>
      <point x="-108" y="477" type="line"/>
      <point x="-79" y="501"/>
      <point x="-51" y="531"/>
      <point x="-21" y="572" type="curve"/>
      <point x="-11" y="644"/>
      <point x="-58" y="671"/>
      <point x="-127" y="671" type="curve"/>
      <point x="-192" y="600" type="line"/>
      <point x="-190" y="580" type="line"/>
      <point x="-146" y="584"/>
      <point x="-100" y="583"/>
      <point x="-100" y="541" type="curve"/>
      <point x="-100" y="526"/>
      <point x="-110" y="515"/>
    </contour>
    <contour>
      <point x="-117" y="400" type="move" name="_top"/>
    </contour>
    <contour>
      <point x="-117" y="716" type="move" name="top"/>
    </contour>
  </outline>
</glyph>
<glyph name="ring" format="1">
  <advance width="262"/>
  <unicode hex="030A"/>
  <outline>
    <contour>
      <point x="131" y="538" type="curve" smooth="yes"/>
      <point x="192" y="538"/>
      <point x="242" y="588"/>
      <point x="242" y="649" type="curve" smooth="yes"/>
      <point x="242" y="710"/>
      <point x="192" y="760"/>
      <point x="131" y="760" type="curve" smooth="yes"/>
      <point x="70" y="760"/>
      <point x="20" y="710"/>
      <point x="20" y="649" type="curve" smooth="yes"/>
      <point x="20" y="588"/>
      <point x="70" y="538"/>
    </contour>
    <contour>
      <point x="132" y="584" type="curve" smooth="yes"/>
      <point x="95" y="584"/>
      <point x="67" y="613"/>
      <point x="67" y="649" type="curve" smooth="yes"/>
      <point x="67" y="685"/>
      <point x="95" y="714"/>
      <point x="132" y="714" type="curve" smooth="yes"/>
      <point x="168" y="714"/>
      <point x="196" y="685"/>
      <point x="196" y="649" type="curve" smooth="yes"/>
      <point x="196" y="613"/>
      <point x="168" y="584"/>
    </contour>
  </outline>
</glyph>
<glyph name="p_bardes" format="1">
  <advance width="569"/>
  <unicode hex="A750"/>
  <outline>
    <contour>
      <point x="99" y="-280" type="curve"/>
      <point x="207" y="-280" type="line"/>
      <point x="207" y="-174" type="line"/>
      <point x="263" y="-173"/>
      <point x="326" y="-173"/>
      <point x="399" y="-173" type="curve" smooth="yes"/>
      <point x="420" y="-173"/>
      <point x="459" y="-137"/>
      <point x="481" y="-82" type="curve"/>
      <point x="446" y="-67" type="line"/>
      <point x="402" y="-112"/>
      <point x="312" y="-128"/>
      <point x="207" y="-136" type="curve"/>
      <point x="207" y="-11" type="line"/>
      <point x="234" y="-9"/>
      <point x="262" y="-10"/>
      <point x="286" y="-10" type="curve" smooth="yes"/>
      <point x="399" y="-10"/>
      <point x="541" y="107"/>
      <point x="544" y="229" type="curve" smooth="yes"/>
      <point x="547" y="348"/>
      <point x="471" y="410"/>
      <point x="365" y="450" type="curve"/>
      <point x="335" y="439"/>
      <point x="266" y="400"/>
      <point x="205" y="369" type="curve"/>
      <point x="195" y="406"/>
      <point x="154" y="440"/>
      <point x="101" y="452" type="curve"/>
      <point x="34" y="379" type="line"/>
      <point x="36" y="359" type="line"/>
      <point x="80" y="355"/>
      <point x="107" y="312"/>
      <point x="107" y="277" type="curve" smooth="yes"/>
      <point x="107" y="242"/>
      <point x="107" y="158"/>
      <point x="106" y="65" type="curve"/>
      <point x="67" y="45" type="line"/>
      <point x="67" y="38" type="line"/>
      <point x="105" y="4" type="line"/>
      <point x="105" y="-47"/>
      <point x="104" y="-97"/>
      <point x="103" y="-142" type="curve"/>
      <point x="77" y="-143"/>
      <point x="50" y="-145"/>
      <point x="24" y="-146" type="curve"/>
      <point x="15" y="-183" type="line"/>
      <point x="44" y="-180"/>
      <point x="73" y="-178"/>
      <point x="103" y="-177" type="curve"/>
      <point x="102" y="-224"/>
      <point x="100" y="-261"/>
    </contour>
    <contour>
      <point x="306" y="46" type="curve" smooth="yes"/>
      <point x="266" y="46"/>
      <point x="236" y="55"/>
      <point x="207" y="72" type="curve"/>
      <point x="207" y="327" type="line"/>
      <point x="230" y="347"/>
      <point x="259" y="361"/>
      <point x="296" y="361" type="curve" smooth="yes"/>
      <point x="371" y="361"/>
      <point x="443" y="300"/>
      <point x="443" y="207" type="curve" smooth="yes"/>
      <point x="443" y="101"/>
      <point x="392" y="46"/>
    </contour>
    <contour>
      <point x="321" y="1" type="move" name="bottom"/>
    </contour>
    <contour>
      <point x="321" y="445" type="move" name="top"/>
    </contour>
  </outline>
</glyph>
<glyph name="p_flour" format="1">
  <advance width="593"/>
  <unicode hex="A753"/>
  <outline>
    <contour>
      <point x="123" y="-280" type="curve"/>
      <point x="231" y="-280" type="line"/>
      <point x="231" y="-11" type="line"/>
      <point x="239" y="-10"/>
      <point x="272" y="-10"/>
      <point x="310" y="-10" type="curve" smooth="yes"/>
      <point x="425" y="-10"/>
      <point x="568" y="112"/>
      <point x="568" y="237" type="curve" smooth="yes"/>
      <point x="568" y="351"/>
      <point x="493" y="411"/>
      <point x="389" y="450" type="curve"/>
      <point x="359" y="439"/>
      <point x="290" y="400"/>
      <point x="229" y="369" type="curve"/>
      <point x="219" y="406"/>
      <point x="213" y="440"/>
      <point x="209" y="452" type="curve"/>
      <point x="-2" y="429" type="line"/>
      <point x="0" y="409" type="line"/>
      <point x="84" y="395"/>
      <point x="131" y="375"/>
      <point x="131" y="300" type="curve" smooth="yes"/>
      <point x="130" y="114" type="line"/>
      <point x="23" y="22"/>
      <point x="-70" y="-62"/>
      <point x="-70" y="-135" type="curve" smooth="yes"/>
      <point x="-70" y="-191"/>
      <point x="-26" y="-222"/>
      <point x="17" y="-241" type="curve"/>
      <point x="56" y="-209"/>
      <point x="101" y="-180"/>
      <point x="159" y="-154" type="curve"/>
      <point x="150" y="-131" type="line"/>
      <point x="71" y="-152"/>
      <point x="9" y="-130"/>
      <point x="9" y="-76" type="curve" smooth="yes"/>
      <point x="9" y="-35"/>
      <point x="59" y="4"/>
      <point x="130" y="33" type="curve"/>
      <point x="127" y="-157"/>
      <point x="125" y="-251"/>
    </contour>
    <contour>
      <point x="340" y="46" type="curve" smooth="yes"/>
      <point x="290" y="46"/>
      <point x="260" y="70"/>
      <point x="231" y="92" type="curve"/>
      <point x="231" y="327" type="line"/>
      <point x="254" y="347"/>
      <point x="283" y="361"/>
      <point x="320" y="361" type="curve" smooth="yes"/>
      <point x="395" y="361"/>
      <point x="467" y="300"/>
      <point x="467" y="207" type="curve" smooth="yes"/>
      <point x="467" y="101"/>
      <point x="416" y="46"/>
    </contour>
    <contour>
      <point x="334" y="1" type="move" name="bottom"/>
    </contour>
    <contour>
      <point x="334" y="445" type="move" name="top"/>
    </contour>
  </outline>
</glyph>
<glyph name="Q_bardes" format="1">
  <advance width="1010"/>
  <unicode hex="A758"/>
  <outline>
    <contour>
      <point x="621" y="-163" type="curve"/>
      <point x="655" y="-189" type="line"/>
      <point x="705" y="-145"/>
      <point x="752" y="-102"/>
      <point x="793" y="-62" type="curve"/>
      <point x="826" y="-73"/>
      <point x="848" y="-101"/>
      <point x="862" y="-101" type="curve"/>
      <point x="886" y="-101"/>
      <point x="961" y="-62"/>
      <point x="1010" y="-27" type="curve"/>
      <point x="994" y="-6" type="line"/>
      <point x="915" y="-42"/>
      <point x="885" y="-14"/>
      <point x="853" y="0" type="curve"/>
      <point x="922" y="76"/>
      <point x="965" y="145"/>
      <point x="965" y="204" type="curve"/>
      <point x="965" y="263"/>
      <point x="916" y="323"/>
      <point x="881" y="363" type="curve"/>
      <point x="852" y="347" type="line"/>
      <point x="890" y="283"/>
      <point x="892" y="247"/>
      <point x="892" y="193" type="curve"/>
      <point x="892" y="121"/>
      <point x="863" y="63"/>
      <point x="812" y="7" type="curve"/>
      <point x="731" y="3"/>
      <point x="578" y="-25"/>
      <point x="513" y="-25" type="curve"/>
      <point x="478" y="-25"/>
      <point x="439" y="-17"/>
      <point x="412" y="-7" type="curve"/>
      <point x="615" y="18"/>
      <point x="772" y="168"/>
      <point x="772" y="361" type="curve"/>
      <point x="772" y="576"/>
      <point x="603" y="711"/>
      <point x="400" y="711" type="curve"/>
      <point x="192" y="711"/>
      <point x="25" y="534"/>
      <point x="25" y="341" type="curve"/>
      <point x="25" y="189"/>
      <point x="107" y="94"/>
      <point x="228" y="21" type="curve"/>
      <point x="310" y="-29"/>
      <point x="393" y="-77"/>
      <point x="506" y="-77" type="curve"/>
      <point x="602" y="-77"/>
      <point x="661" y="-60"/>
      <point x="747" y="-57" type="curve"/>
      <point x="710" y="-90"/>
      <point x="668" y="-124"/>
    </contour>
    <contour>
      <point x="422" y="43" type="curve"/>
      <point x="422" y="43" type="line"/>
      <point x="268" y="43"/>
      <point x="142" y="170"/>
      <point x="142" y="361" type="curve"/>
      <point x="142" y="526"/>
      <point x="229" y="668"/>
      <point x="378" y="668" type="curve"/>
      <point x="532" y="668"/>
      <point x="658" y="522"/>
      <point x="658" y="331" type="curve"/>
      <point x="658" y="166"/>
      <point x="570" y="43"/>
    </contour>
    <contour>
      <point x="506" y="0" type="move" name="bottom"/>
    </contour>
    <contour>
      <point x="430" y="350" type="move" name="center"/>
    </contour>
    <contour>
      <point x="754" y="10" type="move" name="ogonek"/>
    </contour>
    <contour>
      <point x="506" y="700" type="move" name="top"/>
    </contour>
    <contour>
      <point x="44" y="700" type="move" name="topleft"/>
    </contour>
    <contour>
      <point x="816" y="700" type="move" name="topright"/>
    </contour>
  </outline>
</glyph>
<glyph name="etfin" format="1">
  <advance width="326"/>
  <unicode hex="A76B"/>
  <outline>
    <contour>
      <point x="111" y="-287" type="curve"/>
      <point x="167" y="-240"/>
      <point x="316" y="-85"/>
      <point x="316" y="22" type="curve" smooth="yes"/>
      <point x="316" y="117"/>
      <point x="249" y="181"/>
      <point x="160" y="181" type="curve"/>
      <point x="202" y="233"/>
      <point x="313" y="324"/>
      <point x="313" y="354" type="curve" smooth="yes"/>
      <point x="313" y="411"/>
      <point x="224" y="450"/>
      <point x="211" y="450" type="curve" smooth="yes"/>
      <point x="166" y="450"/>
      <point x="82" y="429"/>
      <point x="26" y="411" type="curve"/>
      <point x="36" y="378" type="line"/>
      <point x="74" y="382" type="line" smooth="yes"/>
      <point x="129" y="388"/>
      <point x="197" y="349"/>
      <point x="197" y="304" type="curve" smooth="yes"/>
      <point x="197" y="238"/>
      <point x="58" y="149"/>
      <point x="12" y="103" type="curve"/>
      <point x="30" y="80" type="line"/>
      <point x="120" y="133"/>
      <point x="215" y="56"/>
      <point x="215" y="-47" type="curve" smooth="yes"/>
      <point x="215" y="-118"/>
      <point x="183" y="-151"/>
      <point x="157" y="-182" type="curve"/>
      <point x="128" y="-191"/>
      <point x="69" y="-189"/>
      <point x="30" y="-182" type="curve"/>
      <point x="5" y="-267" type="line"/>
      <point x="29" y="-279"/>
      <point x="76" y="-288"/>
    </contour>
  </outline>
</glyph>
<glyph name="con" format="1">
  <advance width="503"/>
  <unicode hex="A76F"/>
  <outline>
    <contour>
      <point x="209" y="-12" type="curve"/>
      <point x="209" y="-12" type="line"/>
      <point x="345" y="-12"/>
      <point x="478" y="77"/>
      <point x="478" y="251" type="curve"/>
      <point x="478" y="379"/>
      <point x="372" y="450"/>
      <point x="253" y="450" type="curve"/>
      <point x="146" y="450"/>
      <point x="29" y="368"/>
      <point x="40" y="253" type="curve"/>
      <point x="140" y="303" type="line"/>
      <point x="140" y="363"/>
      <point x="178" y="401"/>
      <point x="241" y="401" type="curve"/>
      <point x="314" y="401"/>
      <point x="365" y="333"/>
      <point x="365" y="229" type="curve"/>
      <point x="365" y="122"/>
      <point x="308" y="38"/>
      <point x="224" y="38" type="curve"/>
      <point x="166" y="38"/>
      <point x="133" y="65"/>
      <point x="110" y="86" type="curve"/>
      <point x="144" y="134" type="line"/>
      <point x="120" y="154" type="line"/>
      <point x="5" y="7" type="line"/>
      <point x="35" y="-10" type="line"/>
      <point x="72" y="32" type="line"/>
      <point x="107" y="6"/>
      <point x="151" y="-12"/>
    </contour>
  </outline>
</glyph>
<glyph name="usmod" format="1">
  <advance width="393"/>
  <unicode hex="A770"/>
  <outline>
    <contour>
      <point x="32" y="0" type="line"/>
      <point x="203" y="0" type="line"/>
      <point x="204" y="30" type="line"/>
      <point x="104" y="37" type="line"/>
      <point x="241" y="219"/>
      <point x="335" y="322"/>
      <point x="378" y="476" type="curve"/>
      <point x="366" y="544"/>
      <point x="340" y="598"/>
      <point x="250" y="634" type="curve"/>
      <point x="213" y="624"/>
      <point x="107" y="582"/>
      <point x="52" y="537" type="curve"/>
      <point x="30" y="512"/>
      <point x="20" y="485"/>
      <point x="20" y="448" type="curve" smooth="yes"/>
      <point x="20" y="383"/>
      <point x="72" y="329"/>
      <point x="129" y="319" type="curve"/>
      <point x="178" y="326"/>
      <point x="204" y="336"/>
      <point x="245" y="350" type="curve"/>
      <point x="205" y="245"/>
      <point x="118" y="134"/>
      <point x="32" y="24" type="curve"/>
    </contour>
    <contour>
      <point x="256" y="384" type="curve"/>
      <point x="168" y="360"/>
      <point x="110" y="400"/>
      <point x="110" y="467" type="curve" smooth="yes"/>
      <point x="110" y="511"/>
      <point x="136" y="565"/>
      <point x="181" y="565" type="curve" smooth="yes"/>
      <point x="236" y="565"/>
      <point x="267" y="519"/>
      <point x="267" y="459" type="curve" smooth="yes"/>
      <point x="267" y="435"/>
      <point x="263" y="409"/>
    </contour>
  </outline>
</glyph>
<glyph name="c_t" format="1">
  <advance width="706"/>
  <unicode hex="EEC5"/>
  <outline>
    <contour>
      <point x="586" y="-10" type="curve" smooth="yes"/>
      <point x="609" y="-10"/>
      <point x="706" y="50"/>
      <point x="706" y="50" type="curve"/>
      <point x="700" y="75" type="line"/>
      <point x="634" y="61"/>
      <point x="575" y="60"/>
      <point x="575" y="137" type="curve" smooth="yes"/>
      <point x="575" y="200"/>
      <point x="576" y="283"/>
      <point x="577" y="346" type="curve"/>
      <point x="698" y="346" type="line"/>
      <point x="698" y="416" type="line"/>
      <point x="579" y="416" type="line"/>
      <point x="579" y="543" type="line" smooth="yes"/>
      <point x="579" y="625"/>
      <point x="532" y="664"/>
      <point x="435" y="666" type="curve" smooth="yes"/>
      <point x="328" y="668"/>
      <point x="281" y="595"/>
      <point x="281" y="534" type="curve" smooth="yes"/>
      <point x="281" y="493"/>
      <point x="288" y="467"/>
      <point x="305" y="432" type="curve"/>
      <point x="282" y="442"/>
      <point x="261" y="450"/>
      <point x="240" y="450" type="curve" smooth="yes"/>
      <point x="143" y="450"/>
      <point x="49" y="345"/>
      <point x="35" y="297" type="curve"/>
      <point x="-3" y="130"/>
      <point x="73" y="-8"/>
      <point x="208" y="-8" type="curve" smooth="yes"/>
      <point x="290" y="-8"/>
      <point x="386" y="47"/>
      <point x="439" y="85" type="curve"/>
      <point x="427" y="112" type="line"/>
      <point x="364" y="84"/>
      <point x="317" y="73"/>
      <point x="265" y="73" type="curve" smooth="yes"/>
      <point x="171" y="73"/>
      <point x="116" y="137"/>
      <point x="116" y="244" type="curve" smooth="yes"/>
      <point x="116" y="313"/>
      <point x="137" y="369"/>
      <point x="183" y="387" type="curve"/>
      <point x="221" y="376"/>
      <point x="262" y="346"/>
      <point x="297" y="317" type="curve"/>
      <point x="351" y="399" type="line"/>
      <point x="352" y="408" type="line"/>
      <point x="330" y="442"/>
      <point x="322" y="475"/>
      <point x="322" y="517" type="curve" smooth="yes"/>
      <point x="322" y="577"/>
      <point x="359" y="621"/>
      <point x="420" y="621" type="curve" smooth="yes"/>
      <point x="480" y="621"/>
      <point x="505" y="583"/>
      <point x="506" y="531" type="curve" smooth="yes"/>
      <point x="507" y="449"/>
      <point x="487" y="408"/>
      <point x="408" y="364" type="curve"/>
      <point x="411" y="344" type="line"/>
      <point x="485" y="345" type="line"/>
      <point x="486" y="344" type="line"/>
      <point x="486" y="83" type="line" smooth="yes"/>
      <point x="486" y="26"/>
      <point x="547" y="-9"/>
    </contour>
    <contour>
      <point x="599" y="1" type="move" name="bottom"/>
    </contour>
    <contour>
      <point x="253" y="1" type="move" name="bottom_1"/>
    </contour>
    <contour>
      <point x="587" y="1" type="move" name="bottom_2"/>
    </contour>
    <contour>
      <point x="420" y="1" type="move" name="caret_1"/>
    </contour>
    <contour>
      <point x="599" y="223" type="move" name="center"/>
    </contour>
    <contour>
      <point x="599" y="445" type="move" name="top"/>
    </contour>
    <contour>
      <point x="253" y="445" type="move" name="top_1"/>
    </contour>
    <contour>
      <point x="587" y="445" type="move" name="top_2"/>
    </contour>
    <contour>
      <point x="731" y="445" type="move" name="topright"/>
    </contour>
  </outline>
</glyph>
<glyph name="p_p_flour" format="1">
  <advance width="886"/>
  <unicode hex="EED7"/>
  <outline>
    <contour>
      <point x="116" y="-280" type="curve"/>
      <point x="224" y="-280" type="line"/>
      <point x="224" y="9" type="line"/>
      <point x="232" y="4"/>
      <point x="265" y="-10"/>
      <point x="303" y="-10" type="curve" smooth="yes"/>
      <point x="359" y="-10"/>
      <point x="421" y="19"/>
      <point x="471" y="62" type="curve"/>
      <point x="469" y="-69"/>
      <point x="465" y="-231"/>
      <point x="462" y="-280" type="curve"/>
      <point x="569" y="-280" type="line"/>
      <point x="565" y="-6" type="line"/>
      <point x="637" y="-10" type="line" smooth="yes"/>
      <point x="685" y="-13"/>
      <point x="857" y="105"/>
      <point x="861" y="227" type="curve" smooth="yes"/>
      <point x="865" y="346"/>
      <point x="790" y="412"/>
      <point x="685" y="452" type="curve"/>
      <point x="653" y="433"/>
      <point x="595" y="396"/>
      <point x="538" y="365" type="curve"/>
      <point x="509" y="391"/>
      <point x="448" y="424"/>
      <point x="382" y="450" type="curve"/>
      <point x="352" y="439"/>
      <point x="283" y="400"/>
      <point x="222" y="369" type="curve"/>
      <point x="188" y="452" type="line"/>
      <point x="1" y="415" type="line"/>
      <point x="3" y="395" type="line"/>
      <point x="97" y="381"/>
      <point x="124" y="351"/>
      <point x="124" y="277" type="curve" smooth="yes"/>
      <point x="124" y="246"/>
      <point x="124" y="175"/>
      <point x="123" y="114" type="curve"/>
      <point x="7" y="3"/>
      <point x="-70" y="-62"/>
      <point x="-70" y="-135" type="curve" smooth="yes"/>
      <point x="-70" y="-175"/>
      <point x="-51" y="-239"/>
      <point x="16" y="-251" type="curve"/>
      <point x="45" y="-239"/>
      <point x="93" y="-198"/>
      <point x="141" y="-154" type="curve"/>
      <point x="132" y="-131" type="line"/>
      <point x="59" y="-164"/>
      <point x="8" y="-141"/>
      <point x="8" y="-91" type="curve" smooth="yes"/>
      <point x="8" y="-50"/>
      <point x="79" y="6"/>
      <point x="122" y="31" type="curve"/>
      <point x="121" y="-141"/>
      <point x="119" y="-240"/>
    </contour>
    <contour>
      <point x="323" y="46" type="curve" smooth="yes"/>
      <point x="283" y="46"/>
      <point x="253" y="65"/>
      <point x="224" y="92" type="curve"/>
      <point x="224" y="327" type="line"/>
      <point x="247" y="347"/>
      <point x="276" y="361"/>
      <point x="313" y="361" type="curve" smooth="yes"/>
      <point x="388" y="361"/>
      <point x="460" y="300"/>
      <point x="460" y="207" type="curve" smooth="yes"/>
      <point x="460" y="101"/>
      <point x="409" y="46"/>
    </contour>
    <contour>
      <point x="637" y="46" type="curve" smooth="yes"/>
      <point x="613" y="46"/>
      <point x="588" y="49"/>
      <point x="565" y="56" type="curve"/>
      <point x="561" y="333" type="line"/>
      <point x="582" y="348"/>
      <point x="607" y="358"/>
      <point x="637" y="358" type="curve" smooth="yes"/>
      <point x="713" y="358"/>
      <point x="773" y="287"/>
      <point x="773" y="204" type="curve" smooth="yes"/>
      <point x="773" y="102"/>
      <point x="727" y="46"/>
    </contour>
    <contour>
      <point x="326" y="1" type="move" name="bottom"/>
    </contour>
    <contour>
      <point x="326" y="445" type="move" name="top"/>
    </contour>
  </outline>
</glyph>
<glyph name="longs_t" format="1">
  <advance width="606"/>
  <unicode hex="FB05"/>
  <outline>
    <contour>
      <point x="74" y="-10" type="line"/>
      <point x="185" y="1" type="line"/>
      <point x="175" y="205"/>
      <point x="177" y="271"/>
      <point x="177" y="475" type="curve" smooth="yes"/>
      <point x="177" y="566"/>
      <point x="181" y="603"/>
      <point x="233" y="642" type="curve"/>
      <point x="310" y="642"/>
      <point x="401" y="605"/>
      <point x="401" y="525" type="curve" smooth="yes"/>
      <point x="401" y="475"/>
      <point x="391" y="448"/>
      <point x="349" y="399" type="curve"/>
      <point x="349" y="389" type="line"/>
      <point x="374" y="358" type="line"/>
      <point x="373" y="101" type="line" smooth="yes"/>
      <point x="373" y="44"/>
      <point x="435" y="-9"/>
      <point x="474" y="-10" type="curve"/>
      <point x="521" y="23"/>
      <point x="590" y="60"/>
      <point x="590" y="60" type="curve"/>
      <point x="585" y="85" type="line"/>
      <point x="485" y="71"/>
      <point x="477" y="90"/>
      <point x="473" y="167" type="curve" smooth="yes"/>
      <point x="470" y="230"/>
      <point x="466" y="299"/>
      <point x="469" y="362" type="curve"/>
      <point x="572" y="365" type="line"/>
      <point x="606" y="429" type="line"/>
      <point x="602" y="440" type="line"/>
      <point x="473" y="440" type="line"/>
      <point x="471" y="503"/>
      <point x="476" y="570"/>
      <point x="490" y="633" type="curve"/>
      <point x="447" y="677"/>
      <point x="365" y="709"/>
      <point x="278" y="709" type="curve"/>
      <point x="215" y="680"/>
      <point x="131" y="626"/>
      <point x="81" y="577" type="curve"/>
      <point x="80" y="435" type="line"/>
      <point x="30" y="395" type="line"/>
      <point x="30" y="381" type="line"/>
      <point x="80" y="380" type="line"/>
    </contour>
    <contour>
      <point x="218" y="1" type="move" name="bottom"/>
    </contour>
    <contour>
      <point x="307" y="1" type="move" name="caret_1"/>
    </contour>
    <contour>
      <point x="487" y="223" type="move" name="center"/>
    </contour>
    <contour>
      <point x="218" y="445" type="move" name="top"/>
    </contour>
    <contour>
      <point x="619" y="445" type="move" name="topright"/>
    </contour>
  </outline>
</glyph>
<glyph name="A.ss01" format="1">
  <advance width="684"/>
  <outline>
    <contour>
      <point x="525" y="-6" type="curve"/>
      <point x="565" y="3"/>
      <point x="679" y="52"/>
      <point x="679" y="51" type="curve" smooth="yes"/>
      <point x="673" y="76" type="line"/>
      <point x="625" y="74"/>
      <point x="616" y="79"/>
      <point x="602" y="115" type="curve" smooth="yes"/>
      <point x="526" y="310"/>
      <point x="426" y="635"/>
      <point x="410" y="704" type="curve"/>
      <point x="316" y="696"/>
      <point x="223" y="692"/>
      <point x="125" y="690" type="curve"/>
      <point x="125" y="649" type="line"/>
      <point x="177" y="649"/>
      <point x="220" y="654"/>
      <point x="272" y="654" type="curve"/>
      <point x="6" y="25" type="line"/>
      <point x="5" y="0" type="line"/>
      <point x="68" y="0" type="line"/>
      <point x="68" y="20"/>
      <point x="114" y="141"/>
      <point x="171" y="284" type="curve"/>
      <point x="215" y="215"/>
      <point x="251" y="135"/>
      <point x="288" y="69" type="curve"/>
      <point x="300" y="69" type="line"/>
      <point x="330" y="122"/>
      <point x="383" y="221"/>
      <point x="433" y="297" type="curve"/>
      <point x="479" y="161"/>
      <point x="513" y="51"/>
    </contour>
    <contour>
      <point x="299" y="182" type="curve"/>
      <point x="196" y="346" type="line"/>
      <point x="237" y="447"/>
      <point x="281" y="553"/>
      <point x="317" y="640" type="curve"/>
      <point x="417" y="346" type="line"/>
      <point x="378" y="289"/>
      <point x="339" y="238"/>
    </contour>
    <contour>
      <point x="320" y="0" type="move" name="bottom"/>
    </contour>
    <contour>
      <point x="576" y="10" type="move" name="ogonek"/>
    </contour>
    <contour>
      <point x="320" y="700" type="move" name="top"/>
    </contour>
  </outline>
</glyph>
<glyph name="B.ss01" format="1">
  <advance width="665"/>
  <outline>
    <contour>
      <point x="352" y="-6" type="curve" smooth="yes"/>
      <point x="484" y="-6"/>
      <point x="640" y="79"/>
      <point x="640" y="231" type="curve" smooth="yes"/>
      <point x="640" y="353"/>
      <point x="544" y="444"/>
      <point x="421" y="452" type="curve"/>
      <point x="473" y="498"/>
      <point x="541" y="533"/>
      <point x="572" y="557" type="curve"/>
      <point x="565" y="650"/>
      <point x="507" y="711"/>
      <point x="348" y="711" type="curve" smooth="yes"/>
      <point x="252" y="711"/>
      <point x="157" y="678"/>
      <point x="28" y="690" type="curve"/>
      <point x="25" y="665" type="line"/>
      <point x="103" y="636"/>
      <point x="129" y="645"/>
      <point x="132" y="564" type="curve" smooth="yes"/>
      <point x="135" y="470"/>
      <point x="132" y="226"/>
      <point x="132" y="175" type="curve" smooth="yes"/>
      <point x="132" y="92"/>
      <point x="94" y="58"/>
      <point x="38" y="35" type="curve"/>
      <point x="50" y="13" type="line"/>
      <point x="84" y="25"/>
      <point x="109" y="39"/>
      <point x="146" y="39" type="curve" smooth="yes"/>
      <point x="187" y="39"/>
      <point x="267" y="-6"/>
    </contour>
    <contour>
      <point x="354" y="34" type="curve" smooth="yes"/>
      <point x="301" y="34"/>
      <point x="267" y="46"/>
      <point x="232" y="63" type="curve"/>
      <point x="232" y="365" type="line"/>
      <point x="268" y="385"/>
      <point x="304" y="398"/>
      <point x="351" y="397" type="curve" smooth="yes"/>
      <point x="466" y="395"/>
      <point x="537" y="329"/>
      <point x="537" y="218" type="curve" smooth="yes"/>
      <point x="537" y="109"/>
      <point x="478" y="34"/>
    </contour>
    <contour>
      <point x="232" y="409" type="curve"/>
      <point x="232" y="646" type="line"/>
      <point x="263" y="660"/>
      <point x="296" y="670"/>
      <point x="336" y="670" type="curve" smooth="yes"/>
      <point x="390" y="670"/>
      <point x="454" y="636"/>
      <point x="454" y="567" type="curve" smooth="yes"/>
      <point x="454" y="507"/>
      <point x="370" y="442"/>
    </contour>
    <contour>
      <point x="333" y="0" type="move" name="bottom"/>
    </contour>
    <contour>
      <point x="333" y="700" type="move" name="top"/>
    </contour>
  </outline>
</glyph>
<glyph name="L.ss01" format="1">
  <advance width="713"/>
  <outline>
    <contour>
      <point x="69" y="-1" type="curve"/>
      <point x="84" y="-23" type="line"/>
      <point x="179" y="28"/>
      <point x="505" y="23"/>
      <point x="638" y="-13" type="curve"/>
      <point x="713" y="109" type="line"/>
      <point x="688" y="124" type="line"/>
      <point x="668" y="105"/>
      <point x="647" y="102"/>
      <point x="587" y="102" type="curve"/>
      <point x="536" y="102"/>
      <point x="454" y="113"/>
      <point x="366" y="115" type="curve"/>
      <point x="363" y="309"/>
      <point x="363" y="501"/>
      <point x="372" y="696" type="curve"/>
      <point x="322" y="699" type="line"/>
      <point x="318" y="503"/>
      <point x="319" y="308"/>
      <point x="326" y="113" type="curve"/>
      <point x="266" y="103"/>
      <point x="175" y="55"/>
      <point x="142" y="43" type="curve"/>
      <point x="180" y="178"/>
      <point x="246" y="293"/>
      <point x="226" y="700" type="curve"/>
      <point x="30" y="700" type="line"/>
      <point x="30" y="670" type="line"/>
      <point x="89" y="652"/>
      <point x="98" y="631"/>
      <point x="104" y="533" type="curve"/>
      <point x="113" y="389"/>
      <point x="128" y="60"/>
    </contour>
    <contour>
      <point x="362" y="0" type="move" name="bottom"/>
    </contour>
    <contour>
      <point x="362" y="350" type="move" name="center"/>
    </contour>
    <contour>
      <point x="371" y="696" type="move" name="top"/>
    </contour>
    <contour>
      <point x="693" y="700" type="move" name="topright"/>
    </contour>
  </outline>
</glyph>
<glyph name="M.ss01" format="1">
  <advance width="796"/>
  <outline>
    <contour>
      <point x="628" y="-10" type="curve"/>
      <point x="628" y="-10" type="line"/>
      <point x="672" y="-1"/>
      <point x="786" y="27"/>
      <point x="786" y="26" type="curve"/>
      <point x="780" y="51" type="line"/>
      <point x="752" y="49"/>
      <point x="738" y="58"/>
      <point x="732" y="80" type="curve"/>
      <point x="684" y="257"/>
      <point x="592" y="645"/>
      <point x="575" y="700" type="curve"/>
      <point x="525" y="700" type="line"/>
      <point x="401" y="252" type="line"/>
      <point x="357" y="425"/>
      <point x="274" y="650"/>
      <point x="268" y="700" type="curve"/>
      <point x="218" y="700" type="line"/>
      <point x="10" y="15" type="line"/>
      <point x="11" y="0" type="line"/>
      <point x="75" y="0" type="line"/>
      <point x="110" y="177"/>
      <point x="152" y="297"/>
      <point x="220" y="528" type="curve"/>
      <point x="277" y="315"/>
      <point x="338" y="158"/>
      <point x="348" y="60" type="curve"/>
      <point x="401" y="60" type="line"/>
      <point x="401" y="96"/>
      <point x="458" y="288"/>
      <point x="526" y="519" type="curve"/>
      <point x="583" y="256"/>
      <point x="618" y="88"/>
    </contour>
    <contour>
      <point x="396" y="0" type="move" name="bottom"/>
    </contour>
    <contour>
      <point x="396" y="700" type="move" name="top"/>
    </contour>
  </outline>
</glyph>
<glyph name="N.ss01" format="1">
  <advance width="811"/>
  <outline>
    <contour>
      <point x="40" y="30" type="curve"/>
      <point x="40" y="0" type="line"/>
      <point x="289" y="0" type="line"/>
      <point x="289" y="30" type="line"/>
      <point x="166" y="39"/>
      <point x="173" y="50"/>
      <point x="171" y="95" type="curve"/>
      <point x="168" y="174"/>
      <point x="163" y="413"/>
      <point x="166" y="520" type="curve"/>
      <point x="239" y="441"/>
      <point x="544" y="116"/>
      <point x="641" y="0" type="curve"/>
      <point x="682" y="0" type="line"/>
      <point x="686" y="111"/>
      <point x="685" y="452"/>
      <point x="690" y="630" type="curve"/>
      <point x="691" y="666"/>
      <point x="718" y="659"/>
      <point x="781" y="674" type="curve"/>
      <point x="781" y="700" type="line"/>
      <point x="578" y="700" type="line"/>
      <point x="578" y="674" type="line"/>
      <point x="623" y="659"/>
      <point x="633" y="655"/>
      <point x="634" y="630" type="curve"/>
      <point x="638" y="522"/>
      <point x="642" y="282"/>
      <point x="638" y="178" type="curve"/>
      <point x="568" y="250"/>
      <point x="198" y="652"/>
      <point x="154" y="700" type="curve"/>
      <point x="112" y="700" type="line"/>
      <point x="119" y="592"/>
      <point x="125" y="182"/>
      <point x="117" y="90" type="curve"/>
      <point x="114" y="54"/>
      <point x="103" y="45"/>
    </contour>
    <contour>
      <point x="411" y="0" type="move" name="bottom"/>
    </contour>
    <contour>
      <point x="411" y="700" type="move" name="top"/>
    </contour>
  </outline>
</glyph>
<glyph name="P.ss01" format="1">
  <advance width="787"/>
  <outline>
    <contour>
      <point x="111" y="-230" type="curve"/>
      <point x="235" y="-230" type="line"/>
      <point x="232" y="-160"/>
      <point x="228" y="-22"/>
      <point x="225" y="131" type="curve"/>
      <point x="394" y="61" type="line"/>
      <point x="547" y="79"/>
      <point x="777" y="218"/>
      <point x="777" y="420" type="curve" smooth="yes"/>
      <point x="777" y="607"/>
      <point x="633" y="720"/>
      <point x="377" y="710" type="curve"/>
      <point x="318" y="652"/>
      <point x="260" y="598"/>
      <point x="223" y="519" type="curve"/>
      <point x="224" y="586"/>
      <point x="226" y="645"/>
      <point x="229" y="691" type="curve"/>
      <point x="172" y="691"/>
      <point x="73" y="692"/>
      <point x="26" y="698" type="curve"/>
      <point x="20" y="669" type="line"/>
      <point x="93" y="648"/>
      <point x="119" y="626"/>
      <point x="122" y="573" type="curve" smooth="yes"/>
      <point x="131" y="420"/>
      <point x="116" y="-73"/>
    </contour>
    <contour>
      <point x="467" y="141" type="curve" smooth="yes"/>
      <point x="354" y="141"/>
      <point x="229" y="177"/>
      <point x="223" y="367" type="curve"/>
      <point x="227" y="536"/>
      <point x="329" y="617"/>
      <point x="441" y="617" type="curve" smooth="yes"/>
      <point x="575" y="617"/>
      <point x="676" y="536"/>
      <point x="676" y="378" type="curve" smooth="yes"/>
      <point x="676" y="238"/>
      <point x="585" y="141"/>
    </contour>
    <contour>
      <point x="414" y="0" type="move" name="bottom"/>
    </contour>
    <contour>
      <point x="414" y="700" type="move" name="top"/>
    </contour>
  </outline>
</glyph>
<glyph name="Q_strok" format="1">
  <advance width="1092"/>
  <outline>
    <contour>
      <point x="852" y="-181" type="curve" smooth="yes"/>
      <point x="946" y="-181"/>
      <point x="1084" y="-133"/>
      <point x="1142" y="-108" type="curve"/>
      <point x="1135" y="-89" type="line"/>
      <point x="1055" y="-112"/>
      <point x="971" y="-127"/>
      <point x="887" y="-127" type="curve" smooth="yes"/>
      <point x="818" y="-127"/>
      <point x="756" y="-115"/>
      <point x="702" y="-88" type="curve"/>
      <point x="952" y="143"/>
      <point x="1077" y="341"/>
      <point x="1077" y="445" type="curve" smooth="yes"/>
      <point x="1077" y="531"/>
      <point x="1021" y="595"/>
      <point x="948" y="612" type="curve"/>
      <point x="881" y="612"/>
      <point x="806" y="566"/>
      <point x="738" y="516" type="curve"/>
      <point x="679" y="639"/>
      <point x="548" y="711"/>
      <point x="400" y="711" type="curve" smooth="yes"/>
      <point x="192" y="711"/>
      <point x="25" y="534"/>
      <point x="25" y="341" type="curve" smooth="yes"/>
      <point x="25" y="125"/>
      <point x="192" y="-12"/>
      <point x="400" y="-12" type="curve" smooth="yes"/>
      <point x="416" y="-12"/>
      <point x="432" y="-11"/>
      <point x="448" y="-8" type="curve"/>
      <point x="548" y="-123"/>
      <point x="701" y="-182"/>
    </contour>
    <contour>
      <point x="422" y="34" type="curve" smooth="yes"/>
      <point x="268" y="34"/>
      <point x="142" y="170"/>
      <point x="142" y="361" type="curve" smooth="yes"/>
      <point x="142" y="526"/>
      <point x="229" y="668"/>
      <point x="378" y="668" type="curve" smooth="yes"/>
      <point x="532" y="668"/>
      <point x="658" y="522"/>
      <point x="658" y="331" type="curve" smooth="yes"/>
      <point x="658" y="166"/>
      <point x="570" y="34"/>
    </contour>
    <contour>
      <point x="670" y="-69" type="curve"/>
      <point x="632" y="-44"/>
      <point x="600" y="-9"/>
      <point x="574" y="35" type="curve"/>
      <point x="689" y="101"/>
      <point x="772" y="226"/>
      <point x="772" y="361" type="curve" smooth="yes"/>
      <point x="772" y="407"/>
      <point x="764" y="449"/>
      <point x="750" y="487" type="curve"/>
      <point x="792" y="515"/>
      <point x="829" y="529"/>
      <point x="864" y="529" type="curve" smooth="yes"/>
      <point x="935" y="529"/>
      <point x="973" y="460"/>
      <point x="973" y="406" type="curve" smooth="yes"/>
      <point x="973" y="256"/>
      <point x="827" y="81"/>
    </contour>
    <contour>
      <point x="430" y="0" type="move" name="bottom"/>
    </contour>
    <contour>
      <point x="320" y="0" type="move" name="bottom_1"/>
    </contour>
    <contour>
      <point x="957" y="0" type="move" name="bottom_2"/>
    </contour>
    <contour>
      <point x="547" y="0" type="move" name="caret_1"/>
    </contour>
    <contour>
      <point x="430" y="350" type="move" name="center"/>
    </contour>
    <contour>
      <point x="754" y="10" type="move" name="ogonek"/>
    </contour>
    <contour>
      <point x="430" y="700" type="move" name="top"/>
    </contour>
    <contour>
      <point x="320" y="400" type="move" name="top_1"/>
    </contour>
    <contour>
      <point x="957" y="400" type="move" name="top_2"/>
    </contour>
    <contour>
      <point x="44" y="700" type="move" name="topleft"/>
    </contour>
    <contour>
      <point x="816" y="700" type="move" name="topright"/>
    </contour>
  </outline>
</glyph>
<glyph name="R.ss01" format="1">
  <advance width="648"/>
  <outline>
    <contour>
      <point x="5" y="24" type="curve"/>
      <point x="5" y="-5" type="line"/>
      <point x="84" y="2"/>
      <point x="162" y="3"/>
      <point x="241" y="-4" type="curve"/>
      <point x="241" y="23" type="line"/>
      <point x="184" y="37"/>
      <point x="165" y="34"/>
      <point x="174" y="98" type="curve"/>
      <point x="219" y="420" type="line"/>
      <point x="322" y="312"/>
      <point x="411" y="203"/>
      <point x="487" y="77" type="curve"/>
      <point x="502" y="52"/>
      <point x="511" y="38"/>
      <point x="446" y="30" type="curve"/>
      <point x="446" y="0" type="line"/>
      <point x="512" y="4"/>
      <point x="577" y="4"/>
      <point x="643" y="0" type="curve"/>
      <point x="643" y="29" type="line"/>
      <point x="617" y="42"/>
      <point x="608" y="51"/>
      <point x="595" y="70" type="curve"/>
      <point x="526" y="170"/>
      <point x="465" y="261"/>
      <point x="401" y="342" type="curve"/>
      <point x="464" y="335"/>
      <point x="598" y="394"/>
      <point x="598" y="527" type="curve"/>
      <point x="598" y="654"/>
      <point x="484" y="709"/>
      <point x="396" y="709" type="curve"/>
      <point x="304" y="709"/>
      <point x="256" y="677"/>
      <point x="207" y="647" type="curve"/>
      <point x="146" y="647"/>
      <point x="98" y="648"/>
      <point x="61" y="648" type="curve"/>
      <point x="56" y="615" type="line"/>
      <point x="166" y="602"/>
      <point x="169" y="601"/>
      <point x="164" y="570" type="curve"/>
      <point x="88" y="94" type="line" smooth="yes"/>
      <point x="81" y="51"/>
      <point x="76" y="33"/>
    </contour>
    <contour>
      <point x="376" y="377" type="curve"/>
      <point x="376" y="377" type="line"/>
      <point x="308" y="377"/>
      <point x="249" y="441"/>
      <point x="249" y="508" type="curve"/>
      <point x="249" y="597"/>
      <point x="310" y="642"/>
      <point x="384" y="642" type="curve"/>
      <point x="458" y="642"/>
      <point x="515" y="588"/>
      <point x="515" y="515" type="curve"/>
      <point x="515" y="431"/>
      <point x="458" y="377"/>
    </contour>
    <contour>
      <point x="320" y="0" type="move" name="bottom"/>
    </contour>
    <contour>
      <point x="320" y="700" type="move" name="top"/>
    </contour>
  </outline>
</glyph>
<glyph name="S.ss01" format="1">
  <advance width="614"/>
  <outline>
    <contour>
      <point x="336" y="-10" type="curve"/>
      <point x="336" y="-10" type="line"/>
      <point x="466" y="-10"/>
      <point x="581" y="98"/>
      <point x="581" y="234" type="curve"/>
      <point x="581" y="368"/>
      <point x="511" y="440"/>
      <point x="378" y="455" type="curve"/>
      <point x="290" y="440"/>
      <point x="265" y="425"/>
      <point x="197" y="425" type="curve"/>
      <point x="140" y="425"/>
      <point x="92" y="445"/>
      <point x="92" y="517" type="curve"/>
      <point x="92" y="599"/>
      <point x="153" y="659"/>
      <point x="257" y="659" type="curve"/>
      <point x="359" y="659"/>
      <point x="405" y="570"/>
      <point x="423" y="530" type="curve"/>
      <point x="594" y="649" type="line"/>
      <point x="578" y="671" type="line"/>
      <point x="497" y="636" type="line"/>
      <point x="472" y="664"/>
      <point x="402" y="710"/>
      <point x="283" y="710" type="curve"/>
      <point x="135" y="710"/>
      <point x="33" y="630"/>
      <point x="33" y="501" type="curve"/>
      <point x="33" y="392"/>
      <point x="89" y="308"/>
      <point x="212" y="308" type="curve"/>
      <point x="256" y="308"/>
      <point x="313" y="333"/>
      <point x="376" y="333" type="curve"/>
      <point x="459" y="333"/>
      <point x="524" y="286"/>
      <point x="524" y="209" type="curve"/>
      <point x="524" y="132"/>
      <point x="474" y="70"/>
      <point x="365" y="70" type="curve"/>
      <point x="258" y="70"/>
      <point x="209" y="152"/>
      <point x="167" y="194" type="curve"/>
      <point x="30" y="77" type="line"/>
      <point x="49" y="60" type="line"/>
      <point x="122" y="97" type="line"/>
      <point x="156" y="61"/>
      <point x="225" y="-10"/>
    </contour>
    <contour>
      <point x="318" y="0" type="move" name="bottom"/>
    </contour>
    <contour>
      <point x="318" y="700" type="move" name="top"/>
    </contour>
  </outline>
</glyph>
<glyph name="V.ss01" format="1">
  <advance width="584"/>
  <outline>
    <contour>
      <point x="245" y="-5" type="curve"/>
      <point x="258" y="-11" type="line"/>
      <point x="381" y="173"/>
      <point x="528" y="452"/>
      <point x="579" y="693" type="curve"/>
      <point x="450" y="708" type="line"/>
      <point x="446" y="682" type="line"/>
      <point x="508" y="666"/>
      <point x="510" y="660"/>
      <point x="506" y="625" type="curve"/>
      <point x="497" y="545"/>
      <point x="392" y="296"/>
      <point x="315" y="168" type="curve"/>
      <point x="178" y="712" type="line"/>
      <point x="5" y="693" type="line"/>
      <point x="11" y="666" type="line"/>
      <point x="67" y="669"/>
      <point x="79" y="661"/>
      <point x="93" y="624" type="curve"/>
      <point x="107" y="587"/>
      <point x="200" y="203"/>
    </contour>
    <contour>
      <point x="290" y="0" type="move" name="bottom"/>
    </contour>
    <contour>
      <point x="290" y="700" type="move" name="top"/>
    </contour>
  </outline>
</glyph>
<glyph name="X.ss01" format="1">
  <advance width="785"/>
  <outline>
    <contour>
      <point x="89" y="-107" type="line"/>
      <point x="185" y="28"/>
      <point x="280" y="148"/>
      <point x="377" y="263" type="curve"/>
      <point x="439" y="165"/>
      <point x="502" y="64"/>
      <point x="550" y="-15" type="curve"/>
      <point x="759" y="64" type="line"/>
      <point x="748" y="89" type="line"/>
      <point x="696" y="81"/>
      <point x="629" y="89"/>
      <point x="592" y="131" type="curve" smooth="yes"/>
      <point x="571" y="154"/>
      <point x="515" y="242"/>
      <point x="449" y="348" type="curve"/>
      <point x="490" y="395"/>
      <point x="531" y="442"/>
      <point x="573" y="489" type="curve" smooth="yes"/>
      <point x="656" y="582"/>
      <point x="720" y="663"/>
      <point x="773" y="664" type="curve"/>
      <point x="775" y="694" type="line"/>
      <point x="638" y="698" type="line"/>
      <point x="581" y="597"/>
      <point x="508" y="493"/>
      <point x="424" y="387" type="curve"/>
      <point x="358" y="492"/>
      <point x="285" y="608"/>
      <point x="228" y="694" type="curve"/>
      <point x="19" y="698" type="line"/>
      <point x="21" y="665" type="line"/>
      <point x="66" y="664"/>
      <point x="113" y="654"/>
      <point x="156" y="602" type="curve" smooth="yes"/>
      <point x="172" y="583"/>
      <point x="258" y="451"/>
      <point x="353" y="301" type="curve"/>
      <point x="249" y="180"/>
      <point x="132" y="56"/>
      <point x="10" y="-66" type="curve"/>
      <point x="13" y="-76" type="line"/>
    </contour>
    <contour>
      <point x="385" y="0" type="move" name="bottom"/>
    </contour>
    <contour>
      <point x="385" y="700" type="move" name="top"/>
    </contour>
  </outline>
</glyph>
<glyph name="Y.ss01" format="1">
  <advance width="715"/>
  <outline>
    <contour>
      <point x="89" y="-260" type="curve"/>
      <point x="89" y="-260" type="line"/>
      <point x="335" y="-79"/>
      <point x="649" y="378"/>
      <point x="710" y="691" type="curve"/>
      <point x="554" y="707" type="line"/>
      <point x="549" y="679" type="line"/>
      <point x="616" y="662"/>
      <point x="619" y="656"/>
      <point x="614" y="618" type="curve"/>
      <point x="595" y="476"/>
      <point x="459" y="225"/>
      <point x="319" y="37" type="curve"/>
      <point x="211" y="712" type="line"/>
      <point x="11" y="674" type="line"/>
      <point x="18" y="645" type="line"/>
      <point x="78" y="648"/>
      <point x="91" y="639"/>
      <point x="106" y="599" type="curve"/>
      <point x="124" y="550"/>
      <point x="201" y="74"/>
      <point x="225" y="-79" type="curve"/>
      <point x="191" y="-117"/>
      <point x="159" y="-148"/>
      <point x="129" y="-170" type="curve"/>
      <point x="100" y="-167"/>
      <point x="57" y="-156"/>
      <point x="35" y="-148" type="curve"/>
      <point x="5" y="-208" type="line"/>
      <point x="21" y="-218"/>
      <point x="56" y="-251"/>
    </contour>
    <contour>
      <point x="351" y="0" type="move" name="bottom"/>
    </contour>
    <contour>
      <point x="351" y="700" type="move" name="top"/>
    </contour>
    <contour>
      <point x="12" y="700" type="move" name="topleft"/>
    </contour>
  </outline>
</glyph>
<glyph name="b_hook" format="1">
  <advance width="497"/>
  <outline>
    <contour>
      <point x="208" y="-9" type="curve" smooth="yes"/>
      <point x="287" y="-9"/>
      <point x="378" y="57"/>
      <point x="447" y="136" type="curve"/>
      <point x="463" y="177"/>
      <point x="472" y="222"/>
      <point x="472" y="265" type="curve" smooth="yes"/>
      <point x="472" y="389"/>
      <point x="382" y="451"/>
      <point x="293" y="451" type="curve"/>
      <point x="160" y="356" type="line"/>
      <point x="163" y="448" type="line"/>
      <point x="252" y="475"/>
      <point x="433" y="551"/>
      <point x="433" y="637" type="curve" smooth="yes"/>
      <point x="433" y="684"/>
      <point x="346" y="700"/>
      <point x="313" y="701" type="curve"/>
      <point x="256" y="639" type="line"/>
      <point x="257" y="626" type="line"/>
      <point x="285" y="634"/>
      <point x="339" y="632"/>
      <point x="339" y="593" type="curve" smooth="yes"/>
      <point x="339" y="542"/>
      <point x="243" y="506"/>
      <point x="165" y="480" type="curve"/>
      <point x="170" y="586"/>
      <point x="178" y="659"/>
      <point x="180" y="696" type="curve"/>
      <point x="168" y="703" type="line"/>
      <point x="5" y="686" type="line"/>
      <point x="5" y="657" type="line"/>
      <point x="44" y="648"/>
      <point x="49" y="646"/>
      <point x="50" y="606" type="curve" smooth="yes"/>
      <point x="53" y="499"/>
      <point x="63" y="317"/>
      <point x="55" y="131" type="curve"/>
      <point x="68" y="61"/>
      <point x="133" y="-9"/>
    </contour>
    <contour>
      <point x="293" y="63" type="curve"/>
      <point x="249" y="63"/>
      <point x="182" y="98"/>
      <point x="157" y="148" type="curve"/>
      <point x="160" y="319" type="line"/>
      <point x="184" y="335"/>
      <point x="217" y="351"/>
      <point x="260" y="351" type="curve" smooth="yes"/>
      <point x="339" y="351"/>
      <point x="392" y="288"/>
      <point x="392" y="216" type="curve" smooth="yes"/>
      <point x="392" y="144"/>
      <point x="348" y="87"/>
    </contour>
    <contour>
      <point x="255" y="445" type="move" name="_top"/>
    </contour>
    <contour>
      <point x="255" y="795" type="move" name="top"/>
    </contour>
  </outline>
</glyph>
<glyph name="bardes" format="1">
  <advance width="440"/>
  <outline>
    <contour>
      <point x="10" y="-166" type="line"/>
      <point x="109" y="-156"/>
      <point x="207" y="-157"/>
      <point x="356" y="-157" type="curve" smooth="yes"/>
      <point x="375" y="-157"/>
      <point x="410" y="-124"/>
      <point x="430" y="-75" type="curve"/>
      <point x="398" y="-61" type="line"/>
      <point x="336" y="-124"/>
      <point x="174" y="-124"/>
      <point x="18" y="-132" type="curve"/>
    </contour>
  </outline>
</glyph>
<glyph name="c_hook" format="1">
  <advance width="360"/>
  <outline>
    <contour>
      <point x="195" y="-8" type="curve"/>
      <point x="195" y="-8" type="line"/>
      <point x="242" y="-2"/>
      <point x="333" y="48"/>
      <point x="352" y="63" type="curve"/>
      <point x="342" y="87" type="line"/>
      <point x="226" y="59"/>
      <point x="124" y="102"/>
      <point x="124" y="233" type="curve"/>
      <point x="124" y="313"/>
      <point x="167" y="359"/>
      <point x="198" y="382" type="curve"/>
      <point x="236" y="376"/>
      <point x="269" y="351"/>
      <point x="285" y="331" type="curve"/>
      <point x="359" y="397" type="line"/>
      <point x="360" y="404" type="line"/>
      <point x="342" y="430"/>
      <point x="300" y="450"/>
      <point x="255" y="450" type="curve"/>
      <point x="188" y="450"/>
      <point x="63" y="356"/>
      <point x="43" y="306" type="curve"/>
      <point x="-4" y="167"/>
      <point x="38" y="-1"/>
    </contour>
    <contour>
      <point x="234" y="492" type="curve"/>
      <point x="251" y="477" type="line"/>
      <point x="280" y="501"/>
      <point x="308" y="531"/>
      <point x="338" y="572" type="curve"/>
      <point x="348" y="644"/>
      <point x="301" y="671"/>
      <point x="232" y="671" type="curve"/>
      <point x="167" y="600" type="line"/>
      <point x="169" y="580" type="line"/>
      <point x="213" y="584"/>
      <point x="259" y="583"/>
      <point x="259" y="541" type="curve"/>
      <point x="259" y="526"/>
      <point x="249" y="515"/>
    </contour>
    <contour>
      <point x="177" y="445" type="move" name="_top"/>
    </contour>
    <contour>
      <point x="177" y="1" type="move" name="bottom"/>
    </contour>
    <contour>
      <point x="177" y="761" type="move" name="top"/>
    </contour>
  </outline>
</glyph>
<glyph name="c_macr" format="1">
  <advance width="369"/>
  <outline>
    <contour>
      <point x="195" y="-8" type="curve"/>
      <point x="242" y="-2"/>
      <point x="333" y="48"/>
      <point x="352" y="63" type="curve"/>
      <point x="342" y="87" type="line"/>
      <point x="226" y="59"/>
      <point x="124" y="102"/>
      <point x="124" y="233" type="curve" smooth="yes"/>
      <point x="124" y="313"/>
      <point x="167" y="359"/>
      <point x="198" y="382" type="curve"/>
      <point x="236" y="376"/>
      <point x="269" y="351"/>
      <point x="285" y="331" type="curve"/>
      <point x="359" y="397" type="line"/>
      <point x="360" y="404" type="line"/>
      <point x="342" y="430"/>
      <point x="300" y="450"/>
      <point x="255" y="450" type="curve" smooth="yes"/>
      <point x="188" y="450"/>
      <point x="63" y="356"/>
      <point x="43" y="306" type="curve"/>
      <point x="-4" y="167"/>
      <point x="38" y="-1"/>
    </contour>
    <contour>
      <point x="107" y="512" type="line"/>
      <point x="123" y="550"/>
      <point x="222" y="558"/>
      <point x="290" y="552" type="curve"/>
      <point x="364" y="660" type="line"/>
      <point x="333" y="674" type="line"/>
      <point x="292" y="633"/>
      <point x="222" y="638"/>
      <point x="136" y="638" type="curve"/>
      <point x="80" y="526" type="line"/>
    </contour>
    <contour>
      <point x="207" y="384" type="move" name="_top"/>
    </contour>
    <contour>
      <point x="177" y="1" type="move" name="bottom"/>
    </contour>
    <contour>
      <point x="207" y="687" type="move" name="top"/>
    </contour>
  </outline>
</glyph>
<glyph name="c_ra" format="1">
  <advance width="394"/>
  <outline>
    <contour>
      <point x="195" y="-8" type="curve"/>
      <point x="195" y="-8" type="line"/>
      <point x="242" y="-2"/>
      <point x="333" y="48"/>
      <point x="352" y="63" type="curve"/>
      <point x="342" y="87" type="line"/>
      <point x="226" y="59"/>
      <point x="124" y="102"/>
      <point x="124" y="233" type="curve"/>
      <point x="124" y="313"/>
      <point x="167" y="359"/>
      <point x="198" y="382" type="curve"/>
      <point x="236" y="376"/>
      <point x="269" y="351"/>
      <point x="285" y="331" type="curve"/>
      <point x="359" y="397" type="line"/>
      <point x="360" y="404" type="line"/>
      <point x="342" y="430"/>
      <point x="300" y="450"/>
      <point x="255" y="450" type="curve"/>
      <point x="188" y="450"/>
      <point x="63" y="356"/>
      <point x="43" y="306" type="curve"/>
      <point x="-4" y="167"/>
      <point x="38" y="-1"/>
    </contour>
    <contour>
      <point x="295" y="540" type="curve"/>
      <point x="295" y="540" type="line"/>
      <point x="350" y="595"/>
      <point x="375" y="621"/>
      <point x="384" y="630" type="curve"/>
      <point x="368" y="649" type="line"/>
      <point x="328" y="625"/>
      <point x="326" y="632"/>
      <point x="269" y="690" type="curve"/>
      <point x="243" y="669"/>
      <point x="214" y="635"/>
      <point x="180" y="620" type="curve"/>
      <point x="162" y="622"/>
      <point x="136" y="651"/>
      <point x="118" y="692" type="curve"/>
      <point x="94" y="674"/>
      <point x="61" y="651"/>
      <point x="45" y="630" type="curve"/>
      <point x="70" y="594"/>
      <point x="93" y="563"/>
      <point x="133" y="541" type="curve"/>
      <point x="155" y="567"/>
      <point x="178" y="588"/>
      <point x="215" y="614" type="curve"/>
      <point x="253" y="598"/>
      <point x="279" y="561"/>
    </contour>
    <contour>
      <point x="177" y="1" type="move" name="bottom"/>
    </contour>
    <contour>
      <point x="187" y="445" type="move" name="top"/>
    </contour>
  </outline>
</glyph>
<glyph name="d_strok" format="1">
  <advance width="557"/>
  <outline>
    <contour>
      <point x="278" y="-10" type="curve" smooth="yes"/>
      <point x="345" y="-10"/>
      <point x="433" y="46"/>
      <point x="495" y="111" type="curve"/>
      <point x="518" y="154"/>
      <point x="532" y="197"/>
      <point x="532" y="253" type="curve" smooth="yes"/>
      <point x="532" y="337"/>
      <point x="485" y="427"/>
      <point x="345" y="445" type="curve" smooth="yes"/>
      <point x="253" y="457"/>
      <point x="146" y="469"/>
      <point x="127" y="494" type="curve"/>
      <point x="103" y="496" type="line"/>
      <point x="25" y="414" type="line"/>
      <point x="31" y="394" type="line"/>
      <point x="107" y="386"/>
      <point x="163" y="378"/>
      <point x="208" y="371" type="curve"/>
      <point x="147" y="328"/>
      <point x="85" y="285"/>
      <point x="58" y="257" type="curve"/>
      <point x="27" y="128"/>
      <point x="134" y="-10"/>
    </contour>
    <contour>
      <point x="308" y="42" type="curve" smooth="yes"/>
      <point x="243" y="42"/>
      <point x="166" y="85"/>
      <point x="166" y="206" type="curve" smooth="yes"/>
      <point x="166" y="280"/>
      <point x="213" y="336"/>
      <point x="262" y="362" type="curve"/>
      <point x="277" y="359"/>
      <point x="292" y="357"/>
      <point x="306" y="354" type="curve" smooth="yes"/>
      <point x="389" y="339"/>
      <point x="435" y="295"/>
      <point x="435" y="206" type="curve" smooth="yes"/>
      <point x="435" y="111"/>
      <point x="373" y="42"/>
    </contour>
    <contour>
      <point x="347" y="472" type="line"/>
      <point x="384" y="492"/>
      <point x="422" y="518"/>
      <point x="464" y="555" type="curve"/>
      <point x="491" y="631"/>
      <point x="446" y="671"/>
      <point x="372" y="687" type="curve"/>
      <point x="285" y="625" type="line"/>
      <point x="282" y="603" type="line"/>
      <point x="331" y="597"/>
      <point x="381" y="586"/>
      <point x="371" y="540" type="curve" smooth="yes"/>
      <point x="367" y="524"/>
      <point x="354" y="514"/>
      <point x="332" y="493" type="curve"/>
    </contour>
    <contour>
      <point x="281" y="1" type="move" name="bottom"/>
    </contour>
    <contour>
      <point x="281" y="223" type="move" name="center"/>
    </contour>
    <contour>
      <point x="281" y="445" type="move" name="top"/>
    </contour>
    <contour>
      <point x="518" y="445" type="move" name="topright"/>
    </contour>
  </outline>
</glyph>
<glyph name="e_hook" format="1">
  <advance width="399"/>
  <outline>
    <contour>
      <point x="198" y="-9" type="curve"/>
      <point x="198" y="-9" type="line"/>
      <point x="249" y="-9"/>
      <point x="320" y="32"/>
      <point x="365" y="61" type="curve"/>
      <point x="357" y="83" type="line"/>
      <point x="243" y="43"/>
      <point x="157" y="96"/>
      <point x="134" y="193" type="curve"/>
      <point x="376" y="300" type="line"/>
      <point x="384" y="319" type="line"/>
      <point x="371" y="417"/>
      <point x="294" y="437"/>
      <point x="223" y="450" type="curve"/>
      <point x="195" y="440"/>
      <point x="94" y="388"/>
      <point x="53" y="338" type="curve"/>
      <point x="38" y="306"/>
      <point x="25" y="266"/>
      <point x="25" y="199" type="curve"/>
      <point x="25" y="64"/>
      <point x="123" y="-9"/>
    </contour>
    <contour>
      <point x="129" y="227" type="line"/>
      <point x="129" y="226" type="line"/>
      <point x="128" y="233"/>
      <point x="128" y="240"/>
      <point x="128" y="247" type="curve"/>
      <point x="128" y="295"/>
      <point x="136" y="334"/>
      <point x="167" y="375" type="curve"/>
      <point x="221" y="375"/>
      <point x="279" y="337"/>
      <point x="279" y="296" type="curve"/>
    </contour>
    <contour>
      <point x="224" y="517" type="curve"/>
      <point x="244" y="505" type="line"/>
      <point x="268" y="533"/>
      <point x="290" y="568"/>
      <point x="313" y="613" type="curve"/>
      <point x="310" y="686"/>
      <point x="259" y="704"/>
      <point x="191" y="693" type="curve"/>
      <point x="140" y="611" type="line"/>
      <point x="145" y="592" type="line"/>
      <point x="188" y="604"/>
      <point x="233" y="611"/>
      <point x="240" y="569" type="curve"/>
      <point x="243" y="554"/>
      <point x="235" y="542"/>
    </contour>
    <contour>
      <point x="199" y="1" type="move" name="bottom"/>
    </contour>
    <contour>
      <point x="342" y="12" type="move" name="ogonek"/>
    </contour>
    <contour>
      <point x="199" y="445" type="move" name="top"/>
    </contour>
  </outline>
</glyph>
<glyph name="e_macr" format="1">
  <advance width="416"/>
  <outline>
    <contour>
      <point x="198" y="-9" type="curve" smooth="yes"/>
      <point x="249" y="-9"/>
      <point x="320" y="32"/>
      <point x="365" y="61" type="curve"/>
      <point x="357" y="83" type="line"/>
      <point x="243" y="43"/>
      <point x="157" y="96"/>
      <point x="134" y="193" type="curve"/>
      <point x="376" y="300" type="line"/>
      <point x="384" y="319" type="line"/>
      <point x="371" y="417"/>
      <point x="301" y="437"/>
      <point x="230" y="450" type="curve"/>
      <point x="202" y="440"/>
      <point x="94" y="388"/>
      <point x="53" y="338" type="curve"/>
      <point x="38" y="306"/>
      <point x="25" y="266"/>
      <point x="25" y="199" type="curve" smooth="yes"/>
      <point x="25" y="64"/>
      <point x="123" y="-9"/>
    </contour>
    <contour>
      <point x="129" y="226" type="line" smooth="yes"/>
      <point x="128" y="233"/>
      <point x="128" y="240"/>
      <point x="128" y="247" type="curve" smooth="yes"/>
      <point x="128" y="295"/>
      <point x="136" y="334"/>
      <point x="167" y="375" type="curve"/>
      <point x="221" y="375"/>
      <point x="279" y="337"/>
      <point x="279" y="296" type="curve"/>
      <point x="129" y="227" type="line"/>
    </contour>
    <contour>
      <point x="156" y="521" type="line"/>
      <point x="205" y="554"/>
      <point x="281" y="534"/>
      <point x="342" y="538" type="curve"/>
      <point x="367" y="568"/>
      <point x="384" y="602"/>
      <point x="401" y="622" type="curve"/>
      <point x="373" y="634" type="line"/>
      <point x="329" y="603"/>
      <point x="276" y="615"/>
      <point x="198" y="615" type="curve"/>
      <point x="168" y="586"/>
      <point x="146" y="558"/>
      <point x="132" y="534" type="curve"/>
    </contour>
    <contour>
      <point x="199" y="1" type="move" name="bottom"/>
    </contour>
    <contour>
      <point x="342" y="12" type="move" name="ogonek"/>
    </contour>
    <contour>
      <point x="262" y="649" type="move" name="top"/>
    </contour>
  </outline>
</glyph>
<glyph name="f_f" format="1">
  <advance width="458"/>
  <outline>
    <contour>
      <point x="58" y="-10" type="curve"/>
      <point x="58" y="-10" type="line"/>
      <point x="171" y="1" type="line"/>
      <point x="165" y="116"/>
      <point x="164" y="239"/>
      <point x="163" y="360" type="curve"/>
      <point x="314" y="360" type="line"/>
      <point x="310" y="237"/>
      <point x="305" y="115"/>
      <point x="303" y="-10" type="curve"/>
      <point x="416" y="1" type="line"/>
      <point x="410" y="127"/>
      <point x="408" y="242"/>
      <point x="408" y="360" type="curve"/>
      <point x="528" y="360" type="line"/>
      <point x="537" y="395" type="line"/>
      <point x="537" y="414" type="line"/>
      <point x="408" y="414" type="line"/>
      <point x="408" y="585" type="line" smooth="yes"/>
      <point x="408" y="623"/>
      <point x="430" y="654"/>
      <point x="472" y="653" type="curve"/>
      <point x="501" y="652"/>
      <point x="523" y="638"/>
      <point x="535" y="615" type="curve"/>
      <point x="588" y="625" type="line"/>
      <point x="583" y="670"/>
      <point x="555" y="707"/>
      <point x="497" y="707" type="curve"/>
      <point x="437" y="707"/>
      <point x="393" y="659"/>
      <point x="358" y="617" type="curve"/>
      <point x="323" y="656"/>
      <point x="289" y="710"/>
      <point x="236" y="710" type="curve"/>
      <point x="203" y="710"/>
      <point x="96" y="631"/>
      <point x="65" y="597" type="curve"/>
      <point x="65" y="535"/>
      <point x="65" y="471"/>
      <point x="64" y="407" type="curve"/>
      <point x="20" y="374" type="line"/>
      <point x="20" y="360" type="line"/>
      <point x="63" y="360" type="line"/>
      <point x="62" y="235"/>
      <point x="60" y="109"/>
    </contour>
    <contour>
      <point x="315" y="415" type="curve"/>
      <point x="163" y="415" type="line"/>
      <point x="163" y="630" type="line"/>
      <point x="238" y="640"/>
      <point x="289" y="612"/>
      <point x="317" y="562" type="curve"/>
      <point x="317" y="513"/>
      <point x="316" y="464"/>
    </contour>
    <contour>
      <point x="138" y="1" type="move" name="bottom"/>
    </contour>
    <contour>
      <point x="255" y="1" type="move" name="caret_1"/>
    </contour>
    <contour>
      <point x="138" y="445" type="move" name="top"/>
    </contour>
  </outline>
</glyph>
<glyph name="flour" format="1">
  <advance width="340"/>
  <outline>
    <contour>
      <point x="51" y="-190" type="curve"/>
      <point x="79" y="-190"/>
      <point x="122" y="-171"/>
      <point x="167" y="-155" type="curve"/>
      <point x="168" y="-133" type="line"/>
      <point x="133" y="-127"/>
      <point x="100" y="-109"/>
      <point x="106" y="-70" type="curve" smooth="yes"/>
      <point x="116" y="-3"/>
      <point x="217" y="12"/>
      <point x="325" y="17" type="curve"/>
      <point x="310" y="42" type="line"/>
      <point x="161" y="39"/>
      <point x="13" y="-8"/>
      <point x="15" y="-93" type="curve" smooth="yes"/>
      <point x="16" y="-127"/>
      <point x="26" y="-162"/>
    </contour>
  </outline>
</glyph>
<glyph name="g_hook" format="1">
  <advance width="540"/>
  <outline>
    <contour>
      <point x="233" y="-288" type="curve" smooth="yes"/>
      <point x="338" y="-288"/>
      <point x="486" y="-220"/>
      <point x="486" y="-77" type="curve" smooth="yes"/>
      <point x="486" y="22"/>
      <point x="399" y="62"/>
      <point x="330" y="92" type="curve"/>
      <point x="380" y="117"/>
      <point x="475" y="179"/>
      <point x="475" y="262" type="curve" smooth="yes"/>
      <point x="475" y="296"/>
      <point x="461" y="328"/>
      <point x="448" y="353" type="curve"/>
      <point x="527" y="351" type="line"/>
      <point x="527" y="422" type="line"/>
      <point x="443" y="429" type="line" smooth="yes"/>
      <point x="398" y="433"/>
      <point x="331" y="447"/>
      <point x="256" y="450" type="curve"/>
      <point x="178" y="440"/>
      <point x="40" y="334"/>
      <point x="40" y="224" type="curve" smooth="yes"/>
      <point x="40" y="119"/>
      <point x="108" y="82"/>
      <point x="171" y="54" type="curve"/>
      <point x="111" y="14"/>
      <point x="30" y="-44"/>
      <point x="30" y="-100" type="curve" smooth="yes"/>
      <point x="30" y="-206"/>
      <point x="126" y="-288"/>
    </contour>
    <contour>
      <point x="272" y="-247" type="curve" smooth="yes"/>
      <point x="193" y="-247"/>
      <point x="132" y="-188"/>
      <point x="132" y="-108" type="curve" smooth="yes"/>
      <point x="132" y="-46"/>
      <point x="162" y="-2"/>
      <point x="211" y="37" type="curve"/>
      <point x="223" y="32" type="line" smooth="yes"/>
      <point x="334" y="-20"/>
      <point x="380" y="-57"/>
      <point x="380" y="-128" type="curve" smooth="yes"/>
      <point x="380" y="-204"/>
      <point x="324" y="-247"/>
    </contour>
    <contour>
      <point x="291" y="109" type="curve"/>
      <point x="199" y="148"/>
      <point x="128" y="176"/>
      <point x="128" y="257" type="curve" smooth="yes"/>
      <point x="128" y="313"/>
      <point x="170" y="365"/>
      <point x="235" y="365" type="curve" smooth="yes"/>
      <point x="307" y="365"/>
      <point x="369" y="329"/>
      <point x="369" y="250" type="curve" smooth="yes"/>
      <point x="369" y="199"/>
      <point x="334" y="145"/>
    </contour>
    <contour>
      <point x="432" y="494" type="line"/>
      <point x="465" y="521"/>
      <point x="496" y="554"/>
      <point x="529" y="600" type="curve"/>
      <point x="540" y="680"/>
      <point x="488" y="710"/>
      <point x="411" y="710" type="curve"/>
      <point x="339" y="631" type="line"/>
      <point x="341" y="609" type="line"/>
      <point x="390" y="613"/>
      <point x="441" y="612"/>
      <point x="441" y="566" type="curve" smooth="yes"/>
      <point x="441" y="549"/>
      <point x="430" y="537"/>
      <point x="414" y="511" type="curve"/>
    </contour>
    <contour>
      <point x="277" y="1" type="move" name="bottom"/>
    </contour>
    <contour>
      <point x="277" y="445" type="move" name="top"/>
    </contour>
  </outline>
</glyph>
<glyph name="g_i" format="1">
  <advance width="728"/>
  <outline>
    <contour>
      <point x="233" y="-288" type="curve" smooth="yes"/>
      <point x="338" y="-288"/>
      <point x="486" y="-220"/>
      <point x="486" y="-77" type="curve" smooth="yes"/>
      <point x="486" y="22"/>
      <point x="399" y="62"/>
      <point x="330" y="92" type="curve"/>
      <point x="380" y="117"/>
      <point x="475" y="179"/>
      <point x="475" y="262" type="curve" smooth="yes"/>
      <point x="475" y="296"/>
      <point x="461" y="328"/>
      <point x="448" y="353" type="curve"/>
      <point x="553" y="350" type="line"/>
      <point x="554" y="65" type="line" smooth="yes"/>
      <point x="554" y="26"/>
      <point x="585" y="-10"/>
      <point x="603" y="-10" type="curve"/>
      <point x="627" y="2"/>
      <point x="672" y="23"/>
      <point x="703" y="35" type="curve"/>
      <point x="701" y="60" type="line"/>
      <point x="666" y="58"/>
      <point x="656" y="75"/>
      <point x="654" y="109" type="curve" smooth="yes"/>
      <point x="648" y="212"/>
      <point x="650" y="386"/>
      <point x="655" y="441" type="curve"/>
      <point x="643" y="449" type="line"/>
      <point x="619" y="439"/>
      <point x="556" y="427"/>
      <point x="519" y="423" type="curve"/>
      <point x="443" y="429" type="line" smooth="yes"/>
      <point x="398" y="433"/>
      <point x="331" y="447"/>
      <point x="256" y="450" type="curve"/>
      <point x="178" y="440"/>
      <point x="40" y="334"/>
      <point x="40" y="224" type="curve" smooth="yes"/>
      <point x="40" y="119"/>
      <point x="108" y="82"/>
      <point x="171" y="54" type="curve"/>
      <point x="111" y="14"/>
      <point x="30" y="-44"/>
      <point x="30" y="-100" type="curve" smooth="yes"/>
      <point x="30" y="-206"/>
      <point x="126" y="-288"/>
    </contour>
    <contour>
      <point x="272" y="-247" type="curve" smooth="yes"/>
      <point x="193" y="-247"/>
      <point x="132" y="-188"/>
      <point x="132" y="-108" type="curve" smooth="yes"/>
      <point x="132" y="-46"/>
      <point x="162" y="-2"/>
      <point x="211" y="37" type="curve"/>
      <point x="223" y="32" type="line" smooth="yes"/>
      <point x="334" y="-20"/>
      <point x="380" y="-57"/>
      <point x="380" y="-128" type="curve" smooth="yes"/>
      <point x="380" y="-204"/>
      <point x="324" y="-247"/>
    </contour>
    <contour>
      <point x="291" y="109" type="curve"/>
      <point x="199" y="148"/>
      <point x="128" y="176"/>
      <point x="128" y="257" type="curve" smooth="yes"/>
      <point x="128" y="313"/>
      <point x="170" y="365"/>
      <point x="235" y="365" type="curve" smooth="yes"/>
      <point x="307" y="365"/>
      <point x="369" y="329"/>
      <point x="369" y="250" type="curve" smooth="yes"/>
      <point x="369" y="199"/>
      <point x="334" y="145"/>
    </contour>
    <contour>
      <point x="623" y="520" type="line"/>
      <point x="686" y="635" type="line"/>
      <point x="665" y="651" type="line"/>
      <point x="593" y="561" type="line"/>
    </contour>
    <contour>
      <point x="622" y="1" type="move" name="bottom"/>
    </contour>
    <contour>
      <point x="277" y="445" type="move" name="top"/>
    </contour>
  </outline>
</glyph>
<glyph name="g_ra" format="1">
  <advance width="548"/>
  <outline>
    <contour>
      <point x="233" y="-288" type="curve" smooth="yes"/>
      <point x="338" y="-288"/>
      <point x="486" y="-220"/>
      <point x="486" y="-77" type="curve" smooth="yes"/>
      <point x="486" y="22"/>
      <point x="399" y="62"/>
      <point x="330" y="92" type="curve"/>
      <point x="380" y="117"/>
      <point x="475" y="179"/>
      <point x="475" y="262" type="curve" smooth="yes"/>
      <point x="475" y="296"/>
      <point x="461" y="328"/>
      <point x="448" y="353" type="curve"/>
      <point x="527" y="351" type="line"/>
      <point x="527" y="422" type="line"/>
      <point x="443" y="429" type="line" smooth="yes"/>
      <point x="398" y="433"/>
      <point x="331" y="447"/>
      <point x="256" y="450" type="curve"/>
      <point x="178" y="440"/>
      <point x="40" y="334"/>
      <point x="40" y="224" type="curve" smooth="yes"/>
      <point x="40" y="119"/>
      <point x="108" y="82"/>
      <point x="171" y="54" type="curve"/>
      <point x="111" y="14"/>
      <point x="30" y="-44"/>
      <point x="30" y="-100" type="curve" smooth="yes"/>
      <point x="30" y="-206"/>
      <point x="126" y="-288"/>
    </contour>
    <contour>
      <point x="272" y="-247" type="curve" smooth="yes"/>
      <point x="193" y="-247"/>
      <point x="132" y="-188"/>
      <point x="132" y="-108" type="curve" smooth="yes"/>
      <point x="132" y="-46"/>
      <point x="162" y="-2"/>
      <point x="211" y="37" type="curve"/>
      <point x="223" y="32" type="line" smooth="yes"/>
      <point x="334" y="-20"/>
      <point x="380" y="-57"/>
      <point x="380" y="-128" type="curve" smooth="yes"/>
      <point x="380" y="-204"/>
      <point x="324" y="-247"/>
    </contour>
    <contour>
      <point x="291" y="109" type="curve"/>
      <point x="199" y="148"/>
      <point x="128" y="176"/>
      <point x="128" y="257" type="curve" smooth="yes"/>
      <point x="128" y="313"/>
      <point x="170" y="365"/>
      <point x="235" y="365" type="curve" smooth="yes"/>
      <point x="307" y="365"/>
      <point x="369" y="329"/>
      <point x="369" y="250" type="curve" smooth="yes"/>
      <point x="369" y="199"/>
      <point x="334" y="145"/>
    </contour>
    <contour>
      <point x="466" y="523" type="curve"/>
      <point x="523" y="581"/>
      <point x="548" y="607"/>
      <point x="558" y="616" type="curve"/>
      <point x="541" y="636" type="line"/>
      <point x="500" y="612"/>
      <point x="498" y="619"/>
      <point x="439" y="678" type="curve"/>
      <point x="412" y="656"/>
      <point x="382" y="622"/>
      <point x="346" y="606" type="curve"/>
      <point x="328" y="608"/>
      <point x="301" y="638"/>
      <point x="283" y="681" type="curve"/>
      <point x="258" y="662"/>
      <point x="223" y="638"/>
      <point x="207" y="616" type="curve"/>
      <point x="232" y="579"/>
      <point x="256" y="547"/>
      <point x="298" y="524" type="curve"/>
      <point x="321" y="552"/>
      <point x="345" y="573"/>
      <point x="383" y="600" type="curve"/>
      <point x="422" y="584"/>
      <point x="449" y="545"/>
    </contour>
    <contour>
      <point x="277" y="1" type="move" name="bottom"/>
    </contour>
    <contour>
      <point x="277" y="445" type="move" name="top"/>
    </contour>
  </outline>
</glyph>
<glyph name="h_hook" format="1">
  <advance width="513"/>
  <outline>
    <contour>
      <point x="317" y="-12" type="line"/>
      <point x="378" y="38"/>
      <point x="488" y="206"/>
      <point x="488" y="244" type="curve" smooth="yes"/>
      <point x="488" y="388"/>
      <point x="389" y="451"/>
      <point x="280" y="451" type="curve"/>
      <point x="154" y="355" type="line"/>
      <point x="154" y="368" type="line" smooth="yes"/>
      <point x="152" y="492"/>
      <point x="150" y="655"/>
      <point x="174" y="687" type="curve"/>
      <point x="171" y="713" type="line"/>
      <point x="45" y="700" type="line"/>
      <point x="62" y="546"/>
      <point x="56" y="147"/>
      <point x="53" y="-8" type="curve"/>
      <point x="161" y="1" type="line"/>
      <point x="155" y="322" type="line"/>
      <point x="179" y="338"/>
      <point x="214" y="350"/>
      <point x="255" y="350" type="curve" smooth="yes"/>
      <point x="334" y="350"/>
      <point x="408" y="298"/>
      <point x="408" y="206" type="curve" smooth="yes"/>
      <point x="408" y="150"/>
      <point x="381" y="104"/>
      <point x="338" y="80" type="curve"/>
      <point x="281" y="108" type="line"/>
      <point x="230" y="32" type="line"/>
    </contour>
    <contour>
      <point x="320" y="522" type="line"/>
      <point x="344" y="552"/>
      <point x="365" y="587"/>
      <point x="386" y="633" type="curve"/>
      <point x="380" y="706"/>
      <point x="329" y="722"/>
      <point x="261" y="708" type="curve"/>
      <point x="212" y="625" type="line"/>
      <point x="219" y="606" type="line"/>
      <point x="261" y="619"/>
      <point x="306" y="628"/>
      <point x="315" y="587" type="curve" smooth="yes"/>
      <point x="318" y="572"/>
      <point x="310" y="559"/>
      <point x="300" y="533" type="curve"/>
    </contour>
    <contour>
      <point x="241" y="445" type="move" name="_top"/>
    </contour>
    <contour>
      <point x="255" y="1" type="move" name="bottom"/>
    </contour>
    <contour>
      <point x="255" y="223" type="move" name="center"/>
    </contour>
    <contour>
      <point x="241" y="795" type="move" name="top"/>
    </contour>
  </outline>
</glyph>
<glyph name="i.ss01" format="1">
  <advance width="211"/>
  <outline>
    <contour>
      <point x="86" y="-10" type="curve"/>
      <point x="110" y="-2"/>
      <point x="160" y="13"/>
      <point x="186" y="25" type="curve"/>
      <point x="184" y="47" type="line"/>
      <point x="149" y="45"/>
      <point x="138" y="62"/>
      <point x="137" y="96" type="curve" smooth="yes"/>
      <point x="132" y="211"/>
      <point x="134" y="347"/>
      <point x="146" y="446" type="curve"/>
      <point x="137" y="450" type="line"/>
      <point x="54" y="437" type="line"/>
      <point x="48" y="384"/>
      <point x="40" y="128"/>
      <point x="40" y="27" type="curve"/>
      <point x="56" y="8"/>
      <point x="67" y="0"/>
    </contour>
  </outline>
</glyph>
<glyph name="i_n" format="1">
  <advance width="651"/>
  <outline>
    <contour>
      <point x="263" y="-9" type="curve"/>
      <point x="263" y="-9" type="line"/>
      <point x="370" y="11" type="line"/>
      <point x="370" y="337" type="line"/>
      <point x="383" y="362"/>
      <point x="411" y="379"/>
      <point x="433" y="379" type="curve"/>
      <point x="472" y="379"/>
      <point x="490" y="354"/>
      <point x="491" y="323" type="curve"/>
      <point x="494" y="240"/>
      <point x="492" y="95"/>
      <point x="488" y="-9" type="curve"/>
      <point x="596" y="10" type="line"/>
      <point x="592" y="125"/>
      <point x="592" y="233"/>
      <point x="592" y="338" type="curve"/>
      <point x="592" y="421"/>
      <point x="560" y="451"/>
      <point x="489" y="451" type="curve"/>
      <point x="464" y="451"/>
      <point x="417" y="421"/>
      <point x="367" y="385" type="curve"/>
      <point x="358" y="425"/>
      <point x="327" y="450"/>
      <point x="267" y="450" type="curve"/>
      <point x="230" y="450"/>
      <point x="192" y="408"/>
      <point x="156" y="383" type="curve"/>
      <point x="149" y="426"/>
      <point x="123" y="439"/>
      <point x="106" y="450" type="curve"/>
      <point x="77" y="439"/>
      <point x="44" y="425"/>
      <point x="25" y="412" type="curve"/>
      <point x="26" y="393" type="line"/>
      <point x="45" y="385"/>
      <point x="56" y="368"/>
      <point x="56" y="354" type="curve"/>
      <point x="57" y="0" type="line"/>
      <point x="157" y="0" type="line"/>
      <point x="157" y="349" type="line"/>
      <point x="175" y="367"/>
      <point x="197" y="374"/>
      <point x="217" y="374" type="curve"/>
      <point x="246" y="374"/>
      <point x="270" y="359"/>
      <point x="270" y="318" type="curve"/>
      <point x="270" y="250"/>
      <point x="268" y="66"/>
    </contour>
    <contour>
      <point x="100" y="543" type="line"/>
      <point x="130" y="529" type="line"/>
      <point x="213" y="664" type="line"/>
      <point x="164" y="689" type="line"/>
    </contour>
    <contour>
      <point x="95" y="1" type="move" name="bottom"/>
    </contour>
    <contour>
      <point x="140" y="1" type="move" name="bottom_1"/>
    </contour>
    <contour>
      <point x="439" y="1" type="move" name="bottom_2"/>
    </contour>
    <contour>
      <point x="290" y="1" type="move" name="caret_1"/>
    </contour>
    <contour>
      <point x="395" y="445" type="move" name="top"/>
    </contour>
  </outline>
</glyph>
<glyph name="l_hook" format="1">
  <advance width="373"/>
  <outline>
    <contour>
      <point x="116" y="-10" type="curve"/>
      <point x="140" y="5"/>
      <point x="170" y="27"/>
      <point x="202" y="40" type="curve"/>
      <point x="200" y="66" type="line"/>
      <point x="156" y="66"/>
      <point x="151" y="75"/>
      <point x="151" y="109" type="curve" smooth="yes"/>
      <point x="151" y="175"/>
      <point x="152" y="255"/>
      <point x="154" y="341" type="curve"/>
      <point x="258" y="441"/>
      <point x="336" y="537"/>
      <point x="369" y="572" type="curve"/>
      <point x="387" y="603"/>
      <point x="342" y="683"/>
      <point x="273" y="690" type="curve"/>
      <point x="207" y="618" type="line"/>
      <point x="207" y="598" type="line"/>
      <point x="251" y="597"/>
      <point x="287" y="574"/>
      <point x="288" y="550" type="curve" smooth="yes"/>
      <point x="290" y="516"/>
      <point x="203" y="429"/>
      <point x="155" y="381" type="curve"/>
      <point x="157" y="483"/>
      <point x="162" y="593"/>
      <point x="169" y="698" type="curve"/>
      <point x="156" y="704" type="line"/>
      <point x="45" y="685" type="line"/>
      <point x="66" y="454"/>
      <point x="52" y="297"/>
      <point x="55" y="65" type="curve" smooth="yes"/>
      <point x="55" y="36"/>
      <point x="91" y="4"/>
    </contour>
    <contour>
      <point x="218" y="422" type="move" name="_top"/>
    </contour>
    <contour>
      <point x="117" y="1" type="move" name="bottom"/>
    </contour>
    <contour>
      <point x="117" y="223" type="move" name="center"/>
    </contour>
    <contour>
      <point x="218" y="773" type="move" name="top"/>
    </contour>
    <contour>
      <point x="191" y="445" type="move" name="topright"/>
    </contour>
  </outline>
</glyph>
<glyph name="longhook" format="1">
  <advance width="299"/>
  <outline>
    <contour>
      <point x="38" y="338" type="line"/>
      <point x="171" y="411"/>
      <point x="289" y="503"/>
      <point x="289" y="608" type="curve" smooth="yes"/>
      <point x="289" y="649"/>
      <point x="247" y="708"/>
      <point x="208" y="708" type="curve" smooth="yes"/>
      <point x="165" y="708"/>
      <point x="79" y="646"/>
      <point x="34" y="578" type="curve"/>
      <point x="44" y="551" type="line"/>
      <point x="82" y="609"/>
      <point x="123" y="631"/>
      <point x="154" y="631" type="curve" smooth="yes"/>
      <point x="194" y="631"/>
      <point x="205" y="607"/>
      <point x="205" y="576" type="curve" smooth="yes"/>
      <point x="205" y="510"/>
      <point x="134" y="426"/>
      <point x="20" y="353" type="curve"/>
    </contour>
  </outline>
</glyph>
<glyph name="longs_i" format="1">
  <advance width="487"/>
  <outline>
    <contour>
      <point x="68" y="-10" type="curve"/>
      <point x="181" y="1" type="line"/>
      <point x="171" y="205"/>
      <point x="173" y="352"/>
      <point x="173" y="557" type="curve" smooth="yes"/>
      <point x="173" y="648"/>
      <point x="275" y="623"/>
      <point x="329" y="594" type="curve"/>
      <point x="399" y="667" type="line"/>
      <point x="397" y="684" type="line"/>
      <point x="273" y="712" type="line"/>
      <point x="210" y="712"/>
      <point x="75" y="535"/>
      <point x="75" y="497" type="curve" smooth="yes"/>
      <point x="75" y="407" type="line"/>
      <point x="30" y="374" type="line"/>
      <point x="30" y="360" type="line"/>
      <point x="74" y="360" type="line"/>
      <point x="73" y="237"/>
      <point x="70" y="135"/>
    </contour>
    <contour>
      <point x="362" y="-10" type="curve"/>
      <point x="386" y="-3"/>
      <point x="436" y="13"/>
      <point x="462" y="25" type="curve"/>
      <point x="460" y="47" type="line"/>
      <point x="425" y="45"/>
      <point x="413" y="62"/>
      <point x="413" y="96" type="curve" smooth="yes"/>
      <point x="413" y="407" type="line"/>
      <point x="401" y="431"/>
      <point x="370" y="450"/>
      <point x="362" y="450" type="curve"/>
      <point x="336" y="439"/>
      <point x="302" y="425"/>
      <point x="284" y="412" type="curve"/>
      <point x="285" y="393" type="line"/>
      <point x="304" y="385"/>
      <point x="315" y="375"/>
      <point x="315" y="346" type="curve" smooth="yes"/>
      <point x="316" y="29" type="line"/>
      <point x="332" y="9"/>
      <point x="349" y="-2"/>
    </contour>
    <contour>
      <point x="194" y="1" type="move" name="bottom"/>
    </contour>
    <contour>
      <point x="194" y="445" type="move" name="top"/>
    </contour>
  </outline>
</glyph>
<glyph name="longs_strok" format="1">
  <advance width="470"/>
  <outline>
    <contour>
      <point x="74" y="330" type="line"/>
      <point x="68" y="-10" type="line"/>
      <point x="181" y="1" type="line"/>
      <point x="180" y="20"/>
      <point x="179" y="38"/>
      <point x="179" y="56" type="curve"/>
      <point x="273" y="132"/>
      <point x="407" y="222"/>
      <point x="446" y="287" type="curve"/>
      <point x="436" y="350"/>
      <point x="365" y="413"/>
      <point x="299" y="451" type="curve"/>
      <point x="251" y="434"/>
      <point x="215" y="413"/>
      <point x="173" y="394" type="curve"/>
      <point x="173" y="517" type="line" smooth="yes"/>
      <point x="173" y="586"/>
      <point x="192" y="610"/>
      <point x="207" y="620" type="curve"/>
      <point x="263" y="625"/>
      <point x="356" y="599"/>
      <point x="393" y="579" type="curve"/>
      <point x="465" y="644" type="line"/>
      <point x="463" y="661" type="line"/>
      <point x="293" y="712" type="line"/>
      <point x="230" y="712"/>
      <point x="75" y="564"/>
      <point x="75" y="526" type="curve"/>
      <point x="75" y="479"/>
      <point x="75" y="435"/>
      <point x="74" y="392" type="curve"/>
      <point x="30" y="344" type="line"/>
      <point x="30" y="330" type="line"/>
    </contour>
    <contour>
      <point x="177" y="97" type="curve"/>
      <point x="177" y="97" type="line"/>
      <point x="174" y="193"/>
      <point x="173" y="277"/>
      <point x="173" y="360" type="curve"/>
      <point x="190" y="365"/>
      <point x="212" y="369"/>
      <point x="238" y="369" type="curve"/>
      <point x="280" y="369"/>
      <point x="337" y="323"/>
      <point x="337" y="282" type="curve"/>
      <point x="337" y="230"/>
      <point x="247" y="152"/>
    </contour>
    <contour>
      <point x="194" y="1" type="move" name="bottom"/>
    </contour>
    <contour>
      <point x="194" y="445" type="move" name="top"/>
    </contour>
  </outline>
</glyph>
<glyph name="m_macr" format="1">
  <advance width="702"/>
  <outline>
    <contour>
      <point x="64" y="1" type="line"/>
      <point x="177" y="1" type="line"/>
      <point x="177" y="336" type="line"/>
      <point x="192" y="365"/>
      <point x="222" y="379"/>
      <point x="241" y="379" type="curve" smooth="yes"/>
      <point x="270" y="379"/>
      <point x="304" y="359"/>
      <point x="304" y="318" type="curve" smooth="yes"/>
      <point x="304" y="250"/>
      <point x="302" y="76"/>
      <point x="297" y="1" type="curve"/>
      <point x="411" y="1" type="line"/>
      <point x="411" y="337" type="line"/>
      <point x="424" y="362"/>
      <point x="452" y="379"/>
      <point x="474" y="379" type="curve" smooth="yes"/>
      <point x="513" y="379"/>
      <point x="531" y="354"/>
      <point x="532" y="323" type="curve" smooth="yes"/>
      <point x="535" y="240"/>
      <point x="533" y="105"/>
      <point x="529" y="1" type="curve"/>
      <point x="647" y="1" type="line"/>
      <point x="643" y="116"/>
      <point x="643" y="233"/>
      <point x="643" y="338" type="curve" smooth="yes"/>
      <point x="643" y="421"/>
      <point x="611" y="451"/>
      <point x="530" y="451" type="curve" smooth="yes"/>
      <point x="505" y="451"/>
      <point x="458" y="421"/>
      <point x="408" y="384" type="curve"/>
      <point x="399" y="425"/>
      <point x="367" y="450"/>
      <point x="301" y="450" type="curve" smooth="yes"/>
      <point x="265" y="450"/>
      <point x="212" y="409"/>
      <point x="175" y="385" type="curve"/>
      <point x="169" y="426"/>
      <point x="143" y="440"/>
      <point x="126" y="450" type="curve"/>
      <point x="92" y="439"/>
      <point x="54" y="425"/>
      <point x="35" y="412" type="curve"/>
      <point x="36" y="393" type="line"/>
      <point x="55" y="385"/>
      <point x="66" y="368"/>
      <point x="66" y="354" type="curve" smooth="yes"/>
    </contour>
    <contour>
      <point x="308" y="528" type="line"/>
      <point x="362" y="565"/>
      <point x="447" y="542"/>
      <point x="515" y="547" type="curve"/>
      <point x="542" y="580"/>
      <point x="561" y="618"/>
      <point x="580" y="640" type="curve"/>
      <point x="549" y="653" type="line"/>
      <point x="500" y="619"/>
      <point x="441" y="632"/>
      <point x="355" y="632" type="curve"/>
      <point x="321" y="600"/>
      <point x="297" y="569"/>
      <point x="281" y="542" type="curve"/>
    </contour>
    <contour>
      <point x="345" y="1" type="move" name="bottom"/>
    </contour>
    <contour>
      <point x="425.7" y="670.03" type="move" name="top"/>
    </contour>
  </outline>
</glyph>
<glyph name="n_hook" format="1">
  <advance width="486"/>
  <outline>
    <contour>
      <point x="67" y="1" type="curve"/>
      <point x="185" y="1" type="line"/>
      <point x="185" y="337" type="line"/>
      <point x="198" y="362"/>
      <point x="226" y="379"/>
      <point x="258" y="379" type="curve" smooth="yes"/>
      <point x="297" y="379"/>
      <point x="315" y="354"/>
      <point x="316" y="323" type="curve" smooth="yes"/>
      <point x="318" y="240"/>
      <point x="317" y="105"/>
      <point x="313" y="1" type="curve"/>
      <point x="431" y="1" type="line"/>
      <point x="427" y="116"/>
      <point x="427" y="233"/>
      <point x="427" y="348" type="curve" smooth="yes"/>
      <point x="427" y="421"/>
      <point x="394" y="450"/>
      <point x="313" y="450" type="curve" smooth="yes"/>
      <point x="288" y="450"/>
      <point x="232" y="413"/>
      <point x="182" y="382" type="curve"/>
      <point x="170" y="420"/>
      <point x="130" y="443"/>
      <point x="101" y="450" type="curve" smooth="yes"/>
      <point x="92" y="452" type="line"/>
      <point x="35" y="390" type="line"/>
      <point x="37" y="370" type="line"/>
      <point x="60" y="367"/>
      <point x="75" y="368"/>
      <point x="75" y="332" type="curve" smooth="yes"/>
      <point x="75" y="244"/>
      <point x="73" y="76"/>
    </contour>
    <contour>
      <point x="233" y="478" type="line"/>
      <point x="267" y="503"/>
      <point x="300" y="534"/>
      <point x="337" y="577" type="curve"/>
      <point x="353" y="656"/>
      <point x="303" y="689"/>
      <point x="227" y="695" type="curve"/>
      <point x="149" y="621" type="line"/>
      <point x="150" y="599" type="line"/>
      <point x="199" y="600"/>
      <point x="250" y="595"/>
      <point x="247" y="548" type="curve" smooth="yes"/>
      <point x="246" y="532"/>
      <point x="234" y="520"/>
      <point x="215" y="496" type="curve"/>
    </contour>
    <contour>
      <point x="239" y="1" type="move" name="bottom"/>
    </contour>
    <contour>
      <point x="239" y="445" type="move" name="top"/>
    </contour>
  </outline>
</glyph>
<glyph name="n_macr" format="1">
  <advance width="486"/>
  <outline>
    <contour>
      <point x="67" y="1" type="curve"/>
      <point x="185" y="1" type="line"/>
      <point x="185" y="337" type="line"/>
      <point x="198" y="362"/>
      <point x="226" y="379"/>
      <point x="258" y="379" type="curve" smooth="yes"/>
      <point x="297" y="379"/>
      <point x="315" y="354"/>
      <point x="316" y="323" type="curve" smooth="yes"/>
      <point x="318" y="240"/>
      <point x="317" y="105"/>
      <point x="313" y="1" type="curve"/>
      <point x="431" y="1" type="line"/>
      <point x="427" y="116"/>
      <point x="427" y="233"/>
      <point x="427" y="348" type="curve" smooth="yes"/>
      <point x="427" y="421"/>
      <point x="394" y="450"/>
      <point x="313" y="450" type="curve" smooth="yes"/>
      <point x="288" y="450"/>
      <point x="232" y="413"/>
      <point x="182" y="382" type="curve"/>
      <point x="170" y="420"/>
      <point x="130" y="443"/>
      <point x="101" y="450" type="curve" smooth="yes"/>
      <point x="92" y="452" type="line"/>
      <point x="35" y="390" type="line"/>
      <point x="37" y="370" type="line"/>
      <point x="60" y="367"/>
      <point x="75" y="368"/>
      <point x="75" y="332" type="curve" smooth="yes"/>
      <point x="75" y="244"/>
      <point x="73" y="76"/>
    </contour>
    <contour>
      <point x="185" y="507" type="line"/>
      <point x="234" y="546"/>
      <point x="310" y="523"/>
      <point x="371" y="527" type="curve"/>
      <point x="396" y="563"/>
      <point x="413" y="603"/>
      <point x="430" y="626" type="curve"/>
      <point x="402" y="641" type="line"/>
      <point x="358" y="604"/>
      <point x="305" y="618"/>
      <point x="227" y="618" type="curve"/>
      <point x="197" y="584"/>
      <point x="175" y="551"/>
      <point x="161" y="523" type="curve"/>
    </contour>
    <contour>
      <point x="239" y="1" type="move" name="bottom"/>
    </contour>
    <contour>
      <point x="239" y="445" type="move" name="top"/>
    </contour>
  </outline>
</glyph>
<glyph name="p_hook" format="1">
  <advance width="550"/>
  <outline>
    <contour>
      <point x="80" y="-280" type="curve"/>
      <point x="80" y="-280" type="line"/>
      <point x="188" y="-280" type="line"/>
      <point x="188" y="-11" type="line"/>
      <point x="215" y="-9"/>
      <point x="243" y="-10"/>
      <point x="267" y="-10" type="curve"/>
      <point x="380" y="-10"/>
      <point x="522" y="108"/>
      <point x="525" y="230" type="curve"/>
      <point x="528" y="349"/>
      <point x="452" y="410"/>
      <point x="346" y="450" type="curve"/>
      <point x="316" y="439"/>
      <point x="247" y="400"/>
      <point x="186" y="369" type="curve"/>
      <point x="175" y="413"/>
      <point x="123" y="443"/>
      <point x="91" y="450" type="curve"/>
      <point x="82" y="452" type="line"/>
      <point x="15" y="379" type="line"/>
      <point x="17" y="359" type="line"/>
      <point x="61" y="355"/>
      <point x="88" y="312"/>
      <point x="88" y="277" type="curve"/>
      <point x="88" y="242"/>
      <point x="88" y="158"/>
      <point x="87" y="65" type="curve"/>
      <point x="48" y="45" type="line"/>
      <point x="48" y="38" type="line"/>
      <point x="86" y="4" type="line"/>
      <point x="85" y="-118"/>
      <point x="83" y="-241"/>
    </contour>
    <contour>
      <point x="287" y="46" type="curve"/>
      <point x="287" y="46" type="line"/>
      <point x="247" y="46"/>
      <point x="217" y="55"/>
      <point x="188" y="72" type="curve"/>
      <point x="188" y="327" type="line"/>
      <point x="211" y="347"/>
      <point x="240" y="361"/>
      <point x="277" y="361" type="curve"/>
      <point x="352" y="361"/>
      <point x="424" y="300"/>
      <point x="424" y="207" type="curve"/>
      <point x="424" y="101"/>
      <point x="373" y="46"/>
    </contour>
    <contour>
      <point x="281" y="547" type="curve"/>
      <point x="299" y="530" type="line"/>
      <point x="332" y="557"/>
      <point x="363" y="590"/>
      <point x="396" y="636" type="curve"/>
      <point x="407" y="716"/>
      <point x="355" y="746"/>
      <point x="278" y="746" type="curve"/>
      <point x="206" y="667" type="line"/>
      <point x="208" y="645" type="line"/>
      <point x="257" y="649"/>
      <point x="308" y="648"/>
      <point x="308" y="602" type="curve"/>
      <point x="308" y="585"/>
      <point x="297" y="573"/>
    </contour>
    <contour>
      <point x="289" y="1" type="move" name="bottom"/>
    </contour>
    <contour>
      <point x="289" y="445" type="move" name="top"/>
    </contour>
  </outline>
</glyph>
<glyph name="p_macr" format="1">
  <advance width="550"/>
  <outline>
    <contour>
      <point x="80" y="-280" type="curve"/>
      <point x="188" y="-280" type="line"/>
      <point x="188" y="-11" type="line"/>
      <point x="215" y="-9"/>
      <point x="243" y="-10"/>
      <point x="267" y="-10" type="curve" smooth="yes"/>
      <point x="380" y="-10"/>
      <point x="522" y="108"/>
      <point x="525" y="230" type="curve" smooth="yes"/>
      <point x="528" y="349"/>
      <point x="452" y="410"/>
      <point x="346" y="450" type="curve"/>
      <point x="316" y="439"/>
      <point x="247" y="400"/>
      <point x="186" y="369" type="curve"/>
      <point x="176" y="406"/>
      <point x="135" y="440"/>
      <point x="82" y="452" type="curve"/>
      <point x="15" y="379" type="line"/>
      <point x="17" y="359" type="line"/>
      <point x="61" y="355"/>
      <point x="88" y="312"/>
      <point x="88" y="277" type="curve" smooth="yes"/>
      <point x="88" y="242"/>
      <point x="88" y="158"/>
      <point x="87" y="65" type="curve"/>
      <point x="48" y="45" type="line"/>
      <point x="48" y="38" type="line"/>
      <point x="86" y="4" type="line"/>
      <point x="85" y="-118"/>
      <point x="83" y="-241"/>
    </contour>
    <contour>
      <point x="287" y="46" type="curve" smooth="yes"/>
      <point x="247" y="46"/>
      <point x="217" y="55"/>
      <point x="188" y="72" type="curve"/>
      <point x="188" y="327" type="line"/>
      <point x="211" y="347"/>
      <point x="240" y="361"/>
      <point x="277" y="361" type="curve" smooth="yes"/>
      <point x="352" y="361"/>
      <point x="424" y="300"/>
      <point x="424" y="207" type="curve" smooth="yes"/>
      <point x="424" y="101"/>
      <point x="373" y="46"/>
    </contour>
    <contour>
      <point x="216" y="514" type="line"/>
      <point x="270" y="557"/>
      <point x="355" y="531"/>
      <point x="423" y="536" type="curve"/>
      <point x="450" y="575"/>
      <point x="469" y="619"/>
      <point x="488" y="644" type="curve"/>
      <point x="457" y="660" type="line"/>
      <point x="408" y="620"/>
      <point x="349" y="635"/>
      <point x="263" y="635" type="curve"/>
      <point x="229" y="598"/>
      <point x="205" y="562"/>
      <point x="189" y="531" type="curve"/>
    </contour>
    <contour>
      <point x="291" y="1" type="move" name="bottom"/>
    </contour>
    <contour>
      <point x="291" y="445" type="move" name="top"/>
    </contour>
  </outline>
</glyph>
